<?xml version="1.0" encoding="utf-8"?>
<!-- Generator: Adobe Illustrator 15.0.2, SVG Export Plug-In . SVG Version: 6.00 Build 0)  -->
<!DOCTYPE svg PUBLIC "-//W3C//DTD SVG 1.1//EN" "http://www.w3.org/Graphics/SVG/1.1/DTD/svg11.dtd">
<svg version="1.1" id="Warstwa_1" xmlns="http://www.w3.org/2000/svg" xmlns:xlink="http://www.w3.org/1999/xlink" x="0px" y="0px"
	 width="414px" height="62px" viewBox="0 0 414 62" enable-background="new 0 0 414 62" xml:space="preserve">
<g>
	<g>
		<g>
			<circle fill="#FFDD15" cx="160.562" cy="29.743" r="26.18"/>
			<circle fill="#EC1C24" cx="160.562" cy="29.743" r="26.18"/>
		</g>
		<circle fill="#EC1C24" cx="142.136" cy="10.934" r="1.382"/>
		<circle fill="#EC1C24" cx="179.218" cy="10.934" r="1.382"/>
		<circle fill="#EC1C24" cx="134.382" cy="29.436" r="1.382"/>
		<circle fill="#EC1C24" cx="142.021" cy="48.016" r="1.382"/>
		<circle fill="#EC1C24" cx="179.103" cy="48.016" r="1.382"/>
		<path fill="#EC1C24" d="M161.944,55.635c0,0.763-0.619,1.381-1.382,1.381c-0.764,0-1.382-0.618-1.382-1.381
			c0-0.766,0.619-1.384,1.382-1.384C161.325,54.251,161.944,54.869,161.944,55.635z"/>
		<circle fill="#EC1C24" cx="160.562" cy="3.256" r="1.382"/>
	</g>
	<g>
		<path fill="#FFFFFF" d="M156.457,10.607c0.816-0.696,1.759-1.045,2.83-1.045c1.189,0,2.201,0.417,3.034,1.25
			c0.832,0.832,1.249,1.86,1.249,3.084v30.896c0,0.425-0.145,0.774-0.433,1.045c-0.289,0.272-0.629,0.408-1.02,0.408
			c-0.357,0-0.685-0.141-0.981-0.42c-0.298-0.28-0.446-0.624-0.446-1.033V13.896c0-0.425-0.14-0.769-0.42-1.033
			c-0.281-0.263-0.608-0.395-0.981-0.395c-0.375,0-0.701,0.14-0.981,0.42c-0.281,0.281-0.42,0.616-0.42,1.007v30.896
			c0,0.409-0.141,0.753-0.42,1.033c-0.281,0.279-0.617,0.42-1.007,0.42c-0.375,0-0.71-0.141-1.007-0.42
			c-0.297-0.28-0.446-0.624-0.446-1.033V13.896c0-0.408-0.136-0.748-0.408-1.02c-0.271-0.271-0.603-0.408-0.994-0.408
			c-0.374,0-0.701,0.14-0.982,0.42c-0.28,0.281-0.42,0.616-0.42,1.007v30.896c0,0.409-0.141,0.753-0.42,1.033
			c-0.281,0.279-0.617,0.42-1.008,0.42c-0.408,0-0.751-0.141-1.032-0.42c-0.28-0.28-0.42-0.624-0.42-1.033V13.896
			c0-1.207,0.42-2.23,1.262-3.072c0.841-0.841,1.848-1.261,3.021-1.261C154.672,9.562,155.625,9.911,156.457,10.607z"/>
		<path fill="#FFFFFF" d="M176.213,45.887h-4.283c-1.19,0-2.201-0.414-3.033-1.249c-0.833-0.832-1.25-1.843-1.25-3.033v-5.276
			c0-1.224,0.416-2.252,1.25-3.085c0.832-0.832,1.843-1.249,3.033-1.249h1.402v-5.328c0-0.356-0.136-0.671-0.408-0.943
			c-0.271-0.272-0.603-0.408-0.994-0.408h-1.045c-0.391,0-0.73-0.153-1.02-0.459c-0.289-0.305-0.433-0.637-0.433-0.993
			c0-0.409,0.136-0.756,0.408-1.046c0.271-0.288,0.62-0.433,1.045-0.433h1.045c0.798,0,1.525,0.191,2.18,0.574
			c0.653,0.382,1.168,0.905,1.542,1.568c0.374,0.663,0.561,1.376,0.561,2.141V45.887z M173.332,42.955v-8.03h-1.402
			c-0.374,0-0.701,0.142-0.982,0.422c-0.28,0.279-0.42,0.606-0.42,0.981v5.276c0,0.375,0.14,0.693,0.42,0.957
			c0.281,0.263,0.608,0.394,0.982,0.394H173.332z"/>
	</g>
	<g>
		<path fill="#231F20" d="M194.84,17.883c0,0.391-0.139,0.725-0.416,1.002c-0.277,0.277-0.611,0.415-1.002,0.415h-1.002
			c-0.342,0-0.644,0.122-0.904,0.367c-0.261,0.244-0.391,0.554-0.391,0.929v7.846h1.662c0.375,0,0.7,0.138,0.977,0.416
			c0.278,0.277,0.416,0.611,0.416,1.001c0,0.342-0.146,0.66-0.439,0.953c-0.293,0.294-0.611,0.44-0.954,0.44h-1.662v18.674
			c0,0.375-0.147,0.7-0.44,0.978c-0.293,0.278-0.611,0.417-0.953,0.417c-0.391,0-0.726-0.133-1.002-0.394
			c-0.278-0.259-0.416-0.593-0.416-1.001V31.253h-1.1c-0.359,0-0.681-0.143-0.966-0.428s-0.428-0.607-0.428-0.966
			c0-0.407,0.135-0.745,0.403-1.014c0.269-0.269,0.599-0.403,0.99-0.403h1.1v-7.846c0-1.125,0.403-2.09,1.21-2.897
			c0.807-0.806,1.772-1.21,2.896-1.21h1.002c0.423,0,0.766,0.131,1.026,0.392C194.709,17.142,194.84,17.476,194.84,17.883z"/>
		<path fill="#231F20" d="M204.348,47.165c0,1.174-0.4,2.159-1.198,2.958c-0.799,0.799-1.768,1.198-2.908,1.198
			c-1.125,0-2.09-0.403-2.896-1.211c-0.807-0.806-1.21-1.787-1.21-2.945V29.493c0-0.358,0.135-0.68,0.403-0.965
			c0.269-0.286,0.599-0.428,0.99-0.428c0.375,0,0.697,0.142,0.966,0.428c0.269,0.285,0.403,0.607,0.403,0.965v17.672
			c0,0.341,0.134,0.655,0.403,0.941s0.583,0.429,0.941,0.429c0.375,0,0.692-0.139,0.953-0.417c0.26-0.276,0.391-0.594,0.391-0.953
			V29.493c0-0.358,0.143-0.68,0.428-0.965c0.285-0.286,0.607-0.428,0.965-0.428c0.375,0,0.698,0.142,0.966,0.428
			c0.269,0.285,0.403,0.607,0.403,0.965V47.165z"/>
		<path fill="#231F20" d="M211.02,49.927c0,0.391-0.135,0.721-0.402,0.991c-0.27,0.267-0.592,0.403-0.966,0.403
			c-0.392,0-0.722-0.137-0.99-0.403c-0.269-0.271-0.403-0.601-0.403-0.991V32.255c0-1.173,0.398-2.159,1.197-2.958
			c0.799-0.798,1.769-1.197,2.909-1.197c0.766,0,1.462,0.183,2.089,0.55c0.627,0.366,1.121,0.876,1.479,1.528
			c0.358,0.651,0.538,1.344,0.538,2.077v17.672c0,0.391-0.135,0.721-0.404,0.991c-0.268,0.267-0.59,0.403-0.965,0.403
			c-0.359,0-0.681-0.137-0.966-0.403c-0.284-0.271-0.427-0.601-0.427-0.991V32.255c0-0.374-0.131-0.692-0.392-0.953
			s-0.579-0.392-0.953-0.392c-0.358,0-0.673,0.135-0.941,0.404c-0.269,0.269-0.403,0.582-0.403,0.94V49.927z"/>
		<path fill="#231F20" d="M225.831,17.541c0-0.391,0.135-0.721,0.403-0.99c0.27-0.269,0.6-0.402,0.989-0.402
			c0.407,0,0.737,0.134,0.99,0.402c0.253,0.27,0.38,0.599,0.38,0.99v33.437h-4.106c-1.141,0-2.11-0.399-2.908-1.198
			c-0.799-0.796-1.198-1.767-1.198-2.909V32.548c0-1.124,0.403-2.089,1.21-2.896c0.807-0.806,1.771-1.209,2.896-1.209h1.344V17.541z
			 M225.831,48.167V31.253h-1.344c-0.359,0-0.673,0.134-0.941,0.403c-0.269,0.269-0.403,0.566-0.403,0.892V46.87
			c0,0.359,0.135,0.665,0.403,0.918s0.582,0.379,0.941,0.379H225.831z"/>
		<path fill="#231F20" d="M240.716,50.978h-4.105c-1.141,0-2.11-0.399-2.909-1.198c-0.798-0.796-1.197-1.767-1.197-2.909v-5.059
			c0-1.173,0.399-2.159,1.197-2.958c0.799-0.796,1.769-1.198,2.909-1.198h1.345v-5.107c0-0.343-0.131-0.644-0.392-0.904
			c-0.26-0.261-0.578-0.391-0.953-0.391h-1.003c-0.375,0-0.7-0.146-0.978-0.44c-0.277-0.293-0.415-0.611-0.415-0.953
			c0-0.391,0.131-0.725,0.392-1.001c0.26-0.277,0.594-0.416,1.001-0.416h1.003c0.766,0,1.462,0.183,2.089,0.55
			c0.628,0.366,1.121,0.867,1.479,1.502c0.357,0.636,0.537,1.32,0.537,2.053V50.978z M237.955,48.167v-7.698h-1.345
			c-0.358,0-0.673,0.134-0.941,0.401c-0.269,0.271-0.404,0.584-0.404,0.941v5.059c0,0.359,0.136,0.665,0.404,0.918
			s0.583,0.379,0.941,0.379H237.955z"/>
		<path fill="#231F20" d="M244.628,32.255c0-1.173,0.398-2.159,1.197-2.958c0.799-0.798,1.768-1.197,2.909-1.197
			c0.765,0,1.462,0.183,2.089,0.55c0.628,0.366,1.12,0.876,1.479,1.528c0.358,0.651,0.537,1.344,0.537,2.077v1.002
			c0,0.376-0.13,0.693-0.39,0.953c-0.262,0.261-0.586,0.392-0.978,0.392c-0.375,0-0.701-0.131-0.978-0.392
			c-0.277-0.26-0.416-0.577-0.416-0.953v-1.002c0-0.374-0.131-0.692-0.392-0.953c-0.26-0.261-0.578-0.392-0.952-0.392
			c-0.359,0-0.674,0.135-0.941,0.404c-0.27,0.269-0.404,0.582-0.404,0.94v14.91c0,0.341,0.135,0.655,0.404,0.941
			c0.268,0.286,0.582,0.429,0.941,0.429c0.374,0,0.692-0.139,0.952-0.417c0.261-0.276,0.392-0.594,0.392-0.953v-1.002
			c0-0.375,0.139-0.693,0.416-0.955c0.276-0.259,0.603-0.39,0.978-0.39c0.392,0,0.716,0.131,0.978,0.39
			c0.26,0.262,0.39,0.58,0.39,0.955v1.002c0,1.174-0.398,2.159-1.196,2.958c-0.799,0.799-1.769,1.198-2.908,1.198
			c-1.125,0-2.091-0.403-2.897-1.211c-0.806-0.806-1.209-1.787-1.209-2.945V32.255z"/>
		<path fill="#231F20" d="M256.188,29.493c0-0.358,0.135-0.68,0.404-0.965c0.269-0.286,0.599-0.428,0.989-0.428
			c0.375,0,0.697,0.142,0.965,0.428c0.27,0.285,0.403,0.607,0.403,0.965v27.4c0,1.155-0.395,2.131-1.185,2.92
			c-0.79,0.792-1.765,1.188-2.921,1.188h-1.051c-0.392,0-0.725-0.139-1.002-0.417c-0.277-0.276-0.416-0.609-0.416-1.003
			c0-0.34,0.146-0.659,0.44-0.952c0.293-0.294,0.618-0.439,0.978-0.439h1.051c0.375,0,0.692-0.131,0.953-0.392
			s0.391-0.563,0.391-0.904V29.493z M257.582,19.936c0.473,0,0.875,0.176,1.209,0.526s0.502,0.745,0.502,1.185
			c0,0.457-0.168,0.864-0.502,1.222c-0.334,0.359-0.736,0.538-1.209,0.538s-0.88-0.179-1.222-0.538
			c-0.343-0.358-0.515-0.766-0.515-1.222c0-0.456,0.172-0.855,0.515-1.197C256.702,20.107,257.109,19.936,257.582,19.936z"/>
		<path fill="#231F20" d="M271.049,50.978h-4.104c-1.142,0-2.11-0.399-2.909-1.198c-0.799-0.796-1.198-1.767-1.198-2.909v-5.059
			c0-1.173,0.399-2.159,1.198-2.958c0.799-0.796,1.768-1.198,2.909-1.198h1.344v-5.107c0-0.343-0.131-0.644-0.392-0.904
			c-0.26-0.261-0.578-0.391-0.952-0.391h-1.004c-0.374,0-0.699-0.146-0.976-0.44c-0.278-0.293-0.417-0.611-0.417-0.953
			c0-0.391,0.131-0.725,0.392-1.001c0.26-0.277,0.595-0.416,1.001-0.416h1.004c0.765,0,1.462,0.183,2.088,0.55
			c0.629,0.366,1.121,0.867,1.479,1.502c0.358,0.636,0.537,1.32,0.537,2.053V50.978z M268.288,48.167v-7.698h-1.344
			c-0.359,0-0.673,0.134-0.941,0.401c-0.27,0.271-0.403,0.584-0.403,0.941v5.059c0,0.359,0.134,0.665,0.403,0.918
			c0.269,0.253,0.582,0.379,0.941,0.379H268.288z"/>
	</g>
</g>
<path fill="#909AA0" d="M10.682,12.021l0.028-4.988c0-0.254,0-0.859,0.014-1.776c-0.18,0.859-0.333,1.466-0.415,1.803l-1.232,4.96
	h-2.23L5.599,7.174C5.46,6.625,5.337,5.991,5.198,5.258c0.027,0.874,0.042,1.494,0.042,1.875v4.889H2.344V1.89h3.892l1.386,5.059
	c0.027,0.127,0.138,0.62,0.332,1.479c0.138-0.732,0.249-1.225,0.319-1.465L9.685,1.89h3.891v10.131H10.682z"/>
<path fill="#909AA0" d="M15.737,3.778V1.636h2.949v2.142H15.737z M15.737,12.021V4.539h2.949v7.482H15.737z"/>
<path fill="#909AA0" d="M25.722,12.021V8.146c0-1.028-0.194-1.494-0.998-1.494c-0.734,0-1.094,0.494-1.094,1.507v3.861h-2.922V4.539
	h2.66v1.099c0.678-0.874,1.509-1.296,2.575-1.296c0.9,0,1.606,0.31,2.091,0.901c0.568,0.691,0.609,1.592,0.609,2.89v3.888H25.722z"
	/>
<path fill="#909AA0" d="M30.602,3.778V1.636h2.949v2.142H30.602z M30.602,12.021V4.539h2.949v7.482H30.602z"/>
<path fill="#909AA0" d="M38.841,12.29c-2.381,0-3.627-0.874-3.753-2.622h2.839c0,0.635,0.318,0.945,0.956,0.945
	c0.623,0,0.956-0.226,0.956-0.621c0-0.535-0.415-0.592-1.233-0.775c-2.271-0.493-3.323-0.901-3.323-2.48
	c0-1.592,1.233-2.466,3.614-2.466c2.202,0,3.407,0.804,3.586,2.354h-2.631c-0.042-0.437-0.401-0.733-0.928-0.733
	c-0.525,0-0.79,0.197-0.79,0.521c0,0.536,0.486,0.536,1.399,0.748c2.188,0.507,3.198,0.915,3.198,2.536
	C42.732,11.402,41.417,12.29,38.841,12.29z"/>
<path fill="#909AA0" d="M47.123,12.149c-1.814,0-2.493-0.521-2.493-2.142V6.258h-1.038V4.539h1.038V2.228h2.909v2.311h1.371v1.719
	h-1.371v2.987c0,0.536,0.276,0.691,0.982,0.691c0.125,0,0.263,0,0.416-0.014v2.156C48.3,12.121,47.691,12.149,47.123,12.149z"/>
<path fill="#909AA0" d="M52.87,8.937c0.027,0.958,0.512,1.494,1.356,1.494c0.569,0,0.957-0.226,1.095-0.62h2.796
	c-0.4,1.619-1.785,2.479-4.057,2.479c-2.548,0-4.113-1.564-4.113-3.946c0-2.508,1.606-4.073,4.224-4.073
	c2.603,0,4.182,1.664,4.182,4.481v0.184H52.87z M54.144,6.047c-0.762,0-1.233,0.508-1.273,1.395h2.604
	C55.417,6.512,54.975,6.047,54.144,6.047z"/>
<path fill="#909AA0" d="M64.239,7.272c-1.176,0-1.717,0.522-1.717,1.677v3.072h-2.936V4.539h2.701v1.368
	c0.388-1.1,1.094-1.564,2.285-1.564h0.264v2.973C64.614,7.287,64.419,7.272,64.239,7.272z"/>
<path fill="#909AA0" d="M69.558,12.29c-2.382,0-3.629-0.874-3.753-2.622h2.839c0,0.635,0.319,0.945,0.956,0.945
	c0.624,0,0.956-0.226,0.956-0.621c0-0.535-0.416-0.592-1.233-0.775c-2.271-0.493-3.323-0.901-3.323-2.48
	c0-1.592,1.233-2.466,3.614-2.466c2.201,0,3.407,0.804,3.587,2.354h-2.631c-0.042-0.437-0.403-0.733-0.929-0.733
	c-0.525,0-0.789,0.197-0.789,0.521c0,0.536,0.485,0.536,1.399,0.748c2.188,0.507,3.199,0.915,3.199,2.536
	C73.448,11.402,72.133,12.29,69.558,12.29z"/>
<path fill="#909AA0" d="M77.881,12.149c-1.814,0-2.492-0.521-2.492-2.142V6.258h-1.04V4.539h1.04V2.228h2.907v2.311h1.373v1.719
	h-1.373v2.987c0,0.536,0.278,0.691,0.984,0.691c0.124,0,0.263,0,0.416-0.014v2.156C79.058,12.121,78.449,12.149,77.881,12.149z"/>
<path fill="#909AA0" d="M90.967,12.021h-2.866l-1.067-4.325l-1.065,4.325h-2.867l-2.423-7.482h2.894l1.094,4.566l1.136-4.566h2.464
	l1.136,4.566l1.094-4.566h2.783L90.967,12.021z"/>
<path fill="#909AA0" d="M97.711,12.29c-2.589,0-4.155-1.537-4.155-4.016c0-2.48,1.565-4.003,4.155-4.003
	c2.59,0,4.155,1.522,4.155,4.003C101.867,10.753,100.301,12.29,97.711,12.29z M97.711,6.343c-0.886,0-1.205,0.606-1.205,1.931
	c0,1.324,0.319,1.944,1.205,1.944c0.886,0,1.219-0.621,1.219-1.944C98.93,6.949,98.597,6.343,97.711,6.343z"/>
<path fill="#B82B25" d="M10.951,29.285L7.66,23.807l-1.065,1.123v4.355H2.313V15.606h4.282v4.528l3.87-4.528h5.011l-4.806,5.042
	l5.422,8.636H10.951z"/>
<path fill="#B82B25" d="M23.728,29.285v-1.483c-0.916,1.18-2.037,1.751-3.477,1.751c-1.215,0-2.169-0.419-2.824-1.218
	c-0.766-0.933-0.803-2.168-0.803-3.919v-5.231h3.945v5.212c0,1.389,0.262,2.036,1.347,2.036c0.991,0,1.476-0.686,1.476-2.055v-5.193
	h3.945v10.101H23.728z"/>
<path fill="#B82B25" d="M29.842,29.285V15.606h3.981v13.678H29.842z"/>
<path fill="#B82B25" d="M40.349,29.457c-2.449,0-3.365-0.704-3.365-2.892v-5.061h-1.403v-2.321h1.403v-3.121h3.926v3.121h1.851
	v2.321H40.91v4.033c0,0.723,0.374,0.932,1.328,0.932c0.168,0,0.354,0,0.561-0.018v2.911C41.938,29.418,41.116,29.457,40.349,29.457z
	"/>
<path fill="#B82B25" d="M51.677,29.285v-1.483c-0.916,1.18-2.037,1.751-3.476,1.751c-1.216,0-2.169-0.419-2.824-1.218
	c-0.767-0.933-0.804-2.168-0.804-3.919v-5.231h3.945v5.212c0,1.389,0.262,2.036,1.346,2.036c0.991,0,1.476-0.686,1.476-2.055v-5.193
	h3.946v10.101H51.677z"/>
<path fill="#B82B25" d="M63.999,22.874c-1.589,0-2.318,0.705-2.318,2.264v4.147h-3.964V19.184h3.646v1.845
	c0.523-1.483,1.477-2.112,3.084-2.112h0.356v4.014C64.504,22.893,64.242,22.874,63.999,22.874z"/>
<path fill="#B82B25" d="M73.823,29.229c-0.505,1.559-0.878,2.683-1.477,3.272c-0.766,0.779-1.738,0.835-3.122,0.835
	c-0.467,0-1.14-0.018-2.001-0.074v-2.988h1.123c0.73,0,1.084-0.227,1.084-0.855c0-0.286-0.075-0.609-0.206-0.99l-3.327-9.245h4
	l1.738,6.125l1.682-6.125h3.721L73.823,29.229z"/>
<path fill="#909AA0" d="M2.262,35.485v-2.142h2.95v2.142H2.262z M2.262,43.729v-7.483h2.95v7.483H2.262z"/>
<path fill="#909AA0" d="M18.7,43.308c-0.845,0.394-2.021,0.422-3.572,0.422h-3.269V33.597h3.864c1.427,0,2.535,0.043,3.449,0.578
	c1.384,0.817,2.077,2.313,2.077,4.495C21.248,40.968,20.376,42.545,18.7,43.308z M15.958,36.163h-0.899v5.002h0.858
	c1.579,0,2.119-0.606,2.119-2.495C18.036,36.838,17.468,36.163,15.958,36.163z"/>
<path fill="#909AA0" d="M22.129,43.729v-2.015l3.351-3.283h-3.061v-2.186h6.509v2.001l-3.268,3.297h3.434v2.186H22.129z"/>
<path fill="#909AA0" d="M30.396,35.485v-2.142h2.95v2.142H30.396z M30.396,43.729v-7.483h2.95v7.483H30.396z"/>
<path fill="#909AA0" d="M37.722,40.645c0.028,0.957,0.512,1.492,1.357,1.492c0.568,0,0.956-0.226,1.094-0.62h2.796
	c-0.401,1.621-1.786,2.48-4.057,2.48c-2.548,0-4.113-1.564-4.113-3.945c0-2.509,1.607-4.072,4.224-4.072
	c2.604,0,4.182,1.663,4.182,4.48v0.185H37.722z M38.997,37.757c-0.762,0-1.232,0.505-1.274,1.393h2.604
	C40.271,38.219,39.828,37.757,38.997,37.757z"/>
<path fill="#909AA0" d="M49.798,43.729v-0.917c-0.638,0.805-1.427,1.185-2.41,1.185c-1.856,0-3.158-1.535-3.158-3.974
	s1.329-4.003,3.13-4.003c0.887,0,1.592,0.339,2.174,1.03v-3.454h2.852v10.133H49.798z M48.358,38.333
	c-0.817,0-1.191,0.563-1.191,1.733c0,1.112,0.458,1.731,1.191,1.731s1.205-0.619,1.205-1.731
	C49.563,38.896,49.175,38.333,48.358,38.333z"/>
<path fill="#909AA0" d="M53.538,43.729v-2.015l3.351-3.283h-3.061v-2.186h6.509v2.001l-3.269,3.297h3.434v2.186H53.538z"/>
<path fill="#909AA0" d="M61.805,35.485v-2.142h2.949v2.142H61.805z M61.805,43.729v-7.483h2.949v7.483H61.805z"/>
<path fill="#909AA0" d="M70.069,43.997c-2.632,0-4.225-1.564-4.225-4.018c0-2.479,1.593-4,4.198-4c2.394,0,3.918,1.239,3.987,3.113
	h-2.923c-0.054-0.705-0.4-1.042-1.08-1.042c-0.858,0-1.232,0.619-1.232,1.929c0,1.327,0.36,1.945,1.205,1.945
	c0.679,0,1.067-0.381,1.136-1.112h2.922C73.933,42.771,72.436,43.997,70.069,43.997z"/>
<path fill="#909AA0" d="M78.309,43.855c-1.814,0-2.493-0.521-2.493-2.141v-3.749h-1.039v-1.72h1.039v-2.31h2.908v2.31h1.371v1.72
	h-1.371v2.987c0,0.536,0.276,0.69,0.984,0.69c0.125,0,0.262,0,0.414-0.014v2.156C79.487,43.829,78.876,43.855,78.309,43.855z"/>
<path fill="#909AA0" d="M91.216,43.729H88.35l-1.067-4.327l-1.065,4.327h-2.867l-2.423-7.483h2.894l1.094,4.566l1.135-4.566h2.467
	l1.134,4.566l1.094-4.566h2.783L91.216,43.729z"/>
<path fill="#909AA0" d="M99.152,43.729l-0.18-0.718c-0.748,0.676-1.593,0.985-2.672,0.985c-1.676,0-2.604-0.872-2.604-2.381
	c0-1.663,1.024-2.127,3.2-2.411c1.413-0.183,2.021-0.112,2.021-0.803c0-0.437-0.346-0.619-1.052-0.619
	c-0.609,0-0.928,0.24-0.983,0.747h-2.853c0.029-1.677,1.357-2.551,3.934-2.551c1.343,0,2.368,0.296,2.867,0.634
	c0.775,0.536,0.941,1.1,0.941,2.101v4.17c0,0.268,0.111,0.494,0.318,0.634v0.212H99.152z M98.889,40.391
	c-1.357,0.521-2.216,0.422-2.216,1.141c0,0.423,0.292,0.677,0.832,0.677c0.983,0,1.398-0.452,1.398-1.437
	C98.902,40.645,98.902,40.516,98.889,40.391z"/>
<path fill="#909AA0" d="M8.674,57.822l-2.798-4.679c-0.152-0.254-0.36-0.746-0.581-1.452c0.083,0.508,0.083,0.973,0.083,1.381v4.75
	H2.344V47.69h3.033l2.798,4.707c0.166,0.267,0.36,0.746,0.581,1.449c-0.068-0.436-0.082-0.901-0.082-1.38V47.69h3.046v10.132H8.674z
	"/>
<path fill="#909AA0" d="M18.52,57.822l-0.18-0.72c-0.748,0.678-1.593,0.987-2.673,0.987c-1.675,0-2.604-0.874-2.604-2.383
	c0-1.661,1.025-2.127,3.2-2.409c1.412-0.183,2.022-0.112,2.022-0.802c0-0.438-0.346-0.62-1.054-0.62
	c-0.608,0-0.926,0.239-0.981,0.745h-2.854c0.028-1.677,1.358-2.55,3.933-2.55c1.344,0,2.369,0.295,2.866,0.635
	c0.776,0.535,0.942,1.098,0.942,2.098v4.173c0,0.269,0.11,0.493,0.318,0.634v0.212H18.52z M18.257,54.481
	c-1.358,0.521-2.217,0.423-2.217,1.142c0,0.424,0.291,0.676,0.831,0.676c0.983,0,1.399-0.45,1.399-1.436
	C18.271,54.735,18.271,54.609,18.257,54.481z"/>
<path fill="#909AA0" d="M27.401,53.072c-1.177,0-1.718,0.522-1.718,1.679v3.071h-2.936v-7.483h2.701v1.365
	c0.388-1.097,1.095-1.563,2.285-1.563h0.263v2.975C27.774,53.087,27.58,53.072,27.401,53.072z"/>
<path fill="#909AA0" d="M32.774,58.09c-2.59,0-4.155-1.535-4.155-4.017c0-2.48,1.565-4.002,4.155-4.002
	c2.589,0,4.153,1.521,4.153,4.002C36.927,56.555,35.363,58.09,32.774,58.09z M32.774,52.143c-0.887,0-1.206,0.606-1.206,1.931
	c0,1.325,0.319,1.945,1.206,1.945c0.886,0,1.218-0.62,1.218-1.945C33.992,52.749,33.66,52.143,32.774,52.143z"/>
<path fill="#909AA0" d="M43.271,57.822v-0.916c-0.638,0.803-1.427,1.184-2.41,1.184c-1.855,0-3.158-1.535-3.158-3.974
	s1.33-4.002,3.13-4.002c0.887,0,1.592,0.338,2.174,1.026v-3.45h2.852v10.132H43.271z M41.83,52.425
	c-0.816,0-1.191,0.563-1.191,1.733c0,1.113,0.458,1.733,1.191,1.733c0.734,0,1.205-0.62,1.205-1.733
	C43.035,52.988,42.647,52.425,41.83,52.425z"/>
<path fill="#909AA0" d="M51.149,58.09c-2.589,0-4.153-1.535-4.153-4.017c0-2.48,1.564-4.002,4.153-4.002
	c2.591,0,4.156,1.521,4.156,4.002C55.305,56.555,53.74,58.09,51.149,58.09z M51.149,52.143c-0.885,0-1.204,0.606-1.204,1.931
	c0,1.325,0.319,1.945,1.204,1.945c0.888,0,1.22-0.62,1.22-1.945C52.369,52.749,52.037,52.143,51.149,52.143z"/>
<path fill="#909AA0" d="M65.762,57.822h-2.867l-1.067-4.327l-1.065,4.327h-2.867l-2.423-7.483h2.894l1.094,4.565l1.135-4.565h2.466
	l1.134,4.565l1.094-4.565h2.784L65.762,57.822z"/>
<path fill="#909AA0" d="M71.273,54.735c0.028,0.958,0.513,1.493,1.358,1.493c0.567,0,0.956-0.224,1.094-0.618h2.797
	c-0.401,1.62-1.786,2.479-4.057,2.479c-2.548,0-4.113-1.563-4.113-3.946c0-2.509,1.607-4.072,4.223-4.072
	c2.604,0,4.183,1.663,4.183,4.479v0.185H71.273z M72.548,51.847c-0.761,0-1.233,0.506-1.274,1.395h2.604
	C73.822,52.313,73.379,51.847,72.548,51.847z"/>
<path fill="#909AA0" d="M81.646,60.838c-2.105,0-3.351-0.832-3.545-2.213h2.894c0.069,0.365,0.333,0.506,0.859,0.506
	c0.97,0,1.095-0.422,1.095-1.563v-0.407c-0.499,0.492-1.177,0.73-2.05,0.73c-1.98,0-3.282-1.495-3.282-3.791
	c0-2.466,1.273-3.96,3.143-3.96c1.053,0,1.829,0.366,2.411,1.172v-0.974h2.59v6.906C85.76,59.851,84.624,60.838,81.646,60.838z
	 M81.702,52.34c-0.79,0-1.178,0.563-1.178,1.69c0,1.184,0.374,1.776,1.178,1.776c0.858,0,1.232-0.577,1.232-1.761
	C82.935,52.945,82.477,52.34,81.702,52.34z"/>
<path fill="#909AA0" d="M90.925,58.09c-2.59,0-4.154-1.535-4.154-4.017c0-2.48,1.564-4.002,4.154-4.002s4.154,1.521,4.154,4.002
	C95.079,56.555,93.515,58.09,90.925,58.09z M90.925,52.143c-0.886,0-1.205,0.606-1.205,1.931c0,1.325,0.318,1.945,1.205,1.945
	s1.218-0.62,1.218-1.945C92.143,52.749,91.811,52.143,90.925,52.143z"/>
<path fill-rule="evenodd" clip-rule="evenodd" fill="#B82B25" d="M97.215,53.336h4.474v4.475h-4.474V53.336z M95.476,57.822"/>
<g>
	<g>
		<circle fill="#FFDD15" cx="318.949" cy="19.886" r="14.498"/>
		<circle fill="#EB008B" cx="318.949" cy="19.886" r="14.498"/>
	</g>
	<circle fill="#EB008B" cx="308.745" cy="9.47" r="0.765"/>
	<circle fill="#EB008B" cx="329.28" cy="9.47" r="0.765"/>
	<circle fill="#EB008B" cx="304.45" cy="19.716" r="0.765"/>
	<circle fill="#EB008B" cx="308.681" cy="30.005" r="0.765"/>
	<circle fill="#EB008B" cx="329.215" cy="30.005" r="0.765"/>
	<circle fill="#EB008B" cx="318.949" cy="34.224" r="0.765"/>
	<circle fill="#EB008B" cx="318.949" cy="5.218" r="0.765"/>
	<circle fill="#EB008B" cx="333.446" cy="19.716" r="0.765"/>
</g>
<g>
	<path fill="#231F20" d="M337.636,4.48c0-0.983,0.334-1.808,1.003-2.477C339.307,1.334,340.119,1,341.074,1
		c0.643,0,1.226,0.153,1.751,0.46c0.526,0.307,0.938,0.733,1.239,1.28c0.301,0.545,0.45,1.126,0.45,1.74V5.32
		c0,0.314-0.108,0.581-0.328,0.799c-0.218,0.218-0.491,0.327-0.817,0.327c-0.315,0-0.588-0.109-0.82-0.327
		c-0.232-0.219-0.348-0.485-0.348-0.799V4.48c0-0.314-0.109-0.58-0.327-0.798c-0.22-0.218-0.485-0.328-0.8-0.328
		c-0.299,0-0.563,0.112-0.788,0.337c-0.225,0.226-0.337,0.489-0.337,0.789v12.49c0,0.287,0.112,0.549,0.337,0.788
		c0.226,0.239,0.489,0.358,0.788,0.358c0.314,0,0.58-0.115,0.8-0.348c0.218-0.231,0.327-0.498,0.327-0.798v-0.84
		c0-0.313,0.115-0.58,0.348-0.798c0.232-0.218,0.505-0.328,0.82-0.328c0.326,0,0.6,0.11,0.817,0.328
		c0.22,0.219,0.328,0.485,0.328,0.798v0.84c0,0.982-0.334,1.809-1.002,2.478c-0.669,0.668-1.482,1.002-2.438,1.002
		c-0.941,0-1.75-0.337-2.426-1.013c-0.676-0.676-1.013-1.498-1.013-2.467V4.48z"/>
	<path fill="#231F20" d="M347.32,4.48c0-0.983,0.333-1.808,1.002-2.477C348.992,1.334,349.805,1,350.76,1
		c0.642,0,1.226,0.153,1.751,0.46c0.524,0.307,0.938,0.733,1.238,1.28c0.301,0.545,0.45,1.126,0.45,1.74v12.49
		c0,0.982-0.335,1.809-1.003,2.478c-0.668,0.668-1.48,1.002-2.437,1.002c-0.941,0-1.75-0.337-2.427-1.013
		c-0.675-0.676-1.013-1.498-1.013-2.467V4.48z M351.886,4.48c0-0.314-0.108-0.58-0.327-0.798c-0.218-0.218-0.484-0.328-0.799-0.328
		c-0.3,0-0.563,0.112-0.788,0.337c-0.226,0.226-0.338,0.489-0.338,0.789v12.49c0,0.287,0.112,0.549,0.338,0.788
		c0.226,0.239,0.488,0.358,0.788,0.358c0.314,0,0.581-0.115,0.799-0.348c0.219-0.231,0.327-0.498,0.327-0.798V4.48z"/>
</g>
<path fill="#231F20" d="M338.524,23.716c0-0.331,0.115-0.611,0.342-0.839c0.228-0.228,0.509-0.34,0.839-0.34
	c0.346,0,0.624,0.113,0.839,0.34c0.214,0.228,0.321,0.508,0.321,0.839v28.321h-3.478c-0.967,0-1.789-0.338-2.465-1.015
	c-0.676-0.676-1.015-1.497-1.015-2.462V36.428c0-0.953,0.342-1.771,1.025-2.453c0.684-0.684,1.5-1.024,2.454-1.024h1.137V23.716z
	 M338.524,49.656V35.33h-1.137c-0.306,0-0.57,0.114-0.798,0.343c-0.229,0.228-0.342,0.479-0.342,0.755v12.133
	c0,0.303,0.113,0.562,0.342,0.774c0.228,0.214,0.492,0.321,0.798,0.321H338.524z"/>
<path fill="#231F20" d="M352.499,52.037h-3.477c-0.967,0-1.788-0.338-2.463-1.015c-0.677-0.676-1.016-1.497-1.016-2.462v-4.286
	c0-0.994,0.339-1.829,1.016-2.506c0.675-0.676,1.496-1.014,2.463-1.014h1.14v-4.327c0-0.29-0.111-0.545-0.331-0.766
	c-0.222-0.221-0.491-0.332-0.809-0.332h-0.85c-0.316,0-0.593-0.124-0.827-0.373c-0.236-0.248-0.354-0.517-0.354-0.807
	c0-0.331,0.112-0.614,0.333-0.849c0.22-0.234,0.504-0.352,0.848-0.352h0.85c0.648,0,1.238,0.155,1.771,0.466
	c0.531,0.31,0.948,0.734,1.253,1.272c0.303,0.538,0.453,1.118,0.453,1.739V52.037z M350.162,49.656v-6.521h-1.14
	c-0.304,0-0.569,0.113-0.797,0.341s-0.343,0.494-0.343,0.798v4.286c0,0.303,0.115,0.562,0.343,0.774
	c0.228,0.214,0.493,0.321,0.797,0.321H350.162z"/>
<path fill="#231F20" d="M357.677,23.716c0-0.331,0.108-0.611,0.321-0.839c0.215-0.228,0.502-0.34,0.859-0.34
	c0.346,0,0.624,0.113,0.839,0.34c0.214,0.228,0.321,0.508,0.321,0.839v27.431c0,0.33-0.113,0.61-0.342,0.838
	c-0.229,0.229-0.5,0.342-0.818,0.342c-0.33,0-0.609-0.113-0.838-0.342c-0.228-0.228-0.343-0.508-0.343-0.838V23.716z"/>
<path fill="#231F20" d="M368.428,44.378v4.434c0,0.288,0.114,0.553,0.342,0.794c0.229,0.241,0.494,0.36,0.798,0.36
	c0.315,0,0.585-0.115,0.806-0.348c0.221-0.233,0.333-0.501,0.333-0.802v-0.328c0-0.343,0.116-0.623,0.351-0.844
	c0.234-0.217,0.512-0.328,0.828-0.328c0.332,0,0.606,0.111,0.829,0.33c0.221,0.221,0.33,0.502,0.33,0.846v0.331
	c0,0.989-0.337,1.82-1.014,2.493c-0.677,0.674-1.499,1.011-2.463,1.011c-0.953,0-1.771-0.342-2.453-1.025
	c-0.684-0.683-1.025-1.515-1.025-2.494V36.18c0-0.994,0.338-1.829,1.014-2.505c0.677-0.677,1.497-1.015,2.465-1.015
	c0.647,0,1.238,0.155,1.77,0.466c0.531,0.312,0.948,0.744,1.253,1.297c0.302,0.553,0.454,1.14,0.454,1.763v8.192H368.428z
	 M370.706,41.995V36.18c0-0.318-0.112-0.588-0.333-0.808c-0.221-0.221-0.49-0.331-0.806-0.331c-0.304,0-0.569,0.114-0.798,0.341
	c-0.228,0.229-0.342,0.494-0.342,0.798v5.815H370.706z"/>
<path fill="#231F20" d="M380.485,33.841c0-0.305,0.113-0.577,0.341-0.819c0.229-0.24,0.508-0.361,0.839-0.361
	c0.317,0,0.591,0.121,0.817,0.361c0.229,0.242,0.343,0.515,0.343,0.819v23.205c0,0.981-0.336,1.807-1.005,2.477
	c-0.668,0.669-1.493,1.003-2.474,1.003h-0.89c-0.331,0-0.615-0.117-0.85-0.353s-0.352-0.518-0.352-0.848
	c0-0.291,0.124-0.56,0.373-0.809c0.248-0.247,0.524-0.373,0.828-0.373h0.89c0.317,0,0.586-0.109,0.808-0.33
	c0.22-0.222,0.331-0.477,0.331-0.768V33.841z"/>
<path fill="#231F20" d="M381.665,25.746c0.399,0,0.742,0.148,1.025,0.445c0.283,0.297,0.425,0.63,0.425,1.004
	c0,0.387-0.142,0.732-0.425,1.035c-0.283,0.304-0.626,0.455-1.025,0.455s-0.745-0.151-1.036-0.455
	c-0.288-0.303-0.433-0.648-0.433-1.035c0-0.386,0.145-0.725,0.433-1.014C380.92,25.891,381.266,25.746,381.665,25.746z"/>
<g>
	<path fill="#231F20" d="M366.275,21.612c0,0.668-0.228,1.231-0.683,1.686c-0.454,0.454-1.008,0.681-1.657,0.681
		c-0.641,0-1.191-0.229-1.65-0.688c-0.46-0.46-0.689-1.02-0.689-1.679V4.728c0-0.224,0.072-0.412,0.215-0.565
		c0.145-0.153,0.337-0.229,0.579-0.229c0.232,0,0.42,0.076,0.564,0.229c0.144,0.153,0.216,0.341,0.216,0.565v6.212h0.766
		c0.437,0,0.833,0.105,1.191,0.313c0.358,0.209,0.639,0.495,0.843,0.857c0.204,0.362,0.306,0.751,0.306,1.17V21.612z
		 M364.701,21.612v-8.331c0-0.195-0.074-0.367-0.222-0.517c-0.149-0.148-0.33-0.222-0.544-0.222h-0.766v9.069
		c0,0.195,0.075,0.374,0.229,0.536c0.154,0.163,0.332,0.244,0.537,0.244c0.214,0,0.395-0.08,0.544-0.236
		C364.627,21.998,364.701,21.817,364.701,21.612z"/>
	<path fill="#231F20" d="M371.089,23.784h-0.767c-0.648,0-1.202-0.227-1.656-0.682c-0.455-0.455-0.684-1.008-0.684-1.659V11.54
		c0-0.204,0.077-0.387,0.23-0.551c0.153-0.162,0.342-0.243,0.564-0.243c0.213,0,0.396,0.081,0.55,0.243
		c0.153,0.164,0.229,0.347,0.229,0.551v9.904c0,0.205,0.077,0.379,0.231,0.523c0.152,0.144,0.331,0.215,0.534,0.215h0.767V11.54
		c0-0.204,0.082-0.387,0.245-0.551c0.161-0.162,0.345-0.243,0.549-0.243c0.214,0,0.397,0.081,0.552,0.243
		c0.153,0.164,0.229,0.347,0.229,0.551v15.616c0,0.66-0.226,1.214-0.675,1.665c-0.45,0.45-1.005,0.675-1.666,0.675h-0.598
		c-0.242,0-0.438-0.073-0.585-0.223c-0.149-0.148-0.224-0.342-0.224-0.584c0-0.214,0.079-0.4,0.237-0.558
		c0.158-0.157,0.349-0.236,0.571-0.236h0.598c0.215,0,0.396-0.075,0.544-0.223c0.149-0.148,0.223-0.32,0.223-0.516V23.784z"/>
	<path fill="#231F20" d="M375.274,4.728c0-0.224,0.072-0.412,0.217-0.565c0.144-0.153,0.336-0.229,0.577-0.229
		c0.232,0,0.421,0.076,0.564,0.229c0.145,0.153,0.216,0.341,0.216,0.565v18.458c0,0.223-0.077,0.411-0.229,0.564
		c-0.154,0.153-0.337,0.229-0.551,0.229c-0.222,0-0.41-0.076-0.563-0.229s-0.23-0.341-0.23-0.564V4.728z"/>
	<path fill="#231F20" d="M379.255,13.114c0-0.668,0.228-1.23,0.683-1.686s1.008-0.682,1.658-0.682c0.436,0,0.833,0.104,1.191,0.313
		c0.356,0.208,0.638,0.499,0.842,0.87c0.203,0.372,0.306,0.767,0.306,1.184v8.498c0,0.668-0.227,1.231-0.682,1.686
		c-0.455,0.454-1.008,0.681-1.657,0.681c-0.642,0-1.192-0.229-1.651-0.688c-0.459-0.46-0.689-1.02-0.689-1.679V13.114z
		 M382.36,13.114c0-0.213-0.074-0.394-0.222-0.543c-0.148-0.148-0.33-0.223-0.543-0.223c-0.205,0-0.384,0.077-0.536,0.229
		c-0.154,0.153-0.23,0.332-0.23,0.536v8.498c0,0.195,0.076,0.374,0.23,0.536c0.152,0.163,0.331,0.244,0.536,0.244
		c0.213,0,0.395-0.08,0.543-0.236c0.147-0.158,0.222-0.338,0.222-0.543V13.114z"/>
	<g>
		<path fill="#231F20" d="M377.229,11.056c0.131-0.18,0.299-0.299,0.507-0.329c0.128-0.019,0.231-0.008,0.403,0.118
			c0.188,0.137,0.215,0.228,0.236,0.349c0.036,0.207-0.026,0.402-0.157,0.583l-3.444,4.735c-0.132,0.181-0.305,0.294-0.519,0.322
			c-0.118,0.014-0.225,0.021-0.397-0.106c-0.244-0.177-0.229-0.257-0.242-0.385c-0.025-0.227,0.037-0.372,0.167-0.552
			L377.229,11.056z"/>
	</g>
</g>
<path fill="#231F20" d="M319.036,18.63c0.413,0,0.767,0.153,1.06,0.459c0.292,0.308,0.438,0.653,0.438,1.039
	c0,0.4-0.146,0.756-0.438,1.07c-0.293,0.314-0.646,0.471-1.06,0.471c-0.414,0-0.771-0.157-1.07-0.471
	c-0.3-0.313-0.45-0.67-0.45-1.07c0-0.399,0.15-0.75,0.45-1.049C318.266,18.78,318.622,18.63,319.036,18.63z M317.815,26.999
	c0-0.314,0.118-0.596,0.354-0.845c0.233-0.25,0.523-0.375,0.866-0.375c0.328,0,0.609,0.125,0.846,0.375
	c0.235,0.249,0.353,0.531,0.353,0.845v32.247c0,0.343-0.117,0.633-0.353,0.868c-0.236,0.234-0.518,0.353-0.846,0.353
	c-0.343,0-0.633-0.118-0.866-0.353c-0.236-0.235-0.354-0.525-0.354-0.868V26.999z"/>
<path fill="#231F20" d="M389.545,48.252c0.399,0,0.741,0.149,1.025,0.446c0.283,0.296,0.424,0.631,0.424,1.003
	c0,0.388-0.141,0.731-0.424,1.036c-0.284,0.304-0.626,0.455-1.025,0.455c-0.4,0-0.744-0.151-1.036-0.455
	c-0.288-0.305-0.433-0.648-0.433-1.036c0-0.385,0.145-0.724,0.433-1.014C388.801,48.396,389.145,48.252,389.545,48.252z"/>
<path fill="#231F20" d="M399.963,48.252c0.4,0,0.741,0.149,1.025,0.446c0.282,0.296,0.424,0.631,0.424,1.003
	c0,0.388-0.142,0.731-0.424,1.036c-0.284,0.304-0.625,0.455-1.025,0.455c-0.399,0-0.745-0.151-1.034-0.455
	c-0.291-0.305-0.435-0.648-0.435-1.036c0-0.385,0.144-0.724,0.435-1.014C399.218,48.396,399.563,48.252,399.963,48.252z"/>
<path fill="#231F20" d="M411.144,48.252c0.398,0,0.741,0.149,1.023,0.446c0.284,0.296,0.426,0.631,0.426,1.003
	c0,0.388-0.142,0.731-0.426,1.036c-0.282,0.304-0.625,0.455-1.023,0.455c-0.401,0-0.746-0.151-1.036-0.455
	c-0.288-0.305-0.435-0.648-0.435-1.036c0-0.385,0.146-0.724,0.435-1.014C410.397,48.396,410.742,48.252,411.144,48.252z"/>
</svg>
