<?xml version="1.0" encoding="utf-8"?>
<!-- Generator: Adobe Illustrator 15.0.2, SVG Export Plug-In . SVG Version: 6.00 Build 0)  -->
<!DOCTYPE svg PUBLIC "-//W3C//DTD SVG 1.1//EN" "http://www.w3.org/Graphics/SVG/1.1/DTD/svg11.dtd">
<svg version="1.1" id="Warstwa_1" xmlns="http://www.w3.org/2000/svg" xmlns:xlink="http://www.w3.org/1999/xlink" x="0px" y="0px"
	 width="414px" height="62px" viewBox="0 0 414 62" enable-background="new 0 0 414 62" xml:space="preserve">
<g>
	<defs>
		<rect id="SVGID_1_" width="413.837" height="61"/>
	</defs>
	<clipPath id="SVGID_2_">
		<use xlink:href="#SVGID_1_"  overflow="visible"/>
	</clipPath>
	<g clip-path="url(#SVGID_2_)">
		<defs>
			<rect id="SVGID_3_" width="413.837" height="61"/>
		</defs>
		<clipPath id="SVGID_4_">
			<use xlink:href="#SVGID_3_"  overflow="visible"/>
		</clipPath>
		<g opacity="0.55" clip-path="url(#SVGID_4_)">
			<g>
				<defs>
					<rect id="SVGID_5_" x="120.079" y="-1" width="167.386" height="59.822"/>
				</defs>
				<clipPath id="SVGID_6_">
					<use xlink:href="#SVGID_5_"  overflow="visible"/>
				</clipPath>
				<path clip-path="url(#SVGID_6_)" fill="#999B9E" d="M188.851,26.862c0,14.152-11.293,25.627-25.227,25.627
					c-13.935,0-25.232-11.475-25.232-25.627c0-14.154,11.297-25.628,25.232-25.628C177.558,1.234,188.851,12.708,188.851,26.862"/>
				<path clip-path="url(#SVGID_6_)" fill="#999B9E" d="M147.215,8.867c0,0.748-0.595,1.355-1.333,1.355
					c-0.735,0-1.331-0.607-1.331-1.355s0.596-1.353,1.331-1.353C146.621,7.514,147.215,8.119,147.215,8.867"/>
				<path clip-path="url(#SVGID_6_)" fill="#999B9E" d="M182.949,8.867c0,0.748-0.596,1.355-1.332,1.355
					c-0.732,0-1.33-0.607-1.33-1.355s0.598-1.353,1.33-1.353C182.353,7.514,182.949,8.119,182.949,8.867"/>
				<path clip-path="url(#SVGID_6_)" fill="#999B9E" d="M139.743,26.981c0,0.748-0.595,1.353-1.333,1.353
					c-0.735,0-1.331-0.605-1.331-1.353c0-0.747,0.596-1.355,1.331-1.355C139.148,25.626,139.743,26.234,139.743,26.981"/>
				<path clip-path="url(#SVGID_6_)" fill="#999B9E" d="M147.104,45.167c0,0.748-0.596,1.353-1.332,1.353
					c-0.734,0-1.332-0.604-1.332-1.353c0-0.747,0.598-1.352,1.332-1.352C146.508,43.815,147.104,44.42,147.104,45.167"/>
				<path clip-path="url(#SVGID_6_)" fill="#999B9E" d="M182.839,45.167c0,0.748-0.598,1.353-1.332,1.353
					c-0.734,0-1.33-0.604-1.33-1.353c0-0.747,0.596-1.352,1.33-1.352C182.241,43.815,182.839,44.42,182.839,45.167"/>
				<path clip-path="url(#SVGID_6_)" fill="#999B9E" d="M164.971,52.625c0,0.748-0.596,1.354-1.332,1.354
					c-0.734,0-1.33-0.605-1.33-1.354s0.596-1.353,1.33-1.353C164.375,51.272,164.971,51.877,164.971,52.625"/>
				<path clip-path="url(#SVGID_6_)" fill="#999B9E" d="M164.971,1.353c0,0.747-0.596,1.352-1.332,1.352
					c-0.734,0-1.33-0.605-1.33-1.352c0-0.748,0.596-1.353,1.33-1.353C164.375,0,164.971,0.605,164.971,1.353"/>
				<path clip-path="url(#SVGID_6_)" fill="#FFFFFF" d="M159.99,8.474c0.786-0.682,1.696-1.024,2.728-1.024
					c1.147,0,2.121,0.408,2.924,1.224c0.803,0.815,1.205,1.822,1.205,3.02V41.95c0,0.416-0.14,0.758-0.418,1.024
					c-0.279,0.266-0.606,0.399-0.983,0.399c-0.344,0-0.66-0.138-0.946-0.412c-0.287-0.275-0.43-0.612-0.43-1.012V11.693
					c0-0.415-0.136-0.753-0.406-1.011s-0.586-0.387-0.946-0.387c-0.361,0-0.676,0.138-0.946,0.412
					c-0.271,0.275-0.406,0.604-0.406,0.986V41.95c0,0.399-0.135,0.736-0.405,1.012c-0.271,0.274-0.594,0.412-0.971,0.412
					c-0.361,0-0.684-0.138-0.971-0.412c-0.287-0.275-0.43-0.612-0.43-1.012V11.693c0-0.399-0.131-0.732-0.393-0.998
					c-0.262-0.266-0.582-0.4-0.958-0.4c-0.361,0-0.676,0.138-0.947,0.412c-0.27,0.275-0.405,0.604-0.405,0.986V41.95
					c0,0.399-0.135,0.736-0.406,1.012c-0.27,0.274-0.594,0.412-0.97,0.412c-0.394,0-0.725-0.138-0.996-0.412
					c-0.27-0.275-0.405-0.612-0.405-1.012V11.693c0-1.181,0.405-2.184,1.216-3.008c0.811-0.824,1.782-1.236,2.913-1.236
					C158.27,7.45,159.187,7.792,159.99,8.474"/>
				<path clip-path="url(#SVGID_6_)" fill="#FFFFFF" d="M176.259,40.153v-7.864h-1.352c-0.36,0-0.676,0.138-0.946,0.412
					c-0.27,0.274-0.405,0.595-0.405,0.961v5.168c0,0.366,0.135,0.678,0.405,0.936c0.27,0.259,0.586,0.388,0.946,0.388H176.259z
					 M179.036,43.024h-4.129c-1.147,0-2.122-0.408-2.924-1.224c-0.803-0.815-1.204-1.806-1.204-2.971v-5.168
					c0-1.198,0.401-2.205,1.204-3.021c0.802-0.815,1.777-1.223,2.924-1.223h1.352v-5.218c0-0.35-0.131-0.657-0.393-0.924
					c-0.263-0.266-0.582-0.399-0.959-0.399H173.9c-0.377,0-0.705-0.15-0.983-0.449c-0.279-0.3-0.418-0.625-0.418-0.974
					c0-0.4,0.131-0.74,0.393-1.024c0.262-0.282,0.598-0.424,1.008-0.424h1.007c0.77,0,1.471,0.187,2.102,0.562
					c0.63,0.374,1.126,0.886,1.486,1.535c0.361,0.649,0.541,1.348,0.541,2.097V43.024z"/>
				<path clip-path="url(#SVGID_6_)" d="M197.087,15.8c0,0.383-0.134,0.71-0.401,0.981c-0.267,0.272-0.589,0.407-0.966,0.407h-0.966
					c-0.33,0-0.621,0.12-0.872,0.359c-0.251,0.24-0.377,0.543-0.377,0.91v7.683h1.603c0.361,0,0.675,0.136,0.942,0.407
					c0.267,0.272,0.401,0.599,0.401,0.982c0,0.335-0.142,0.646-0.424,0.933c-0.283,0.288-0.589,0.431-0.919,0.431h-1.603v18.287
					c0,0.368-0.141,0.687-0.424,0.958c-0.283,0.271-0.589,0.406-0.919,0.406c-0.377,0-0.699-0.128-0.966-0.383s-0.4-0.582-0.4-0.981
					V28.894h-1.061c-0.346,0-0.656-0.139-0.931-0.419c-0.275-0.279-0.412-0.594-0.412-0.945c0-0.399,0.13-0.73,0.389-0.994
					c0.259-0.263,0.577-0.395,0.954-0.395h1.061v-7.683c0-1.101,0.388-2.047,1.166-2.837c0.778-0.789,1.708-1.184,2.792-1.184h0.966
					c0.409,0,0.738,0.128,0.99,0.383C196.961,15.074,197.087,15.401,197.087,15.8"/>
				<path clip-path="url(#SVGID_6_)" d="M206.16,44.274c0,1.148-0.385,2.115-1.155,2.896c-0.77,0.782-1.704,1.173-2.804,1.173
					c-1.084,0-2.014-0.395-2.792-1.185c-0.778-0.79-1.166-1.751-1.166-2.884V26.968c0-0.351,0.129-0.666,0.388-0.945
					c0.26-0.279,0.578-0.419,0.955-0.419c0.361,0,0.671,0.14,0.931,0.419c0.259,0.279,0.388,0.594,0.388,0.945v17.306
					c0,0.335,0.13,0.643,0.389,0.921c0.259,0.28,0.562,0.419,0.907,0.419c0.361,0,0.668-0.135,0.919-0.406s0.377-0.583,0.377-0.934
					V26.968c0-0.351,0.138-0.666,0.413-0.945c0.274-0.279,0.585-0.419,0.93-0.419c0.362,0,0.672,0.14,0.931,0.419
					c0.259,0.279,0.389,0.594,0.389,0.945V44.274z"/>
				<path clip-path="url(#SVGID_6_)" d="M212.593,46.979c0,0.384-0.131,0.706-0.39,0.97s-0.568,0.395-0.931,0.395
					c-0.377,0-0.695-0.131-0.954-0.395s-0.389-0.586-0.389-0.97V29.673c0-1.149,0.385-2.114,1.154-2.896
					c0.771-0.782,1.704-1.173,2.805-1.173c0.737,0,1.409,0.18,2.015,0.538c0.604,0.36,1.08,0.858,1.425,1.497
					c0.346,0.638,0.52,1.316,0.52,2.034v17.306c0,0.384-0.13,0.706-0.39,0.97c-0.259,0.264-0.569,0.395-0.931,0.395
					c-0.346,0-0.656-0.131-0.93-0.395c-0.276-0.264-0.413-0.586-0.413-0.97V29.673c0-0.367-0.126-0.678-0.377-0.933
					c-0.251-0.256-0.559-0.383-0.919-0.383c-0.347,0-0.648,0.131-0.907,0.395c-0.259,0.263-0.389,0.57-0.389,0.921V46.979z"/>
				<path clip-path="url(#SVGID_6_)" d="M226.872,45.256V28.691h-1.296c-0.346,0-0.647,0.132-0.907,0.395
					c-0.259,0.263-0.389,0.555-0.389,0.874v14.027c0,0.352,0.13,0.65,0.389,0.897c0.26,0.248,0.562,0.371,0.907,0.371H226.872z
					 M226.872,15.263c0-0.383,0.13-0.706,0.39-0.969c0.259-0.264,0.576-0.395,0.953-0.395c0.393,0,0.712,0.131,0.954,0.395
					c0.244,0.263,0.366,0.586,0.366,0.969v32.746h-3.959c-1.1,0-2.035-0.392-2.804-1.174c-0.771-0.781-1.155-1.73-1.155-2.848V29.96
					c0-1.101,0.389-2.047,1.166-2.837c0.778-0.79,1.709-1.184,2.793-1.184h1.296V15.263z"/>
				<path clip-path="url(#SVGID_6_)" d="M238.56,45.255v-7.54h-1.296c-0.347,0-0.648,0.133-0.907,0.396
					c-0.259,0.264-0.389,0.571-0.389,0.922v4.955c0,0.351,0.13,0.649,0.389,0.896c0.259,0.248,0.561,0.371,0.907,0.371H238.56z
					 M241.223,48.008h-3.959c-1.101,0-2.034-0.391-2.805-1.173c-0.77-0.782-1.153-1.73-1.153-2.848v-4.955
					c0-1.149,0.384-2.114,1.153-2.896c0.771-0.781,1.704-1.173,2.805-1.173h1.296V29.96c0-0.335-0.126-0.63-0.377-0.886
					c-0.251-0.255-0.559-0.383-0.919-0.383h-0.966c-0.361,0-0.676-0.143-0.942-0.43c-0.269-0.288-0.401-0.599-0.401-0.934
					c0-0.383,0.126-0.71,0.377-0.981s0.573-0.407,0.967-0.407h0.966c0.737,0,1.41,0.179,2.015,0.538
					c0.605,0.359,1.08,0.85,1.426,1.472c0.346,0.623,0.519,1.293,0.519,2.011V48.008z"/>
				<path clip-path="url(#SVGID_6_)" d="M244.992,29.673c0-1.149,0.386-2.114,1.154-2.896c0.771-0.782,1.705-1.173,2.805-1.173
					c0.738,0,1.409,0.179,2.015,0.538c0.604,0.359,1.08,0.858,1.426,1.496c0.345,0.639,0.518,1.317,0.518,2.035v0.981
					c0,0.368-0.126,0.679-0.377,0.934s-0.564,0.383-0.941,0.383c-0.362,0-0.676-0.128-0.943-0.383
					c-0.267-0.255-0.399-0.565-0.399-0.934v-0.981c0-0.367-0.126-0.678-0.378-0.934c-0.252-0.255-0.558-0.383-0.919-0.383
					c-0.346,0-0.647,0.132-0.907,0.396c-0.26,0.263-0.389,0.57-0.389,0.921v14.601c0,0.335,0.129,0.643,0.389,0.922
					s0.562,0.419,0.907,0.419c0.361,0,0.667-0.136,0.919-0.407c0.252-0.271,0.378-0.583,0.378-0.934v-0.981
					c0-0.367,0.133-0.678,0.399-0.934c0.268-0.255,0.581-0.383,0.943-0.383c0.377,0,0.69,0.128,0.941,0.383
					c0.251,0.256,0.377,0.566,0.377,0.934v0.981c0,1.148-0.385,2.114-1.153,2.896c-0.771,0.783-1.705,1.173-2.805,1.173
					c-1.084,0-2.015-0.395-2.793-1.185c-0.776-0.789-1.166-1.751-1.166-2.884V29.673z"/>
				<path clip-path="url(#SVGID_6_)" d="M257.481,17.609c0.455,0,0.844,0.172,1.167,0.515c0.32,0.343,0.481,0.73,0.481,1.16
					c0,0.447-0.161,0.846-0.481,1.197c-0.323,0.352-0.712,0.527-1.167,0.527c-0.456,0-0.849-0.175-1.179-0.527
					c-0.33-0.351-0.495-0.75-0.495-1.197c0-0.446,0.165-0.837,0.495-1.172C256.633,17.776,257.025,17.609,257.481,17.609
					 M256.138,26.968c0-0.351,0.13-0.666,0.39-0.945c0.259-0.279,0.576-0.419,0.954-0.419c0.36,0,0.672,0.14,0.931,0.419
					c0.259,0.279,0.389,0.594,0.389,0.945v26.833c0,1.133-0.382,2.086-1.143,2.86c-0.762,0.774-1.701,1.161-2.816,1.161h-1.013
					c-0.377,0-0.699-0.136-0.966-0.407c-0.268-0.271-0.401-0.598-0.401-0.98c0-0.336,0.141-0.647,0.424-0.935
					s0.599-0.431,0.943-0.431h1.013c0.361,0,0.667-0.128,0.919-0.383c0.251-0.255,0.377-0.551,0.377-0.886V26.968z"/>
				<path clip-path="url(#SVGID_6_)" d="M267.802,45.255v-7.54h-1.296c-0.346,0-0.648,0.133-0.907,0.396
					c-0.259,0.264-0.389,0.571-0.389,0.922v4.955c0,0.351,0.13,0.649,0.389,0.896c0.259,0.248,0.562,0.371,0.907,0.371H267.802z
					 M270.465,48.008h-3.959c-1.101,0-2.034-0.391-2.804-1.173c-0.771-0.782-1.154-1.73-1.154-2.848v-4.955
					c0-1.149,0.384-2.114,1.154-2.896c0.77-0.781,1.703-1.173,2.804-1.173h1.296V29.96c0-0.335-0.126-0.63-0.377-0.886
					c-0.251-0.255-0.559-0.383-0.919-0.383h-0.966c-0.361,0-0.676-0.143-0.942-0.43c-0.268-0.288-0.401-0.599-0.401-0.934
					c0-0.383,0.126-0.71,0.377-0.981s0.573-0.407,0.967-0.407h0.966c0.738,0,1.41,0.179,2.015,0.538
					c0.604,0.359,1.08,0.85,1.426,1.472c0.346,0.623,0.519,1.293,0.519,2.011V48.008z"/>
			</g>
		</g>
		<g opacity="0.55" clip-path="url(#SVGID_4_)">
			<g>
				<defs>
					<rect id="SVGID_7_" x="-17" y="-0.516" width="124.023" height="55.387"/>
				</defs>
				<clipPath id="SVGID_8_">
					<use xlink:href="#SVGID_7_"  overflow="visible"/>
				</clipPath>
				<path clip-path="url(#SVGID_8_)" fill="#999B9E" d="M7.593,9.85l0.025-4.499c0-0.228,0-0.775,0.012-1.601
					C7.468,4.525,7.331,5.072,7.256,5.377L6.144,9.85h-2.01L3.01,5.478C2.885,4.983,2.772,4.411,2.647,3.75
					c0.025,0.788,0.038,1.347,0.038,1.69v4.41h-2.61V0.713h3.509l1.249,4.562c0.025,0.114,0.125,0.559,0.3,1.334
					c0.125-0.66,0.224-1.105,0.287-1.321l1.274-4.575h3.509V9.85H7.593z"/>
				<path clip-path="url(#SVGID_8_)" fill="#999B9E" d="M12.151,3.102h2.66V9.85h-2.66V3.102z M12.151,0.484h2.66v1.932h-2.66V0.484
					z"/>
				<path clip-path="url(#SVGID_8_)" fill="#999B9E" d="M21.156,9.85V6.355c0-0.927-0.175-1.347-0.899-1.347
					c-0.662,0-0.987,0.445-0.987,1.36V9.85h-2.635V3.102h2.398v0.991c0.612-0.788,1.361-1.169,2.323-1.169
					c0.812,0,1.449,0.28,1.886,0.813c0.512,0.623,0.549,1.436,0.549,2.606V9.85H21.156z"/>
				<path clip-path="url(#SVGID_8_)" fill="#999B9E" d="M25.557,3.102h2.66V9.85h-2.66V3.102z M25.557,0.484h2.66v1.932h-2.66V0.484
					z"/>
				<path clip-path="url(#SVGID_8_)" fill="#999B9E" d="M32.987,10.091c-2.148,0-3.272-0.788-3.384-2.364h2.56
					c0,0.572,0.287,0.852,0.862,0.852c0.561,0,0.861-0.204,0.861-0.559c0-0.483-0.374-0.534-1.111-0.699
					c-2.048-0.445-2.998-0.814-2.998-2.237c0-1.436,1.112-2.224,3.26-2.224c1.986,0,3.072,0.724,3.235,2.122h-2.373
					c-0.038-0.394-0.363-0.66-0.837-0.66c-0.475,0-0.712,0.177-0.712,0.47c0,0.483,0.437,0.483,1.261,0.673
					c1.974,0.458,2.885,0.826,2.885,2.288C36.496,9.291,35.31,10.091,32.987,10.091"/>
				<path clip-path="url(#SVGID_8_)" fill="#999B9E" d="M40.456,9.964c-1.636,0-2.248-0.47-2.248-1.932v-3.38h-0.937V3.101h0.937
					V1.017h2.623v2.084h1.236v1.551h-1.236v2.694c0,0.483,0.249,0.623,0.886,0.623c0.113,0,0.238,0,0.375-0.013v1.945
					C41.517,9.939,40.968,9.964,40.456,9.964"/>
				<path clip-path="url(#SVGID_8_)" fill="#999B9E" d="M46.787,4.462c-0.687,0-1.112,0.457-1.149,1.258h2.348
					C47.936,4.881,47.536,4.462,46.787,4.462 M45.638,7.067c0.025,0.864,0.462,1.347,1.224,1.347c0.512,0,0.862-0.203,0.986-0.559
					h2.523c-0.362,1.461-1.611,2.236-3.659,2.236c-2.298,0-3.709-1.41-3.709-3.558c0-2.262,1.449-3.673,3.809-3.673
					c2.347,0,3.772,1.5,3.772,4.042v0.165H45.638z"/>
				<path clip-path="url(#SVGID_8_)" fill="#999B9E" d="M55.891,5.567c-1.061,0-1.548,0.47-1.548,1.512V9.85h-2.648V3.102h2.436
					v1.232c0.349-0.991,0.986-1.41,2.06-1.41h0.237v2.681C56.229,5.58,56.054,5.567,55.891,5.567"/>
				<path clip-path="url(#SVGID_8_)" fill="#999B9E" d="M60.687,10.091c-2.148,0-3.272-0.788-3.384-2.364h2.559
					c0,0.572,0.288,0.852,0.862,0.852c0.562,0,0.862-0.204,0.862-0.559c0-0.483-0.375-0.534-1.111-0.699
					c-2.049-0.445-2.998-0.814-2.998-2.237c0-1.436,1.112-2.224,3.26-2.224c1.985,0,3.072,0.724,3.234,2.122h-2.372
					c-0.038-0.394-0.363-0.66-0.837-0.66c-0.475,0-0.712,0.177-0.712,0.47c0,0.483,0.437,0.483,1.261,0.673
					c1.974,0.458,2.885,0.826,2.885,2.288C64.196,9.291,63.01,10.091,60.687,10.091"/>
				<path clip-path="url(#SVGID_8_)" fill="#999B9E" d="M68.193,9.964c-1.636,0-2.248-0.47-2.248-1.932v-3.38h-0.937V3.101h0.937
					V1.017h2.623v2.084h1.237v1.551h-1.237v2.694c0,0.483,0.25,0.623,0.887,0.623c0.112,0,0.237,0,0.374-0.013v1.945
					C69.255,9.939,68.706,9.964,68.193,9.964"/>
				<polygon clip-path="url(#SVGID_8_)" fill="#999B9E" points="79.995,9.85 77.41,9.85 76.448,5.949 75.487,9.85 72.901,9.85 
					70.716,3.102 73.326,3.102 74.313,7.219 75.336,3.102 77.56,3.102 78.583,7.219 79.571,3.102 82.081,3.102 				"/>
				<path clip-path="url(#SVGID_8_)" fill="#999B9E" d="M86.076,4.728c-0.799,0-1.087,0.547-1.087,1.741
					c0,1.195,0.288,1.754,1.087,1.754c0.799,0,1.099-0.559,1.099-1.754C87.175,5.275,86.875,4.728,86.076,4.728 M86.076,10.091
					c-2.335,0-3.747-1.385-3.747-3.622s1.412-3.609,3.747-3.609c2.336,0,3.747,1.372,3.747,3.609S88.413,10.091,86.076,10.091"/>
				<polygon clip-path="url(#SVGID_8_)" points="7.836,25.417 4.869,20.477 3.908,21.488 3.908,25.417 0.047,25.417 0.047,13.083 
					3.908,13.083 3.908,17.166 7.398,13.083 11.916,13.083 7.583,17.628 12.473,25.417 				"/>
				<path clip-path="url(#SVGID_8_)" d="M19.358,25.417V24.08c-0.826,1.064-1.838,1.578-3.136,1.578
					c-1.096,0-1.956-0.377-2.546-1.098c-0.691-0.841-0.725-1.956-0.725-3.534v-4.718h3.558v4.701c0,1.252,0.236,1.836,1.214,1.836
					c0.893,0,1.332-0.618,1.332-1.853v-4.684h3.557v9.11H19.358z"/>
				<rect x="24.872" y="13.082" clip-path="url(#SVGID_8_)" width="3.591" height="12.335"/>
				<path clip-path="url(#SVGID_8_)" d="M34.347,25.572c-2.209,0-3.035-0.635-3.035-2.608v-4.563h-1.264v-2.093h1.264v-2.814h3.541
					v2.814h1.669v2.093h-1.669v3.637c0,0.652,0.337,0.84,1.197,0.84c0.152,0,0.32,0,0.506-0.017v2.625
					C35.78,25.538,35.038,25.572,34.347,25.572"/>
				<path clip-path="url(#SVGID_8_)" d="M44.563,25.417V24.08c-0.826,1.064-1.838,1.578-3.136,1.578
					c-1.096,0-1.956-0.377-2.546-1.098c-0.691-0.841-0.725-1.956-0.725-3.534v-4.718h3.558v4.701c0,1.252,0.236,1.836,1.214,1.836
					c0.893,0,1.332-0.618,1.332-1.853v-4.684h3.557v9.11H44.563z"/>
				<path clip-path="url(#SVGID_8_)" d="M55.674,19.636c-1.433,0-2.091,0.635-2.091,2.042v3.74h-3.574v-9.11h3.288v1.664
					c0.472-1.338,1.332-1.905,2.782-1.905h0.32v3.62C56.129,19.653,55.894,19.636,55.674,19.636"/>
				<path clip-path="url(#SVGID_8_)" d="M64.534,25.366c-0.455,1.407-0.792,2.419-1.332,2.951c-0.691,0.703-1.568,0.755-2.816,0.755
					c-0.421,0-1.028-0.017-1.803-0.069V26.31h1.011c0.658,0,0.978-0.206,0.978-0.772c0-0.258-0.068-0.549-0.186-0.893l-3-8.337
					h3.607l1.568,5.524l1.518-5.524h3.355L64.534,25.366z"/>
				<path clip-path="url(#SVGID_8_)" fill="#999B9E" d="M0,31.695h2.66v6.748H0V31.695z M0,29.077h2.66v1.932H0V29.077z"/>
				<path clip-path="url(#SVGID_8_)" fill="#999B9E" d="M12.351,31.619H11.54v4.511h0.774c1.423,0,1.911-0.546,1.911-2.249
					C14.225,32.229,13.712,31.619,12.351,31.619 M14.824,38.063c-0.762,0.355-1.823,0.381-3.222,0.381H8.655v-9.137h3.484
					c1.286,0,2.285,0.038,3.11,0.521c1.249,0.737,1.873,2.084,1.873,4.054C17.122,35.953,16.335,37.376,14.824,38.063"/>
				<polygon clip-path="url(#SVGID_8_)" fill="#999B9E" points="17.916,38.443 17.916,36.627 20.938,33.665 18.178,33.665 
					18.178,31.695 24.048,31.695 24.048,33.499 21.101,36.474 24.198,36.474 24.198,38.443 				"/>
				<path clip-path="url(#SVGID_8_)" fill="#999B9E" d="M25.372,31.695h2.66v6.748h-2.66V31.695z M25.372,29.077h2.66v1.932h-2.66
					V29.077z"/>
				<path clip-path="url(#SVGID_8_)" fill="#999B9E" d="M33.127,33.056c-0.687,0-1.112,0.457-1.149,1.258h2.348
					C34.276,33.475,33.876,33.056,33.127,33.056 M31.979,35.66c0.025,0.864,0.462,1.348,1.224,1.348c0.512,0,0.862-0.203,0.986-0.56
					h2.523c-0.362,1.461-1.611,2.236-3.659,2.236c-2.298,0-3.709-1.41-3.709-3.558c0-2.263,1.449-3.673,3.809-3.673
					c2.348,0,3.771,1.499,3.771,4.041v0.165H31.979z"/>
				<path clip-path="url(#SVGID_8_)" fill="#999B9E" d="M41.569,33.576c-0.737,0-1.074,0.509-1.074,1.563
					c0,1.004,0.412,1.563,1.074,1.563c0.662,0,1.087-0.559,1.087-1.563C42.656,34.085,42.306,33.576,41.569,33.576 M42.868,38.443
					v-0.826c-0.574,0.725-1.286,1.067-2.173,1.067c-1.673,0-2.847-1.385-2.847-3.583c0-2.199,1.199-3.609,2.822-3.609
					c0.799,0,1.436,0.306,1.961,0.928v-3.113h2.572v9.137H42.868z"/>
				<polygon clip-path="url(#SVGID_8_)" fill="#999B9E" points="46.24,38.443 46.24,36.627 49.262,33.665 46.502,33.665 
					46.502,31.695 52.372,31.695 52.372,33.499 49.425,36.474 52.522,36.474 52.522,38.443 				"/>
				<path clip-path="url(#SVGID_8_)" fill="#999B9E" d="M53.696,31.695h2.66v6.748h-2.66V31.695z M53.696,29.077h2.66v1.932h-2.66
					V29.077z"/>
				<path clip-path="url(#SVGID_8_)" fill="#999B9E" d="M61.148,38.685c-2.373,0-3.809-1.411-3.809-3.622
					c0-2.236,1.436-3.608,3.784-3.608c2.16,0,3.534,1.118,3.597,2.808h-2.636c-0.049-0.635-0.361-0.939-0.974-0.939
					c-0.774,0-1.111,0.559-1.111,1.74c0,1.195,0.325,1.755,1.086,1.755c0.612,0,0.962-0.344,1.025-1.005h2.635
					C64.632,37.579,63.283,38.685,61.148,38.685"/>
				<path clip-path="url(#SVGID_8_)" fill="#999B9E" d="M68.579,38.558c-1.636,0-2.248-0.47-2.248-1.932v-3.38h-0.937v-1.551h0.937
					v-2.084h2.623v2.084h1.236v1.551h-1.236v2.693c0,0.483,0.249,0.623,0.887,0.623c0.112,0,0.237,0,0.374-0.013v1.945
					C69.641,38.533,69.091,38.558,68.579,38.558"/>
				<polygon clip-path="url(#SVGID_8_)" fill="#999B9E" points="80.219,38.443 77.634,38.443 76.672,34.543 75.711,38.443 
					73.126,38.443 70.94,31.695 73.55,31.695 74.537,35.813 75.561,31.695 77.784,31.695 78.808,35.813 79.795,31.695 
					82.305,31.695 				"/>
				<path clip-path="url(#SVGID_8_)" fill="#999B9E" d="M87.138,35.432c-1.223,0.47-1.998,0.381-1.998,1.029
					c0,0.382,0.263,0.61,0.75,0.61c0.887,0,1.261-0.407,1.261-1.297C87.151,35.66,87.151,35.546,87.138,35.432 M87.375,38.443
					l-0.163-0.647c-0.674,0.609-1.436,0.889-2.41,0.889c-1.511,0-2.348-0.788-2.348-2.147c0-1.5,0.924-1.919,2.885-2.173
					c1.274-0.166,1.823-0.102,1.823-0.725c0-0.395-0.312-0.56-0.949-0.56c-0.549,0-0.837,0.217-0.886,0.675h-2.573
					c0.025-1.514,1.224-2.302,3.547-2.302c1.211,0,2.135,0.268,2.585,0.572c0.699,0.483,0.849,0.992,0.849,1.895v3.762
					c0,0.241,0.1,0.444,0.287,0.571v0.19H87.375z"/>
				<path clip-path="url(#SVGID_8_)" fill="#999B9E" d="M5.782,51.151l-2.523-4.219c-0.137-0.229-0.324-0.674-0.524-1.309
					c0.075,0.457,0.075,0.877,0.075,1.245v4.282H0.075v-9.137H2.81l2.522,4.244c0.15,0.242,0.325,0.674,0.525,1.309
					c-0.063-0.394-0.075-0.813-0.075-1.244v-4.309h2.747v9.137H5.782z"/>
				<path clip-path="url(#SVGID_8_)" fill="#999B9E" d="M14.425,48.14c-1.224,0.47-1.998,0.381-1.998,1.029
					c0,0.382,0.262,0.609,0.749,0.609c0.887,0,1.261-0.405,1.261-1.296C14.437,48.369,14.437,48.254,14.425,48.14 M14.662,51.151
					L14.5,50.504c-0.675,0.61-1.436,0.889-2.411,0.889c-1.511,0-2.347-0.787-2.347-2.146c0-1.5,0.924-1.919,2.884-2.173
					c1.274-0.166,1.824-0.103,1.824-0.726c0-0.394-0.312-0.559-0.949-0.559c-0.55,0-0.837,0.216-0.887,0.674h-2.573
					c0.025-1.513,1.224-2.301,3.547-2.301c1.211,0,2.136,0.267,2.585,0.571c0.699,0.483,0.849,0.992,0.849,1.895v3.761
					c0,0.242,0.1,0.445,0.288,0.573v0.189H14.662z"/>
				<path clip-path="url(#SVGID_8_)" fill="#999B9E" d="M22.67,46.869c-1.062,0-1.549,0.47-1.549,1.513v2.771h-2.647v-6.748h2.435
					v1.231c0.35-0.991,0.987-1.41,2.061-1.41h0.237v2.682C23.007,46.882,22.832,46.869,22.67,46.869"/>
				<path clip-path="url(#SVGID_8_)" fill="#999B9E" d="M27.516,46.03c-0.799,0-1.087,0.546-1.087,1.741
					c0,1.194,0.288,1.754,1.087,1.754c0.799,0,1.099-0.56,1.099-1.754C28.614,46.576,28.314,46.03,27.516,46.03 M27.516,51.394
					c-2.335,0-3.747-1.386-3.747-3.622c0-2.237,1.412-3.609,3.747-3.609s3.747,1.372,3.747,3.609
					C31.263,50.008,29.851,51.394,27.516,51.394"/>
				<path clip-path="url(#SVGID_8_)" fill="#999B9E" d="M35.683,46.285c-0.737,0-1.074,0.508-1.074,1.563
					c0,1.004,0.412,1.563,1.074,1.563s1.087-0.56,1.087-1.563C36.77,46.793,36.42,46.285,35.683,46.285 M36.982,51.151v-0.825
					c-0.574,0.724-1.286,1.066-2.173,1.066c-1.673,0-2.847-1.385-2.847-3.583c0-2.199,1.198-3.608,2.822-3.608
					c0.799,0,1.436,0.305,1.961,0.927v-3.113h2.572v9.137H36.982z"/>
				<path clip-path="url(#SVGID_8_)" fill="#999B9E" d="M44.087,46.03c-0.799,0-1.087,0.546-1.087,1.741
					c0,1.194,0.288,1.754,1.087,1.754c0.799,0,1.099-0.56,1.099-1.754C45.187,46.576,44.887,46.03,44.087,46.03 M44.087,51.394
					c-2.335,0-3.747-1.386-3.747-3.622c0-2.237,1.412-3.609,3.747-3.609s3.747,1.372,3.747,3.609
					C47.834,50.008,46.422,51.394,44.087,51.394"/>
				<polygon clip-path="url(#SVGID_8_)" fill="#999B9E" points="57.264,51.151 54.679,51.151 53.717,47.25 52.756,51.151 
					50.171,51.151 47.985,44.403 50.595,44.403 51.583,48.521 52.606,44.403 54.829,44.403 55.854,48.521 56.84,44.403 
					59.35,44.403 				"/>
				<path clip-path="url(#SVGID_8_)" fill="#999B9E" d="M63.384,45.764c-0.687,0-1.111,0.457-1.149,1.258h2.348
					C64.533,46.183,64.134,45.764,63.384,45.764 M62.234,48.369c0.025,0.863,0.462,1.347,1.224,1.347
					c0.512,0,0.862-0.203,0.987-0.559h2.522c-0.361,1.461-1.611,2.235-3.659,2.235c-2.298,0-3.709-1.41-3.709-3.558
					c0-2.262,1.449-3.673,3.809-3.673c2.348,0,3.772,1.5,3.772,4.042v0.165H62.234z"/>
				<path clip-path="url(#SVGID_8_)" fill="#999B9E" d="M71.638,46.208c-0.711,0-1.061,0.508-1.061,1.525
					c0,1.067,0.337,1.601,1.061,1.601c0.775,0,1.112-0.521,1.112-1.588C72.75,46.755,72.338,46.208,71.638,46.208 M71.588,53.871
					c-1.898,0-3.022-0.75-3.197-1.995h2.611c0.062,0.33,0.299,0.457,0.773,0.457c0.875,0,0.987-0.381,0.987-1.41v-0.368
					c-0.449,0.444-1.061,0.66-1.848,0.66c-1.786,0-2.96-1.347-2.96-3.418c0-2.224,1.149-3.57,2.835-3.57
					c0.949,0,1.649,0.33,2.173,1.054v-0.877h2.335v6.228C75.297,52.981,74.274,53.871,71.588,53.871"/>
				<path clip-path="url(#SVGID_8_)" fill="#999B9E" d="M79.956,46.03c-0.799,0-1.087,0.546-1.087,1.741
					c0,1.194,0.288,1.754,1.087,1.754s1.099-0.56,1.099-1.754C81.055,46.576,80.755,46.03,79.956,46.03 M79.956,51.394
					c-2.336,0-3.747-1.386-3.747-3.622c0-2.237,1.411-3.609,3.747-3.609c2.335,0,3.746,1.372,3.746,3.609
					C83.702,50.008,82.291,51.394,79.956,51.394"/>
				<rect x="85.629" y="47.106" clip-path="url(#SVGID_8_)" width="4.035" height="4.034"/>
			</g>
		</g>
		<g opacity="0.55" clip-path="url(#SVGID_4_)">
			<g>
				<defs>
					<rect id="SVGID_9_" x="288.663" y="0.875" width="142.174" height="61.125"/>
				</defs>
				<clipPath id="SVGID_10_">
					<use xlink:href="#SVGID_9_"  overflow="visible"/>
				</clipPath>
				<path clip-path="url(#SVGID_10_)" fill="#999B9E" d="M335.255,20.4c0,7.971-6.461,14.432-14.432,14.432
					s-14.433-6.461-14.433-14.432c0-7.971,6.462-14.432,14.433-14.432S335.255,12.429,335.255,20.4"/>
				<path clip-path="url(#SVGID_10_)" fill="#999B9E" d="M311.448,10.288c0,0.42-0.34,0.76-0.76,0.76
					c-0.421,0-0.761-0.34-0.761-0.76c0-0.42,0.34-0.76,0.761-0.76C311.108,9.528,311.448,9.868,311.448,10.288"/>
				<path clip-path="url(#SVGID_10_)" fill="#999B9E" d="M331.845,10.288c0,0.42-0.341,0.76-0.76,0.76c-0.42,0-0.76-0.34-0.76-0.76
					c0-0.42,0.34-0.76,0.76-0.76C331.504,9.528,331.845,9.868,331.845,10.288"/>
				<path clip-path="url(#SVGID_10_)" fill="#999B9E" d="M307.183,20.465c0,0.42-0.34,0.76-0.76,0.76s-0.76-0.34-0.76-0.76
					s0.34-0.76,0.76-0.76S307.183,20.045,307.183,20.465"/>
				<path clip-path="url(#SVGID_10_)" fill="#999B9E" d="M311.385,30.686c0,0.42-0.34,0.76-0.76,0.76s-0.761-0.34-0.761-0.76
					s0.341-0.76,0.761-0.76S311.385,30.266,311.385,30.686"/>
				<path clip-path="url(#SVGID_10_)" fill="#999B9E" d="M331.781,30.686c0,0.42-0.34,0.76-0.76,0.76s-0.76-0.34-0.76-0.76
					s0.34-0.76,0.76-0.76S331.781,30.266,331.781,30.686"/>
				<path clip-path="url(#SVGID_10_)" fill="#999B9E" d="M321.583,34.876c0,0.42-0.34,0.76-0.76,0.76s-0.76-0.34-0.76-0.76
					s0.34-0.761,0.76-0.761S321.583,34.456,321.583,34.876"/>
				<path clip-path="url(#SVGID_10_)" fill="#999B9E" d="M321.583,6.065c0,0.42-0.34,0.76-0.76,0.76s-0.76-0.34-0.76-0.76
					c0-0.42,0.34-0.76,0.76-0.76S321.583,5.645,321.583,6.065"/>
				<path clip-path="url(#SVGID_10_)" fill="#999B9E" d="M335.983,20.465c0,0.42-0.34,0.76-0.76,0.76
					c-0.421,0-0.761-0.34-0.761-0.76s0.34-0.76,0.761-0.76C335.644,19.706,335.983,20.045,335.983,20.465"/>
				<path clip-path="url(#SVGID_10_)" d="M339.384,5.333c0-0.976,0.332-1.797,0.996-2.461c0.665-0.664,1.472-0.997,2.421-0.997
					c0.638,0,1.217,0.153,1.739,0.458c0.521,0.305,0.932,0.729,1.23,1.271c0.298,0.542,0.447,1.119,0.447,1.729v0.834
					c0,0.312-0.108,0.576-0.325,0.793c-0.218,0.217-0.488,0.325-0.814,0.325c-0.313,0-0.583-0.108-0.813-0.325
					c-0.23-0.217-0.346-0.481-0.346-0.793V5.333c0-0.312-0.107-0.576-0.325-0.793c-0.217-0.217-0.481-0.326-0.793-0.326
					c-0.299,0-0.56,0.112-0.783,0.336s-0.336,0.485-0.336,0.783v12.406c0,0.285,0.112,0.546,0.336,0.783
					c0.224,0.237,0.484,0.356,0.783,0.356c0.312,0,0.576-0.115,0.793-0.346c0.218-0.23,0.325-0.495,0.325-0.793v-0.834
					c0-0.312,0.115-0.576,0.346-0.793c0.23-0.217,0.501-0.326,0.813-0.326c0.326,0,0.597,0.109,0.814,0.326
					c0.217,0.217,0.325,0.481,0.325,0.793v0.834c0,0.976-0.333,1.797-0.997,2.461c-0.665,0.664-1.471,0.996-2.42,0.996
					c-0.936,0-1.738-0.335-2.41-1.006c-0.671-0.672-1.007-1.488-1.007-2.451V5.333z"/>
				<path clip-path="url(#SVGID_10_)" d="M353.539,5.333c0-0.312-0.108-0.576-0.325-0.793c-0.217-0.217-0.482-0.326-0.793-0.326
					c-0.299,0-0.561,0.112-0.783,0.336c-0.224,0.224-0.336,0.485-0.336,0.783v12.406c0,0.285,0.112,0.546,0.336,0.783
					c0.223,0.237,0.484,0.356,0.783,0.356c0.311,0,0.576-0.115,0.793-0.346c0.217-0.23,0.325-0.495,0.325-0.793V5.333z
					 M349.004,5.333c0-0.976,0.332-1.797,0.996-2.461c0.665-0.664,1.471-0.997,2.421-0.997c0.637,0,1.216,0.153,1.739,0.458
					c0.521,0.305,0.931,0.729,1.229,1.271c0.298,0.542,0.447,1.119,0.447,1.729v12.406c0,0.976-0.332,1.797-0.996,2.461
					c-0.665,0.664-1.471,0.996-2.42,0.996c-0.937,0-1.739-0.335-2.41-1.006c-0.671-0.672-1.007-1.488-1.007-2.451V5.333z"/>
				<path clip-path="url(#SVGID_10_)" d="M340.268,50.204V35.976h-1.131c-0.302,0-0.564,0.112-0.791,0.339
					c-0.227,0.226-0.34,0.476-0.34,0.751v12.05c0,0.302,0.113,0.558,0.34,0.771s0.489,0.318,0.791,0.318H340.268z M340.268,24.439
					c0-0.329,0.113-0.607,0.34-0.833c0.226-0.226,0.504-0.339,0.833-0.339c0.343,0,0.619,0.113,0.833,0.339
					c0.212,0.226,0.318,0.504,0.318,0.833v28.13h-3.455c-0.96,0-1.774-0.335-2.446-1.007c-0.673-0.672-1.008-1.488-1.008-2.447
					v-12.05c0-0.947,0.34-1.758,1.018-2.438c0.679-0.679,1.491-1.018,2.437-1.018h1.131V24.439z"/>
				<path clip-path="url(#SVGID_10_)" d="M351.826,50.204v-6.477h-1.132c-0.301,0-0.565,0.112-0.791,0.339
					c-0.227,0.227-0.34,0.491-0.34,0.792v4.257c0,0.302,0.113,0.558,0.34,0.771c0.226,0.213,0.49,0.318,0.791,0.318H351.826z
					 M354.149,52.569h-3.455c-0.959,0-1.775-0.335-2.447-1.007c-0.671-0.672-1.007-1.488-1.007-2.447v-4.257
					c0-0.987,0.336-1.817,1.007-2.489c0.672-0.671,1.488-1.007,2.447-1.007h1.132v-4.297c0-0.288-0.111-0.541-0.33-0.763
					c-0.219-0.218-0.486-0.327-0.802-0.327h-0.843c-0.315,0-0.59-0.124-0.822-0.37c-0.234-0.247-0.35-0.515-0.35-0.803
					c0-0.328,0.109-0.609,0.329-0.843c0.219-0.233,0.5-0.35,0.843-0.35h0.843c0.645,0,1.23,0.154,1.759,0.463
					c0.527,0.308,0.942,0.729,1.244,1.264c0.301,0.535,0.452,1.111,0.452,1.729V52.569z"/>
				<path clip-path="url(#SVGID_10_)" d="M359.292,24.439c0-0.329,0.106-0.607,0.318-0.833c0.213-0.226,0.498-0.339,0.854-0.339
					c0.343,0,0.62,0.113,0.833,0.339c0.213,0.226,0.319,0.504,0.319,0.833v27.247c0,0.329-0.113,0.605-0.339,0.833
					c-0.228,0.226-0.498,0.339-0.813,0.339c-0.329,0-0.605-0.113-0.833-0.339c-0.226-0.228-0.339-0.504-0.339-0.833V24.439z"/>
				<path clip-path="url(#SVGID_10_)" d="M372.231,42.596v-5.777c0-0.316-0.11-0.583-0.33-0.803
					c-0.218-0.219-0.485-0.329-0.801-0.329c-0.301,0-0.565,0.113-0.792,0.34c-0.226,0.227-0.339,0.49-0.339,0.792v5.777H372.231z
					 M369.97,44.961v4.404c0,0.287,0.113,0.55,0.339,0.789c0.227,0.238,0.491,0.358,0.792,0.358c0.315,0,0.583-0.115,0.801-0.347
					c0.22-0.231,0.33-0.496,0.33-0.796v-0.326c0-0.34,0.117-0.619,0.35-0.837c0.233-0.217,0.507-0.326,0.823-0.326
					c0.328,0,0.603,0.109,0.822,0.327c0.22,0.219,0.329,0.499,0.329,0.84v0.328c0,0.983-0.336,1.809-1.009,2.477
					c-0.672,0.671-1.487,1.005-2.446,1.005c-0.946,0-1.758-0.34-2.438-1.019c-0.678-0.678-1.017-1.504-1.017-2.477V36.818
					c0-0.987,0.335-1.817,1.007-2.488s1.487-1.008,2.447-1.008c0.644,0,1.23,0.154,1.758,0.464c0.528,0.309,0.943,0.738,1.245,1.287
					c0.3,0.55,0.452,1.133,0.452,1.751v8.137H369.97z"/>
				<path clip-path="url(#SVGID_10_)" d="M381.945,34.494c0-0.302,0.113-0.571,0.34-0.812s0.504-0.36,0.833-0.36
					c0.314,0,0.586,0.12,0.812,0.36c0.227,0.24,0.34,0.51,0.34,0.812v23.052c0,0.973-0.333,1.793-0.998,2.457
					c-0.664,0.665-1.482,0.997-2.457,0.997h-0.884c-0.329,0-0.61-0.116-0.843-0.35c-0.233-0.232-0.35-0.514-0.35-0.842
					c0-0.289,0.122-0.556,0.369-0.803s0.522-0.37,0.823-0.37h0.884c0.315,0,0.582-0.11,0.803-0.329
					c0.219-0.22,0.328-0.473,0.328-0.761V34.494z"/>
				<path clip-path="url(#SVGID_10_)" d="M383.118,26.454c0.396,0,0.736,0.148,1.018,0.442c0.281,0.295,0.421,0.627,0.421,0.997
					c0,0.384-0.14,0.728-0.421,1.028c-0.281,0.302-0.622,0.453-1.018,0.453c-0.398,0-0.74-0.151-1.029-0.453
					c-0.287-0.3-0.431-0.644-0.431-1.028c0-0.383,0.144-0.719,0.431-1.007C382.378,26.598,382.72,26.454,383.118,26.454"/>
				<path clip-path="url(#SVGID_10_)" d="M366.269,22.349v-8.274c0-0.194-0.074-0.365-0.221-0.513
					c-0.148-0.147-0.328-0.221-0.539-0.221h-0.763v9.008c0,0.194,0.076,0.372,0.229,0.533c0.151,0.161,0.329,0.242,0.533,0.242
					c0.211,0,0.391-0.079,0.539-0.235C366.194,22.731,366.269,22.551,366.269,22.349 M367.832,22.349
					c0,0.664-0.226,1.223-0.678,1.674c-0.452,0.452-1.001,0.678-1.646,0.678c-0.638,0-1.185-0.228-1.641-0.685
					c-0.457-0.456-0.685-1.012-0.685-1.667V5.579c0-0.222,0.07-0.409,0.214-0.561c0.143-0.152,0.335-0.228,0.574-0.228
					c0.23,0,0.418,0.076,0.561,0.228c0.144,0.152,0.214,0.339,0.214,0.561v6.171h0.763c0.433,0,0.826,0.104,1.182,0.311
					c0.356,0.208,0.635,0.491,0.838,0.851c0.202,0.36,0.304,0.747,0.304,1.163V22.349z"/>
				<path clip-path="url(#SVGID_10_)" d="M372.613,24.507h-0.761c-0.646,0-1.195-0.226-1.646-0.678
					c-0.453-0.451-0.679-1.001-0.679-1.647v-9.838c0-0.202,0.077-0.385,0.229-0.546c0.152-0.161,0.339-0.242,0.561-0.242
					c0.212,0,0.395,0.081,0.547,0.242c0.151,0.161,0.228,0.344,0.228,0.546v9.838c0,0.204,0.076,0.377,0.229,0.52
					s0.33,0.214,0.533,0.214h0.761V12.344c0-0.202,0.081-0.385,0.242-0.546c0.162-0.161,0.344-0.242,0.547-0.242
					c0.212,0,0.394,0.081,0.547,0.242c0.152,0.161,0.228,0.344,0.228,0.546v15.512c0,0.655-0.224,1.206-0.671,1.653
					s-0.999,0.671-1.653,0.671h-0.596c-0.239,0-0.434-0.073-0.581-0.221c-0.147-0.148-0.221-0.341-0.221-0.581
					c0-0.212,0.078-0.397,0.235-0.554c0.156-0.156,0.346-0.235,0.566-0.235h0.596c0.212,0,0.392-0.074,0.54-0.221
					c0.146-0.148,0.221-0.319,0.221-0.512V24.507z"/>
				<path clip-path="url(#SVGID_10_)" d="M376.771,5.578c0-0.222,0.07-0.408,0.215-0.561c0.143-0.152,0.334-0.228,0.573-0.228
					c0.23,0,0.418,0.076,0.561,0.228c0.143,0.153,0.215,0.339,0.215,0.561v18.334c0,0.221-0.077,0.408-0.229,0.56
					c-0.152,0.152-0.334,0.228-0.547,0.228c-0.222,0-0.407-0.076-0.56-0.228c-0.153-0.152-0.229-0.339-0.229-0.56V5.578z"/>
				<path clip-path="url(#SVGID_10_)" d="M383.809,13.908c0-0.212-0.073-0.392-0.221-0.54c-0.146-0.147-0.328-0.221-0.54-0.221
					c-0.202,0-0.38,0.076-0.532,0.228s-0.229,0.33-0.229,0.533v8.44c0,0.194,0.076,0.372,0.229,0.533
					c0.152,0.162,0.33,0.242,0.532,0.242c0.212,0,0.394-0.078,0.54-0.235c0.147-0.157,0.221-0.336,0.221-0.54V13.908z
					 M380.724,13.908c0-0.664,0.226-1.223,0.679-1.674c0.45-0.452,1-0.678,1.646-0.678c0.435,0,0.828,0.103,1.185,0.311
					c0.354,0.207,0.634,0.496,0.836,0.865c0.203,0.369,0.305,0.761,0.305,1.176v8.44c0,0.665-0.227,1.223-0.678,1.675
					c-0.452,0.452-1.001,0.677-1.647,0.677c-0.636,0-1.183-0.228-1.639-0.684c-0.457-0.457-0.686-1.013-0.686-1.668V13.908z"/>
				<path clip-path="url(#SVGID_10_)" d="M378.711,11.863c0.13-0.179,0.297-0.297,0.503-0.326c0.128-0.019,0.229-0.008,0.401,0.116
					c0.186,0.136,0.214,0.227,0.234,0.347c0.036,0.205-0.025,0.4-0.156,0.579l-3.422,4.704c-0.131,0.179-0.302,0.291-0.515,0.318
					c-0.116,0.015-0.222,0.021-0.395-0.104c-0.241-0.176-0.226-0.256-0.24-0.383c-0.025-0.225,0.036-0.369,0.166-0.547
					L378.711,11.863z"/>
				<path clip-path="url(#SVGID_10_)" d="M319.698,27.699c0-0.311,0.116-0.592,0.351-0.839c0.234-0.248,0.521-0.373,0.861-0.373
					c0.326,0,0.605,0.125,0.84,0.373c0.234,0.247,0.351,0.528,0.351,0.839V59.73c0,0.34-0.116,0.627-0.351,0.86
					c-0.234,0.234-0.514,0.352-0.84,0.352c-0.34,0-0.627-0.117-0.861-0.352c-0.234-0.233-0.351-0.521-0.351-0.86V27.699z
					 M320.91,19.387c0.411,0,0.762,0.152,1.052,0.457c0.291,0.305,0.436,0.648,0.436,1.031c0,0.397-0.145,0.751-0.436,1.063
					c-0.29,0.312-0.641,0.468-1.052,0.468s-0.766-0.156-1.063-0.468s-0.445-0.666-0.445-1.063s0.147-0.744,0.445-1.042
					C320.145,19.536,320.499,19.387,320.91,19.387"/>
				<path clip-path="url(#SVGID_10_)" d="M390.945,48.81c0.396,0,0.736,0.148,1.018,0.442c0.281,0.295,0.421,0.627,0.421,0.997
					c0,0.384-0.14,0.728-0.421,1.028c-0.281,0.302-0.622,0.452-1.018,0.452c-0.398,0-0.741-0.15-1.029-0.452
					c-0.287-0.301-0.431-0.645-0.431-1.028c0-0.383,0.144-0.719,0.431-1.007C390.204,48.954,390.547,48.81,390.945,48.81"/>
				<path clip-path="url(#SVGID_10_)" d="M401.293,48.81c0.396,0,0.736,0.148,1.018,0.442c0.281,0.295,0.421,0.627,0.421,0.997
					c0,0.384-0.14,0.728-0.421,1.028c-0.281,0.302-0.621,0.452-1.018,0.452c-0.398,0-0.74-0.15-1.028-0.452
					c-0.288-0.301-0.433-0.645-0.433-1.028c0-0.383,0.145-0.719,0.433-1.007S400.895,48.81,401.293,48.81"/>
				<path clip-path="url(#SVGID_10_)" d="M412.397,48.81c0.396,0,0.736,0.148,1.018,0.442c0.281,0.295,0.421,0.627,0.421,0.997
					c0,0.384-0.14,0.728-0.421,1.028c-0.281,0.302-0.622,0.452-1.018,0.452c-0.398,0-0.74-0.15-1.029-0.452
					c-0.287-0.301-0.431-0.645-0.431-1.028c0-0.383,0.144-0.719,0.431-1.007C411.657,48.954,411.999,48.81,412.397,48.81"/>
			</g>
		</g>
	</g>
</g>
</svg>
