<?xml version="1.0" encoding="utf-8"?>
<!-- Generator: Adobe Illustrator 15.0.2, SVG Export Plug-In . SVG Version: 6.00 Build 0)  -->
<!DOCTYPE svg PUBLIC "-//W3C//DTD SVG 1.1//EN" "http://www.w3.org/Graphics/SVG/1.1/DTD/svg11.dtd">
<svg version="1.1" id="Warstwa_1" xmlns="http://www.w3.org/2000/svg" xmlns:xlink="http://www.w3.org/1999/xlink" x="0px" y="0px"
	 width="350px" height="540px" viewBox="0 0 350 540" enable-background="new 0 0 350 540" xml:space="preserve">
<g>
	<defs>
		<rect id="SVGID_1_" x="-198.85" y="0.917" width="547.85" height="538.165"/>
	</defs>
	<clipPath id="SVGID_2_">
		<use xlink:href="#SVGID_1_"  overflow="visible"/>
	</clipPath>
	<g clip-path="url(#SVGID_2_)">
		<defs>
			<rect id="SVGID_3_" x="-198.85" y="0.917" width="547.85" height="538.165"/>
		</defs>
		<clipPath id="SVGID_4_">
			<use xlink:href="#SVGID_3_"  overflow="visible"/>
		</clipPath>
		<g opacity="0.92" clip-path="url(#SVGID_4_)">
			<g>
				<defs>
					<rect id="SVGID_5_" x="78.206" y="169.846" width="23.968" height="348.976"/>
				</defs>
				<clipPath id="SVGID_6_">
					<use xlink:href="#SVGID_5_"  overflow="visible"/>
				</clipPath>
				
					<line clip-path="url(#SVGID_6_)" fill="none" stroke="#231F20" stroke-width="2" stroke-linecap="round" stroke-linejoin="round" stroke-dasharray="0,4.012" x1="88.252" y1="175.857" x2="92.15" y2="514.816"/>
				
					<path clip-path="url(#SVGID_6_)" fill="none" stroke="#231F20" stroke-width="2" stroke-linecap="round" stroke-linejoin="round" d="
					M92.174,516.822L92.174,516.822 M88.205,171.846L88.205,171.846"/>
			</g>
		</g>
		<g opacity="0.92" clip-path="url(#SVGID_4_)">
			<g>
				<defs>
					<rect id="SVGID_7_" x="77.638" y="521.342" width="195.181" height="5.984"/>
				</defs>
				<clipPath id="SVGID_8_">
					<use xlink:href="#SVGID_7_"  overflow="visible"/>
				</clipPath>
				
					<line clip-path="url(#SVGID_8_)" fill="none" stroke="#231F20" stroke-width="2" stroke-linecap="round" stroke-linejoin="round" stroke-dasharray="0,3.982" x1="91.62" y1="525.281" x2="260.829" y2="523.365"/>
				
					<path clip-path="url(#SVGID_8_)" fill="none" stroke="#231F20" stroke-width="2" stroke-linecap="round" stroke-linejoin="round" d="
					M262.819,523.342L262.819,523.342 M87.639,525.326L87.639,525.326"/>
			</g>
		</g>
		<g opacity="0.92" clip-path="url(#SVGID_4_)">
			<g>
				<defs>
					<rect id="SVGID_9_" x="246.583" y="169.562" width="23.118" height="349.26"/>
				</defs>
				<clipPath id="SVGID_10_">
					<use xlink:href="#SVGID_9_"  overflow="visible"/>
				</clipPath>
				
					<line clip-path="url(#SVGID_10_)" fill="none" stroke="#231F20" stroke-width="2" stroke-linecap="round" stroke-linejoin="round" stroke-dasharray="0,4.015" x1="256.62" y1="512.808" x2="259.684" y2="173.57"/>
				
					<path clip-path="url(#SVGID_10_)" fill="none" stroke="#231F20" stroke-width="2" stroke-linecap="round" stroke-linejoin="round" d="
					M259.701,171.562L259.701,171.562 M256.583,516.822L256.583,516.822"/>
			</g>
		</g>
		<g opacity="0.92" clip-path="url(#SVGID_4_)">
			<g>
				<defs>
					<rect id="SVGID_11_" x="72.961" y="160.491" width="199.575" height="4.284"/>
				</defs>
				<clipPath id="SVGID_12_">
					<use xlink:href="#SVGID_11_"  overflow="visible"/>
				</clipPath>
				
					<line clip-path="url(#SVGID_12_)" fill="none" stroke="#231F20" stroke-width="2" stroke-linecap="round" stroke-linejoin="round" stroke-dasharray="0,3.991" x1="86.952" y1="162.498" x2="260.541" y2="162.772"/>
				
					<path clip-path="url(#SVGID_12_)" fill="none" stroke="#231F20" stroke-width="2" stroke-linecap="round" stroke-linejoin="round" d="
					M262.536,162.775L262.536,162.775 M82.961,162.491L82.961,162.491"/>
			</g>
		</g>
		<g opacity="0.92" clip-path="url(#SVGID_4_)">
			<g>
				<defs>
					<rect id="SVGID_13_" x="253.67" y="148.444" width="103.622" height="23.984"/>
				</defs>
				<clipPath id="SVGID_14_">
					<use xlink:href="#SVGID_13_"  overflow="visible"/>
				</clipPath>
				
					<line clip-path="url(#SVGID_14_)" fill="none" stroke="#231F20" stroke-width="2" stroke-linecap="round" stroke-linejoin="round" stroke-dasharray="0,4.094" x1="267.652" y1="169.477" x2="345.301" y2="150.92"/>
				
					<path clip-path="url(#SVGID_14_)" fill="none" stroke="#231F20" stroke-width="2" stroke-linecap="round" stroke-linejoin="round" d="
					M347.292,150.445L347.292,150.445 M263.67,170.428L263.67,170.428"/>
			</g>
		</g>
		<g opacity="0.92" clip-path="url(#SVGID_4_)">
			<g>
				<defs>
					<rect id="SVGID_15_" x="326.662" y="152.697" width="31.338" height="380.299"/>
				</defs>
				<clipPath id="SVGID_16_">
					<use xlink:href="#SVGID_15_"  overflow="visible"/>
				</clipPath>
				
					<line clip-path="url(#SVGID_16_)" fill="none" stroke="#231F20" stroke-width="2" stroke-linecap="round" stroke-linejoin="round" stroke-dasharray="0,4.005" x1="347.88" y1="158.699" x2="336.722" y2="528.994"/>
				
					<path clip-path="url(#SVGID_16_)" fill="none" stroke="#231F20" stroke-width="2" stroke-linecap="round" stroke-linejoin="round" d="
					M336.662,530.996L336.662,530.996 M348.001,154.697L348.001,154.697"/>
			</g>
		</g>
		<g opacity="0.92" clip-path="url(#SVGID_4_)">
			<g>
				<defs>
					<rect id="SVGID_17_" x="250.835" y="516.24" width="95.118" height="20.441"/>
				</defs>
				<clipPath id="SVGID_18_">
					<use xlink:href="#SVGID_17_"  overflow="visible"/>
				</clipPath>
				
					<line clip-path="url(#SVGID_18_)" fill="none" stroke="#231F20" stroke-width="2" stroke-linecap="round" stroke-linejoin="round" stroke-dasharray="0,4.047" x1="332" y1="533.816" x2="262.812" y2="518.672"/>
				
					<path clip-path="url(#SVGID_18_)" fill="none" stroke="#231F20" stroke-width="2" stroke-linecap="round" stroke-linejoin="round" d="
					M260.836,518.24L260.836,518.24 M335.953,534.681L335.953,534.681"/>
			</g>
		</g>
		<g opacity="0.92" clip-path="url(#SVGID_4_)">
			<g>
				<defs>
					<rect id="SVGID_19_" x="-6.551" y="152.697" width="100.788" height="20.299"/>
				</defs>
				<clipPath id="SVGID_20_">
					<use xlink:href="#SVGID_19_"  overflow="visible"/>
				</clipPath>
				
					<line clip-path="url(#SVGID_20_)" fill="none" stroke="#231F20" stroke-width="2" stroke-linecap="round" stroke-linejoin="round" stroke-dasharray="0,3.925" x1="80.391" y1="170.219" x2="5.373" y2="155.085"/>
				
					<path clip-path="url(#SVGID_20_)" fill="none" stroke="#231F20" stroke-width="2" stroke-linecap="round" stroke-linejoin="round" d="
					M3.45,154.697L3.45,154.697 M84.236,170.995L84.236,170.995"/>
			</g>
		</g>
		<g opacity="0.92" clip-path="url(#SVGID_4_)">
			<g>
				<defs>
					<rect id="SVGID_21_" x="-6.551" y="157.657" width="32.898" height="379.024"/>
				</defs>
				<clipPath id="SVGID_22_">
					<use xlink:href="#SVGID_21_"  overflow="visible"/>
				</clipPath>
				
					<line clip-path="url(#SVGID_22_)" fill="none" stroke="#231F20" stroke-width="2" stroke-linecap="round" stroke-linejoin="round" stroke-dasharray="0,3.992" x1="3.587" y1="163.647" x2="16.279" y2="532.685"/>
				
					<path clip-path="url(#SVGID_22_)" fill="none" stroke="#231F20" stroke-width="2" stroke-linecap="round" stroke-linejoin="round" d="
					M16.348,534.681L16.348,534.681 M3.45,159.657L3.45,159.657"/>
			</g>
		</g>
		<g opacity="0.92" clip-path="url(#SVGID_4_)">
			<g>
				<defs>
					<rect id="SVGID_23_" x="7.055" y="518.365" width="95.119" height="21.717"/>
				</defs>
				<clipPath id="SVGID_24_">
					<use xlink:href="#SVGID_23_"  overflow="visible"/>
				</clipPath>
				
					<line clip-path="url(#SVGID_24_)" fill="none" stroke="#231F20" stroke-width="2" stroke-linecap="round" stroke-linejoin="round" stroke-dasharray="0,4.062" x1="21.009" y1="537.15" x2="90.197" y2="520.832"/>
				
					<path clip-path="url(#SVGID_24_)" fill="none" stroke="#231F20" stroke-width="2" stroke-linecap="round" stroke-linejoin="round" d="
					M92.174,520.365L92.174,520.365 M17.056,538.082L17.056,538.082"/>
			</g>
		</g>
	</g>
	
		<line clip-path="url(#SVGID_2_)" fill="none" stroke="#231F20" stroke-width="2" stroke-linecap="round" stroke-linejoin="round" stroke-dasharray="0,4.422" x1="82.919" y1="167.177" x2="82.828" y2="164.969"/>
	
		<path clip-path="url(#SVGID_2_)" fill="none" stroke="#231F20" stroke-width="2" stroke-linecap="round" stroke-linejoin="round" d="
		M82.92,167.178L82.92,167.178 M82.736,162.759L82.736,162.759"/>
	
		<line clip-path="url(#SVGID_2_)" fill="none" stroke="#231F20" stroke-width="2" stroke-linecap="round" stroke-linejoin="round" stroke-dasharray="0,4.422" x1="262.352" y1="167.043" x2="262.261" y2="164.834"/>
	
		<path clip-path="url(#SVGID_2_)" fill="none" stroke="#231F20" stroke-width="2" stroke-linecap="round" stroke-linejoin="round" d="
		M262.353,167.044L262.353,167.044 M262.169,162.625L262.169,162.625"/>
	<g clip-path="url(#SVGID_2_)">
		<defs>
			<rect id="SVGID_25_" x="-198.85" y="0.917" width="547.85" height="538.165"/>
		</defs>
		<clipPath id="SVGID_26_">
			<use xlink:href="#SVGID_25_"  overflow="visible"/>
		</clipPath>
		<g opacity="0.92" clip-path="url(#SVGID_26_)">
			<g>
				<defs>
					<rect id="SVGID_27_" x="94.481" y="24.25" width="162.2" height="35.663"/>
				</defs>
				<clipPath id="SVGID_28_">
					<use xlink:href="#SVGID_27_"  overflow="visible"/>
				</clipPath>
				<path clip-path="url(#SVGID_28_)" fill="#231F20" d="M118.032,26.209c0.749-0.639,1.614-0.959,2.597-0.959
					c1.092,0,2.02,0.382,2.784,1.146c0.763,0.764,1.146,1.708,1.146,2.831V57.58c0,0.39-0.133,0.71-0.397,0.959
					s-0.577,0.375-0.937,0.375c-0.326,0-0.627-0.129-0.899-0.386c-0.272-0.258-0.41-0.574-0.41-0.948V29.227
					c0-0.39-0.128-0.706-0.386-0.948c-0.258-0.241-0.559-0.362-0.9-0.362c-0.343,0-0.644,0.128-0.9,0.386
					c-0.258,0.257-0.387,0.565-0.387,0.924V57.58c0,0.374-0.129,0.69-0.386,0.948c-0.257,0.257-0.565,0.386-0.924,0.386
					c-0.343,0-0.651-0.129-0.924-0.386c-0.273-0.258-0.409-0.574-0.409-0.948V29.227c0-0.375-0.126-0.686-0.375-0.936
					c-0.249-0.249-0.553-0.374-0.912-0.374c-0.343,0-0.643,0.128-0.9,0.386c-0.258,0.257-0.387,0.565-0.387,0.924V57.58
					c0,0.374-0.128,0.69-0.386,0.948c-0.257,0.257-0.565,0.386-0.924,0.386c-0.374,0-0.69-0.129-0.947-0.386
					c-0.258-0.258-0.386-0.574-0.386-0.948V29.227c0-1.108,0.386-2.047,1.158-2.819c0.771-0.772,1.695-1.158,2.771-1.158
					C116.395,25.25,117.268,25.57,118.032,26.209"/>
				<path clip-path="url(#SVGID_28_)" fill="#231F20" d="M133.495,55.896v-7.369h-1.286c-0.343,0-0.645,0.128-0.9,0.386
					c-0.258,0.257-0.387,0.558-0.387,0.9v4.843c0,0.343,0.129,0.635,0.387,0.877c0.256,0.242,0.558,0.363,0.9,0.363H133.495z
					 M136.139,58.586h-3.93c-1.092,0-2.02-0.382-2.784-1.146c-0.764-0.764-1.146-1.692-1.146-2.784v-4.843
					c0-1.123,0.382-2.066,1.146-2.83c0.765-0.764,1.692-1.147,2.784-1.147h1.286v-4.889c0-0.327-0.125-0.616-0.374-0.866
					c-0.249-0.249-0.555-0.374-0.912-0.374h-0.959c-0.359,0-0.671-0.14-0.936-0.421c-0.267-0.281-0.398-0.585-0.398-0.912
					c0-0.375,0.125-0.694,0.374-0.959c0.25-0.266,0.569-0.398,0.96-0.398h0.959c0.732,0,1.398,0.175,2,0.526
					c0.6,0.351,1.072,0.831,1.415,1.439c0.343,0.608,0.515,1.263,0.515,1.965V58.586z"/>
				<path clip-path="url(#SVGID_28_)" fill="#231F20" d="M142.277,26.583c0-0.374,0.12-0.69,0.363-0.947
					c0.24-0.258,0.564-0.386,0.97-0.386c0.39,0,0.706,0.128,0.948,0.386c0.242,0.257,0.361,0.573,0.361,0.947V57.58
					c0,0.374-0.127,0.69-0.385,0.947c-0.258,0.258-0.565,0.386-0.925,0.386c-0.374,0-0.69-0.128-0.946-0.386
					c-0.258-0.257-0.387-0.573-0.387-0.947V26.583z"/>
				<path clip-path="url(#SVGID_28_)" fill="#231F20" d="M154.656,47.24v-6.574c0-0.359-0.125-0.663-0.375-0.912
					s-0.554-0.375-0.912-0.375c-0.344,0-0.644,0.129-0.9,0.386c-0.257,0.258-0.387,0.558-0.387,0.901v6.574H154.656z M152.082,49.93
					v5.011c0,0.326,0.13,0.625,0.387,0.898c0.257,0.271,0.557,0.407,0.9,0.407c0.358,0,0.662-0.131,0.912-0.394
					s0.375-0.565,0.375-0.906v-0.371c0-0.387,0.131-0.704,0.397-0.952c0.265-0.247,0.577-0.371,0.937-0.371
					c0.373,0,0.686,0.124,0.935,0.373c0.25,0.248,0.375,0.567,0.375,0.955v0.373c0,1.118-0.384,2.058-1.147,2.819
					c-0.764,0.761-1.691,1.141-2.783,1.141c-1.075,0-2-0.386-2.772-1.158s-1.158-1.711-1.158-2.819v-14.27
					c0-1.123,0.384-2.066,1.147-2.831c0.764-0.763,1.691-1.146,2.783-1.146c0.733,0,1.399,0.176,2,0.528
					c0.601,0.351,1.072,0.839,1.416,1.464c0.343,0.625,0.515,1.289,0.515,1.992v9.257H152.082z"/>
				<path clip-path="url(#SVGID_28_)" fill="#231F20" d="M171.676,42.678V57.58c0,0.374-0.129,0.69-0.386,0.947
					c-0.257,0.258-0.565,0.386-0.925,0.386c-0.373,0-0.689-0.128-0.947-0.386c-0.257-0.257-0.387-0.573-0.387-0.947V26.583
					c0-0.374,0.121-0.69,0.363-0.947c0.242-0.258,0.565-0.386,0.971-0.386c0.391,0,0.705,0.128,0.947,0.386
					c0.242,0.257,0.363,0.573,0.363,0.947v13.405h2.573V26.583c0-0.374,0.129-0.69,0.386-0.947c0.258-0.258,0.573-0.386,0.948-0.386
					c0.39,0,0.705,0.128,0.946,0.386c0.242,0.257,0.363,0.573,0.363,0.947V57.58c0,0.374-0.129,0.69-0.386,0.947
					c-0.258,0.258-0.565,0.386-0.924,0.386c-0.343,0-0.652-0.128-0.925-0.386c-0.272-0.257-0.409-0.573-0.409-0.947V42.678H171.676z
					"/>
				<path clip-path="url(#SVGID_28_)" fill="#231F20" d="M180.637,38.023c0-0.343,0.127-0.651,0.385-0.924s0.574-0.409,0.947-0.409
					c0.359,0,0.668,0.136,0.924,0.409c0.258,0.273,0.387,0.581,0.387,0.924V57.58c0,0.375-0.129,0.69-0.387,0.948
					c-0.256,0.257-0.564,0.386-0.924,0.386c-0.373,0-0.689-0.129-0.947-0.386c-0.258-0.258-0.385-0.573-0.385-0.948V38.023z
					 M181.969,28.876c0.452,0,0.838,0.168,1.158,0.503c0.319,0.336,0.48,0.713,0.48,1.135c0,0.436-0.161,0.827-0.48,1.169
					c-0.32,0.343-0.706,0.515-1.158,0.515c-0.451,0-0.842-0.172-1.17-0.515c-0.326-0.342-0.49-0.733-0.49-1.169
					c0-0.437,0.164-0.819,0.49-1.147C181.127,29.04,181.518,28.876,181.969,28.876"/>
				<path clip-path="url(#SVGID_28_)" fill="#231F20" d="M190.836,46.328c1.06,0,1.98,0.39,2.76,1.17
					c0.779,0.78,1.17,1.716,1.17,2.807v4.632c0,1.092-0.392,2.027-1.174,2.807c-0.783,0.78-1.705,1.17-2.769,1.17
					c-1.095,0-2.026-0.389-2.792-1.166c-0.768-0.777-1.15-1.709-1.15-2.797v-1.469c0-0.357,0.127-0.66,0.379-0.909
					c0.25-0.248,0.558-0.373,0.92-0.373c0.394,0,0.717,0.124,0.968,0.372c0.252,0.248,0.378,0.55,0.378,0.907v1.466
					c0,0.341,0.133,0.643,0.398,0.907c0.265,0.263,0.568,0.395,0.912,0.395c0.342,0,0.643-0.136,0.9-0.408
					c0.257-0.272,0.386-0.571,0.386-0.898v-4.617c0-0.357-0.13-0.664-0.389-0.921c-0.259-0.256-0.56-0.385-0.904-0.385
					c-0.735,0-1.405-0.179-2.009-0.539c-0.604-0.359-1.077-0.836-1.422-1.429c-0.344-0.594-0.518-1.251-0.518-1.969v-4.407
					c0-0.703,0.172-1.367,0.518-1.992c0.344-0.625,0.816-1.113,1.419-1.465c0.603-0.351,1.271-0.527,2.006-0.527
					c0.72,0,1.381,0.175,1.983,0.526c0.602,0.351,1.078,0.835,1.43,1.451c0.354,0.616,0.529,1.283,0.529,2v1.497
					c0,0.374-0.129,0.682-0.387,0.924c-0.257,0.242-0.58,0.363-0.971,0.363c-0.357,0-0.663-0.125-0.912-0.375
					c-0.25-0.249-0.374-0.553-0.374-0.912v-1.497c0-0.343-0.129-0.644-0.386-0.901c-0.258-0.257-0.559-0.386-0.9-0.386
					c-0.344,0-0.647,0.125-0.912,0.374c-0.266,0.25-0.398,0.554-0.398,0.913v4.398c0,0.343,0.133,0.64,0.398,0.889
					C190.188,46.203,190.492,46.328,190.836,46.328"/>
				<path clip-path="url(#SVGID_28_)" fill="#231F20" d="M201.597,39.707V57.58c0,0.359-0.14,0.67-0.421,0.936
					c-0.281,0.265-0.586,0.397-0.912,0.397c-0.375,0-0.694-0.125-0.96-0.374c-0.265-0.249-0.397-0.569-0.397-0.959V39.707h-1.053
					c-0.344,0-0.652-0.136-0.924-0.409c-0.273-0.273-0.41-0.581-0.41-0.924c0-0.39,0.129-0.714,0.386-0.971
					c0.259-0.258,0.574-0.386,0.948-0.386h1.053V30.7c0-0.405,0.129-0.728,0.387-0.97c0.256-0.242,0.58-0.363,0.971-0.363
					c0.343,0,0.65,0.129,0.924,0.386c0.271,0.257,0.409,0.573,0.409,0.947v6.317h1.053c0.39,0,0.709,0.125,0.959,0.374
					c0.249,0.25,0.374,0.577,0.374,0.983c0,0.359-0.132,0.67-0.398,0.935c-0.265,0.266-0.576,0.398-0.935,0.398H201.597z"/>
				<path clip-path="url(#SVGID_28_)" fill="#231F20" d="M211.071,40.666c0-0.359-0.125-0.663-0.374-0.912
					c-0.25-0.25-0.555-0.375-0.913-0.375c-0.343,0-0.644,0.129-0.901,0.386c-0.257,0.258-0.386,0.558-0.386,0.901v14.27
					c0,0.328,0.129,0.628,0.386,0.901c0.258,0.273,0.559,0.409,0.901,0.409c0.358,0,0.663-0.132,0.913-0.397
					c0.249-0.266,0.374-0.57,0.374-0.913V40.666z M205.854,40.666c0-1.123,0.383-2.066,1.146-2.831
					c0.766-0.763,1.693-1.146,2.784-1.146c0.733,0,1.399,0.175,2,0.526s1.073,0.839,1.416,1.462
					c0.343,0.624,0.514,1.287,0.514,1.989v14.27c0,1.123-0.382,2.067-1.146,2.831s-1.692,1.146-2.784,1.146
					c-1.076,0-2-0.386-2.772-1.158c-0.771-0.772-1.158-1.711-1.158-2.819V40.666z"/>
				<path clip-path="url(#SVGID_28_)" fill="#231F20" d="M220.102,39.707V57.58c0,0.374-0.129,0.69-0.387,0.947
					c-0.257,0.258-0.564,0.386-0.924,0.386c-0.374,0-0.689-0.128-0.948-0.386c-0.257-0.257-0.386-0.573-0.386-0.947V37.017h4.937
					c0.405,0,0.729,0.128,0.971,0.386c0.241,0.257,0.362,0.581,0.362,0.971c0,0.343-0.129,0.651-0.386,0.924
					s-0.573,0.409-0.947,0.409H220.102z"/>
				<path clip-path="url(#SVGID_28_)" fill="#231F20" d="M225.459,38.023c0-0.343,0.128-0.651,0.386-0.924
					c0.257-0.273,0.573-0.409,0.947-0.409c0.358,0,0.667,0.136,0.924,0.409s0.386,0.581,0.386,0.924V57.58
					c0,0.375-0.129,0.69-0.386,0.948c-0.257,0.257-0.565,0.386-0.924,0.386c-0.374,0-0.69-0.129-0.947-0.386
					c-0.258-0.258-0.386-0.573-0.386-0.948V38.023z M226.792,28.876c0.451,0,0.838,0.168,1.157,0.503
					c0.319,0.336,0.48,0.713,0.48,1.135c0,0.436-0.161,0.827-0.48,1.169c-0.319,0.343-0.706,0.515-1.157,0.515
					c-0.452,0-0.843-0.172-1.171-0.515c-0.326-0.342-0.49-0.733-0.49-1.169c0-0.437,0.164-0.819,0.49-1.147
					C225.949,29.04,226.34,28.876,226.792,28.876"/>
				<path clip-path="url(#SVGID_28_)" fill="#231F20" d="M237.038,47.24v-6.574c0-0.359-0.124-0.663-0.374-0.912
					c-0.249-0.249-0.555-0.375-0.912-0.375c-0.343,0-0.645,0.129-0.901,0.386c-0.257,0.258-0.386,0.558-0.386,0.901v6.574H237.038z
					 M234.465,49.93v5.011c0,0.326,0.129,0.625,0.386,0.898c0.257,0.271,0.559,0.407,0.901,0.407c0.357,0,0.663-0.131,0.912-0.394
					c0.25-0.263,0.374-0.565,0.374-0.906v-0.371c0-0.387,0.133-0.704,0.397-0.952c0.266-0.247,0.577-0.371,0.937-0.371
					c0.374,0,0.686,0.124,0.936,0.373c0.249,0.248,0.374,0.567,0.374,0.955v0.373c0,1.118-0.382,2.058-1.146,2.819
					c-0.766,0.761-1.693,1.141-2.784,1.141c-1.076,0-2.001-0.386-2.772-1.158c-0.772-0.772-1.157-1.711-1.157-2.819v-14.27
					c0-1.123,0.382-2.066,1.146-2.831c0.764-0.763,1.692-1.146,2.784-1.146c0.732,0,1.398,0.176,2,0.528
					c0.6,0.351,1.072,0.839,1.415,1.464s0.515,1.289,0.515,1.992v9.257H234.465z"/>
				<path clip-path="url(#SVGID_28_)" fill="#231F20" d="M145.984,31.737c0.254-0.349,0.58-0.579,0.982-0.637
					c0.25-0.036,0.448-0.015,0.782,0.228c0.363,0.265,0.419,0.442,0.458,0.676c0.07,0.401-0.051,0.781-0.305,1.13l-6.678,9.178
					c-0.254,0.349-0.588,0.569-1.004,0.622c-0.226,0.027-0.434,0.04-0.768-0.204c-0.473-0.343-0.443-0.5-0.471-0.746
					c-0.049-0.441,0.07-0.72,0.324-1.069L145.984,31.737z"/>
			</g>
		</g>
		<g opacity="0.92" clip-path="url(#SVGID_26_)">
			<g>
				<defs>
					<rect id="SVGID_29_" x="100.713" y="72.457" width="149.923" height="34.161"/>
				</defs>
				<clipPath id="SVGID_30_">
					<use xlink:href="#SVGID_29_"  overflow="visible"/>
				</clipPath>
				<g clip-path="url(#SVGID_30_)">
					<path fill="#231F20" d="M114.698,75.49v22.133c0,0.283-0.098,0.521-0.294,0.716c-0.196,0.194-0.425,0.291-0.686,0.291
						c-0.285,0-0.526-0.097-0.722-0.291c-0.196-0.194-0.294-0.433-0.294-0.716V75.49h-2.031c-0.259,0-0.486-0.103-0.68-0.31
						c-0.194-0.206-0.292-0.444-0.292-0.715c0-0.283,0.092-0.521,0.274-0.715s0.416-0.292,0.7-0.292h6.054
						c0.307,0,0.552,0.097,0.735,0.292c0.183,0.194,0.274,0.433,0.274,0.715c0,0.271-0.097,0.51-0.292,0.715
						c-0.194,0.207-0.433,0.31-0.715,0.31H114.698z"/>
					<path fill="#231F20" d="M120.969,91.847v3.784c0,0.247,0.097,0.472,0.292,0.678c0.194,0.205,0.421,0.308,0.68,0.308
						c0.271,0,0.5-0.099,0.689-0.298c0.188-0.199,0.282-0.426,0.282-0.684v-0.28c0-0.292,0.1-0.532,0.3-0.719s0.436-0.28,0.707-0.28
						c0.283,0,0.518,0.094,0.707,0.281c0.188,0.188,0.282,0.428,0.282,0.721v0.282c0,0.845-0.289,1.554-0.865,2.128
						c-0.577,0.575-1.278,0.862-2.102,0.862c-0.813,0-1.51-0.291-2.093-0.874s-0.875-1.292-0.875-2.129V84.852
						c0-0.848,0.289-1.56,0.866-2.137c0.577-0.577,1.277-0.866,2.102-0.866c0.553,0,1.057,0.133,1.51,0.398
						c0.453,0.265,0.81,0.634,1.068,1.106c0.259,0.472,0.389,0.973,0.389,1.504v6.99H120.969z M122.912,89.815v-4.963
						c0-0.271-0.094-0.5-0.282-0.689c-0.188-0.188-0.418-0.283-0.689-0.283c-0.259,0-0.486,0.097-0.68,0.292
						s-0.292,0.421-0.292,0.68v4.963H122.912z"/>
				</g>
				<g clip-path="url(#SVGID_30_)">
					<path fill="#231F20" d="M129.728,84.128v13.495c0,0.283-0.097,0.521-0.292,0.716c-0.194,0.194-0.427,0.291-0.698,0.291
						c-0.283,0-0.521-0.097-0.715-0.291c-0.194-0.194-0.292-0.433-0.292-0.716V82.096h3.727c0.306,0,0.55,0.097,0.733,0.292
						c0.182,0.194,0.273,0.439,0.273,0.733c0,0.259-0.097,0.492-0.292,0.698c-0.194,0.206-0.433,0.309-0.715,0.309H129.728z"/>
					<path fill="#231F20" d="M139.708,98.383h-2.967c-0.825,0-1.525-0.289-2.102-0.866c-0.577-0.577-0.866-1.277-0.866-2.102v-3.656
						c0-0.848,0.289-1.56,0.866-2.137c0.577-0.577,1.277-0.866,2.102-0.866h0.971v-3.692c0-0.247-0.094-0.465-0.282-0.653
						c-0.188-0.188-0.418-0.283-0.689-0.283h-0.725c-0.271,0-0.506-0.106-0.707-0.318c-0.2-0.212-0.3-0.442-0.3-0.689
						c0-0.283,0.094-0.524,0.283-0.725c0.188-0.2,0.43-0.3,0.724-0.3h0.725c0.553,0,1.057,0.133,1.51,0.397
						c0.453,0.265,0.81,0.627,1.068,1.086c0.259,0.459,0.389,0.954,0.389,1.484V98.383z M137.711,96.351v-5.564h-0.971
						c-0.259,0-0.486,0.097-0.68,0.292s-0.292,0.421-0.292,0.68v3.656c0,0.259,0.097,0.48,0.292,0.663s0.421,0.274,0.68,0.274
						H137.711z"/>
				</g>
				<g clip-path="url(#SVGID_30_)">
					<path fill="#231F20" d="M143.325,96.351h3.073c0.283,0,0.521,0.103,0.715,0.309s0.292,0.444,0.292,0.715
						s-0.094,0.506-0.283,0.707s-0.43,0.3-0.724,0.3h-5.14v-0.795c0-3.509,0.783-6.259,2.349-8.249
						c0.483-0.601,0.851-1.275,1.104-2.022c0.253-0.748,0.403-1.811,0.451-3.188h-3.109c-0.259,0-0.486-0.103-0.68-0.309
						s-0.292-0.439-0.292-0.698c0-0.294,0.091-0.539,0.274-0.733s0.415-0.292,0.698-0.292h5.176v1.201
						c0,3.204-0.784,5.818-2.35,7.843c-0.306,0.389-0.565,0.792-0.777,1.21s-0.386,0.939-0.521,1.563
						C143.446,94.538,143.36,95.35,143.325,96.351z"/>
				</g>
				<g clip-path="url(#SVGID_30_)">
					<path fill="#231F20" d="M158.304,75.49v22.133c0,0.283-0.098,0.521-0.294,0.716c-0.196,0.194-0.425,0.291-0.686,0.291
						c-0.285,0-0.526-0.097-0.722-0.291c-0.196-0.194-0.294-0.433-0.294-0.716V75.49h-2.031c-0.259,0-0.486-0.103-0.68-0.31
						c-0.194-0.206-0.292-0.444-0.292-0.715c0-0.283,0.092-0.521,0.274-0.715s0.416-0.292,0.7-0.292h6.054
						c0.307,0,0.552,0.097,0.735,0.292c0.183,0.194,0.274,0.433,0.274,0.715c0,0.271-0.097,0.51-0.292,0.715
						c-0.194,0.207-0.433,0.31-0.715,0.31H158.304z"/>
					<path fill="#231F20" d="M172.454,95.698c0,0.542-0.13,1.037-0.389,1.484c-0.259,0.448-0.616,0.807-1.069,1.078
						c-0.454,0.271-0.957,0.406-1.51,0.406c-0.742,0-1.396-0.242-1.961-0.724c-0.577,0.482-1.236,0.724-1.978,0.724
						c-0.813,0-1.51-0.292-2.093-0.875s-0.875-1.281-0.875-2.093V82.891c0-0.259,0.097-0.491,0.292-0.698
						c0.194-0.206,0.433-0.309,0.715-0.309c0.271,0,0.503,0.104,0.698,0.309c0.194,0.207,0.292,0.439,0.292,0.698v12.807
						c0,0.248,0.097,0.468,0.292,0.663s0.421,0.292,0.68,0.292c0.271,0,0.5-0.094,0.689-0.283c0.188-0.188,0.282-0.412,0.282-0.671
						V82.891c0-0.259,0.103-0.491,0.31-0.698c0.206-0.206,0.438-0.309,0.697-0.309c0.271,0,0.503,0.104,0.698,0.309
						c0.194,0.207,0.292,0.439,0.292,0.698v12.807c0,0.248,0.097,0.468,0.292,0.663s0.421,0.292,0.68,0.292
						c0.259,0,0.486-0.091,0.68-0.274s0.292-0.409,0.292-0.68V82.891c0-0.259,0.103-0.491,0.309-0.698
						c0.206-0.206,0.433-0.309,0.68-0.309c0.271,0,0.506,0.101,0.707,0.3c0.2,0.201,0.3,0.436,0.3,0.707V95.698z"/>
					<path fill="#231F20" d="M175.28,84.852c0-0.848,0.289-1.56,0.866-2.137s1.277-0.866,2.103-0.866
						c0.553,0,1.057,0.132,1.51,0.397s0.81,0.633,1.068,1.104c0.26,0.471,0.389,0.972,0.389,1.501v10.775
						c0,0.848-0.289,1.561-0.865,2.138c-0.577,0.577-1.277,0.865-2.102,0.865c-0.813,0-1.511-0.291-2.094-0.874
						s-0.875-1.292-0.875-2.129V84.852z M179.219,84.852c0-0.271-0.094-0.5-0.282-0.689c-0.188-0.188-0.419-0.283-0.688-0.283
						c-0.26,0-0.486,0.097-0.681,0.292s-0.292,0.421-0.292,0.68v10.775c0,0.248,0.098,0.475,0.292,0.68
						c0.194,0.207,0.421,0.309,0.681,0.309c0.27,0,0.5-0.1,0.688-0.3c0.188-0.2,0.282-0.43,0.282-0.689V84.852z"/>
					<path fill="#231F20" d="M186.037,84.128v13.495c0,0.283-0.098,0.521-0.291,0.716c-0.195,0.194-0.428,0.291-0.698,0.291
						c-0.282,0-0.521-0.097-0.716-0.291c-0.193-0.194-0.291-0.433-0.291-0.716V82.096h3.727c0.307,0,0.551,0.097,0.734,0.292
						c0.182,0.194,0.273,0.439,0.273,0.733c0,0.259-0.098,0.492-0.292,0.698s-0.433,0.309-0.716,0.309H186.037z"/>
					<path fill="#231F20" d="M191.531,96.351h3.072c0.283,0,0.521,0.103,0.716,0.309s0.292,0.444,0.292,0.715
						s-0.095,0.506-0.283,0.707s-0.43,0.3-0.725,0.3h-5.14v-0.795c0-3.509,0.783-6.259,2.349-8.249
						c0.483-0.601,0.852-1.275,1.104-2.022c0.253-0.748,0.403-1.811,0.45-3.188h-3.108c-0.259,0-0.485-0.103-0.681-0.309
						c-0.193-0.206-0.291-0.439-0.291-0.698c0-0.294,0.092-0.539,0.273-0.733c0.184-0.194,0.416-0.292,0.698-0.292h5.176v1.201
						c0,3.204-0.784,5.818-2.35,7.843c-0.306,0.389-0.565,0.792-0.777,1.21s-0.386,0.939-0.521,1.563
						C191.651,94.538,191.566,95.35,191.531,96.351z"/>
				</g>
				<g clip-path="url(#SVGID_30_)">
					<path fill="#231F20" d="M201.576,98.383h-0.971c-0.824,0-1.525-0.289-2.102-0.866c-0.578-0.577-0.866-1.277-0.866-2.102V82.856
						c0-0.259,0.097-0.492,0.292-0.698c0.193-0.206,0.432-0.309,0.715-0.309c0.271,0,0.504,0.103,0.697,0.309
						c0.195,0.206,0.292,0.439,0.292,0.698v12.559c0,0.259,0.097,0.48,0.292,0.663c0.193,0.183,0.42,0.274,0.68,0.274h0.971V82.856
						c0-0.259,0.104-0.492,0.311-0.698c0.205-0.206,0.438-0.309,0.697-0.309c0.271,0,0.503,0.103,0.697,0.309
						s0.291,0.439,0.291,0.698v19.802c0,0.836-0.285,1.54-0.855,2.111c-0.572,0.571-1.275,0.856-2.111,0.856h-0.76
						c-0.307,0-0.554-0.094-0.742-0.283c-0.188-0.188-0.282-0.436-0.282-0.742c0-0.271,0.101-0.506,0.3-0.707
						c0.201-0.2,0.441-0.3,0.725-0.3h0.76c0.271,0,0.5-0.094,0.689-0.283c0.188-0.188,0.281-0.406,0.281-0.653V98.383z"/>
				</g>
				<g clip-path="url(#SVGID_30_)">
					<path fill="#231F20" d="M209.289,89.127c0.801,0,1.496,0.294,2.085,0.883c0.589,0.589,0.884,1.296,0.884,2.12v3.497
						c0,0.825-0.296,1.531-0.887,2.12c-0.59,0.589-1.287,0.883-2.09,0.883c-0.828,0-1.53-0.293-2.109-0.88
						c-0.578-0.587-0.867-1.291-0.867-2.112v-1.109c0-0.27,0.095-0.499,0.285-0.687c0.189-0.188,0.422-0.282,0.694-0.282
						c0.298,0,0.541,0.094,0.731,0.281c0.189,0.188,0.285,0.416,0.285,0.685v1.106c0,0.258,0.1,0.486,0.3,0.685
						c0.2,0.199,0.43,0.298,0.688,0.298c0.26,0,0.486-0.103,0.681-0.308c0.194-0.206,0.292-0.432,0.292-0.678v-3.486
						c0-0.27-0.098-0.501-0.293-0.695s-0.424-0.291-0.684-0.291c-0.556,0-1.062-0.136-1.518-0.407
						c-0.455-0.271-0.813-0.631-1.073-1.08s-0.39-0.944-0.39-1.486v-3.327c0-0.531,0.129-1.033,0.389-1.504
						c0.26-0.472,0.617-0.841,1.072-1.106c0.455-0.266,0.96-0.398,1.516-0.398c0.543,0,1.041,0.132,1.496,0.397
						s0.815,0.63,1.081,1.095s0.399,0.969,0.399,1.51v1.13c0,0.283-0.098,0.516-0.292,0.698c-0.194,0.183-0.438,0.274-0.733,0.274
						c-0.271,0-0.5-0.094-0.688-0.283c-0.188-0.188-0.282-0.418-0.282-0.689v-1.13c0-0.259-0.098-0.486-0.292-0.68
						s-0.421-0.292-0.681-0.292c-0.259,0-0.488,0.095-0.688,0.283c-0.2,0.188-0.3,0.418-0.3,0.689v3.321
						c0,0.259,0.1,0.483,0.3,0.671S209.03,89.127,209.289,89.127z"/>
					<path fill="#231F20" d="M216.443,96.351h3.074c0.282,0,0.521,0.103,0.715,0.309s0.291,0.444,0.291,0.715
						s-0.094,0.506-0.282,0.707s-0.43,0.3-0.724,0.3h-5.141v-0.795c0-3.509,0.783-6.259,2.35-8.249
						c0.482-0.601,0.85-1.275,1.104-2.022c0.254-0.748,0.403-1.811,0.451-3.188h-3.109c-0.26,0-0.486-0.103-0.68-0.309
						c-0.195-0.206-0.292-0.439-0.292-0.698c0-0.294,0.091-0.539,0.274-0.733c0.182-0.194,0.414-0.292,0.697-0.292h5.176v1.201
						c0,3.204-0.783,5.818-2.35,7.843c-0.307,0.389-0.565,0.792-0.777,1.21s-0.386,0.939-0.521,1.563
						C216.564,94.538,216.479,95.35,216.443,96.351z"/>
				</g>
				<g clip-path="url(#SVGID_30_)">
					<path fill="#231F20" d="M231.427,75.49v22.133c0,0.283-0.098,0.521-0.294,0.716c-0.196,0.194-0.425,0.291-0.686,0.291
						c-0.286,0-0.526-0.097-0.723-0.291c-0.195-0.194-0.294-0.433-0.294-0.716V75.49h-2.031c-0.259,0-0.485-0.103-0.68-0.31
						c-0.194-0.206-0.292-0.444-0.292-0.715c0-0.283,0.092-0.521,0.274-0.715s0.416-0.292,0.699-0.292h6.055
						c0.307,0,0.552,0.097,0.734,0.292s0.274,0.433,0.274,0.715c0,0.271-0.097,0.51-0.291,0.715c-0.194,0.207-0.433,0.31-0.716,0.31
						H231.427z"/>
				</g>
				<g clip-path="url(#SVGID_30_)">
					<path fill="#231F20" d="M239.645,98.383h-0.972c-0.824,0-1.525-0.289-2.103-0.866c-0.577-0.577-0.865-1.277-0.865-2.102V82.856
						c0-0.259,0.098-0.492,0.292-0.698c0.193-0.206,0.433-0.309,0.715-0.309c0.271,0,0.504,0.103,0.698,0.309
						s0.291,0.439,0.291,0.698v12.559c0,0.259,0.097,0.48,0.291,0.663s0.421,0.274,0.681,0.274h0.972V82.856
						c0-0.259,0.103-0.492,0.309-0.698s0.438-0.309,0.698-0.309c0.271,0,0.503,0.103,0.697,0.309s0.292,0.439,0.292,0.698v19.802
						c0,0.836-0.286,1.54-0.857,2.111c-0.571,0.571-1.274,0.856-2.11,0.856h-0.76c-0.307,0-0.554-0.094-0.742-0.283
						s-0.282-0.436-0.282-0.742c0-0.271,0.1-0.506,0.3-0.707s0.442-0.3,0.725-0.3h0.76c0.271,0,0.5-0.094,0.688-0.283
						s0.283-0.406,0.283-0.653V98.383z"/>
				</g>
			</g>
		</g>
		<g opacity="0.92" clip-path="url(#SVGID_26_)">
			<g>
				<defs>
					<rect id="SVGID_31_" x="57.92" y="-0.083" width="242.538" height="160.169"/>
				</defs>
				<clipPath id="SVGID_32_">
					<use xlink:href="#SVGID_31_"  overflow="visible"/>
				</clipPath>
				
					<path clip-path="url(#SVGID_32_)" fill="none" stroke="#231F20" stroke-width="2" stroke-linecap="round" stroke-linejoin="round" stroke-dasharray="0,4.111" d="
					M251.31,97.657c9.673,0.04,21.939,0.118,26.724,0.065"/>
				
					<path clip-path="url(#SVGID_32_)" fill="none" stroke="#231F20" stroke-width="2" stroke-linecap="round" stroke-linejoin="round" stroke-dasharray="0,3.962" d="
					M280.317,93.693c0.738-12.801,0.651-53.578-37.618-75.581"/>
				
					<path clip-path="url(#SVGID_32_)" fill="none" stroke="#231F20" stroke-width="2" stroke-linecap="round" stroke-linejoin="round" stroke-dasharray="0,4.036" d="
					M237.382,15.296C195.576-5.132,119.557-5.133,90.043,36.277"/>
				
					<path clip-path="url(#SVGID_32_)" fill="none" stroke="#231F20" stroke-width="2" stroke-linecap="round" stroke-linejoin="round" stroke-dasharray="0,3.927" d="
					M86.795,41.254c-23.268,38.538-4.332,74.325,11.602,77.381"/>
				
					<path clip-path="url(#SVGID_32_)" fill="none" stroke="#231F20" stroke-width="2" stroke-linecap="round" stroke-linejoin="round" stroke-dasharray="0,3.978" d="
					M104.324,118.889c25.957,0.184,135.933-0.325,153.153-0.198"/>
				
					<path clip-path="url(#SVGID_32_)" fill="none" stroke="#231F20" stroke-width="2" stroke-linecap="round" stroke-linejoin="round" stroke-dasharray="0,3.937" d="
					M263.396,118.955c30.488,2.747,16.358,25.062,11.852,31.201"/>
				
					<path clip-path="url(#SVGID_32_)" fill="none" stroke="#231F20" stroke-width="2" stroke-linecap="round" stroke-linejoin="round" d="
					M274.045,151.714L274.045,151.714 M259.466,118.719L259.466,118.719 M100.347,118.844L100.347,118.844 M88.897,37.939
					L88.897,37.939 M240.97,17.145L240.97,17.145 M280.067,97.643L280.067,97.643 M247.198,97.643L247.198,97.643"/>
				
					<line clip-path="url(#SVGID_32_)" fill="none" stroke="#231F20" stroke-width="2" stroke-linecap="round" stroke-linejoin="round" stroke-dasharray="0,4.396" x1="270.011" y1="149.354" x2="268.762" y2="155.829"/>
				
					<path clip-path="url(#SVGID_32_)" fill="none" stroke="#231F20" stroke-width="2" stroke-linecap="round" stroke-linejoin="round" d="
					M268.347,157.987L268.347,157.987 M270.844,145.038L270.844,145.038"/>
				
					<line clip-path="url(#SVGID_32_)" fill="none" stroke="#231F20" stroke-width="2" stroke-linecap="round" stroke-linejoin="round" stroke-dasharray="0,4.442" x1="272.617" y1="156.641" x2="279.045" y2="154.883"/>
				
					<path clip-path="url(#SVGID_32_)" fill="none" stroke="#231F20" stroke-width="2" stroke-linecap="round" stroke-linejoin="round" d="
					M281.186,154.296L281.186,154.296 M268.333,157.814L268.333,157.814"/>
			</g>
		</g>
	</g>
</g>
</svg>
