<?xml version="1.0" encoding="utf-8"?>
<!-- Generator: Adobe Illustrator 15.0.2, SVG Export Plug-In . SVG Version: 6.00 Build 0)  -->
<!DOCTYPE svg PUBLIC "-//W3C//DTD SVG 1.1//EN" "http://www.w3.org/Graphics/SVG/1.1/DTD/svg11.dtd">
<svg version="1.1" id="Warstwa_1" xmlns="http://www.w3.org/2000/svg" xmlns:xlink="http://www.w3.org/1999/xlink" x="0px" y="0px"
	 width="350px" height="540px" viewBox="0 0 350 540" enable-background="new 0 0 350 540" xml:space="preserve">
<g>
	<defs>
		<rect id="SVGID_1_" x="-183.183" y="1.917" width="505.195" height="496.264"/>
	</defs>
	<clipPath id="SVGID_2_">
		<use xlink:href="#SVGID_1_"  overflow="visible"/>
	</clipPath>
	<g clip-path="url(#SVGID_2_)">
		<defs>
			<rect id="SVGID_3_" x="-183.183" y="1.917" width="505.195" height="496.264"/>
		</defs>
		<clipPath id="SVGID_4_">
			<use xlink:href="#SVGID_3_"  overflow="visible"/>
		</clipPath>
		<g opacity="0.92" clip-path="url(#SVGID_4_)">
			<g>
				<defs>
					<rect id="SVGID_5_" x="72.302" y="157.694" width="22.102" height="321.805"/>
				</defs>
				<clipPath id="SVGID_6_">
					<use xlink:href="#SVGID_5_"  overflow="visible"/>
				</clipPath>
				
					<line clip-path="url(#SVGID_6_)" fill="none" stroke="#231F20" stroke-width="2" stroke-linecap="round" stroke-linejoin="round" stroke-dasharray="0,4.012" x1="81.566" y1="163.237" x2="85.161" y2="475.805"/>
				
					<path clip-path="url(#SVGID_6_)" fill="none" stroke="#231F20" stroke-width="2" stroke-linecap="round" stroke-linejoin="round" d="
					M85.182,477.654L85.182,477.654 M81.522,159.538L81.522,159.538"/>
			</g>
		</g>
		<g opacity="0.92" clip-path="url(#SVGID_4_)">
			<g>
				<defs>
					<rect id="SVGID_7_" x="71.778" y="481.822" width="179.985" height="5.519"/>
				</defs>
				<clipPath id="SVGID_8_">
					<use xlink:href="#SVGID_7_"  overflow="visible"/>
				</clipPath>
				
					<line clip-path="url(#SVGID_8_)" fill="none" stroke="#231F20" stroke-width="2" stroke-linecap="round" stroke-linejoin="round" stroke-dasharray="0,3.982" x1="84.671" y1="485.455" x2="240.707" y2="483.688"/>
				
					<path clip-path="url(#SVGID_8_)" fill="none" stroke="#231F20" stroke-width="2" stroke-linecap="round" stroke-linejoin="round" d="
					M242.542,483.667L242.542,483.667 M81,485.496L81,485.496"/>
			</g>
		</g>
		<g opacity="0.92" clip-path="url(#SVGID_4_)">
			<g>
				<defs>
					<rect id="SVGID_9_" x="227.569" y="157.432" width="21.318" height="322.067"/>
				</defs>
				<clipPath id="SVGID_10_">
					<use xlink:href="#SVGID_9_"  overflow="visible"/>
				</clipPath>
				
					<line clip-path="url(#SVGID_10_)" fill="none" stroke="#231F20" stroke-width="2" stroke-linecap="round" stroke-linejoin="round" stroke-dasharray="0,4.015" x1="236.825" y1="473.954" x2="239.65" y2="161.127"/>
				
					<path clip-path="url(#SVGID_10_)" fill="none" stroke="#231F20" stroke-width="2" stroke-linecap="round" stroke-linejoin="round" d="
					M239.666,159.276L239.666,159.276 M236.791,477.654L236.791,477.654"/>
			</g>
		</g>
		<g opacity="0.92" clip-path="url(#SVGID_4_)">
			<g>
				<defs>
					<rect id="SVGID_11_" x="67.466" y="149.067" width="184.036" height="3.95"/>
				</defs>
				<clipPath id="SVGID_12_">
					<use xlink:href="#SVGID_11_"  overflow="visible"/>
				</clipPath>
				
					<line clip-path="url(#SVGID_12_)" fill="none" stroke="#231F20" stroke-width="2" stroke-linecap="round" stroke-linejoin="round" stroke-dasharray="0,3.991" x1="80.367" y1="150.917" x2="240.441" y2="151.171"/>
				
					<path clip-path="url(#SVGID_12_)" fill="none" stroke="#231F20" stroke-width="2" stroke-linecap="round" stroke-linejoin="round" d="
					M242.281,151.173L242.281,151.173 M76.687,150.912L76.687,150.912"/>
			</g>
		</g>
		<g opacity="0.92" clip-path="url(#SVGID_4_)">
			<g>
				<defs>
					<rect id="SVGID_13_" x="234.104" y="137.958" width="95.555" height="22.117"/>
				</defs>
				<clipPath id="SVGID_14_">
					<use xlink:href="#SVGID_13_"  overflow="visible"/>
				</clipPath>
				
					<line clip-path="url(#SVGID_14_)" fill="none" stroke="#231F20" stroke-width="2" stroke-linecap="round" stroke-linejoin="round" stroke-dasharray="0,4.094" x1="246.998" y1="157.353" x2="318.602" y2="140.241"/>
				
					<path clip-path="url(#SVGID_14_)" fill="none" stroke="#231F20" stroke-width="2" stroke-linecap="round" stroke-linejoin="round" d="
					M320.438,139.802L320.438,139.802 M243.326,158.23L243.326,158.23"/>
			</g>
		</g>
		<g opacity="0.92" clip-path="url(#SVGID_4_)">
			<g>
				<defs>
					<rect id="SVGID_15_" x="301.414" y="141.879" width="28.898" height="350.691"/>
				</defs>
				<clipPath id="SVGID_16_">
					<use xlink:href="#SVGID_15_"  overflow="visible"/>
				</clipPath>
				
					<line clip-path="url(#SVGID_16_)" fill="none" stroke="#231F20" stroke-width="2" stroke-linecap="round" stroke-linejoin="round" stroke-dasharray="0,4.005" x1="320.979" y1="147.415" x2="310.69" y2="488.879"/>
				
					<path clip-path="url(#SVGID_16_)" fill="none" stroke="#231F20" stroke-width="2" stroke-linecap="round" stroke-linejoin="round" d="
					M310.635,490.725L310.635,490.725 M321.091,143.723L321.091,143.723"/>
			</g>
		</g>
		<g opacity="0.92" clip-path="url(#SVGID_4_)">
			<g>
				<defs>
					<rect id="SVGID_17_" x="231.49" y="477.118" width="87.713" height="18.85"/>
				</defs>
				<clipPath id="SVGID_18_">
					<use xlink:href="#SVGID_17_"  overflow="visible"/>
				</clipPath>
				
					<line clip-path="url(#SVGID_18_)" fill="none" stroke="#231F20" stroke-width="2" stroke-linecap="round" stroke-linejoin="round" stroke-dasharray="0,4.047" x1="306.336" y1="493.325" x2="242.534" y2="479.36"/>
				
					<path clip-path="url(#SVGID_18_)" fill="none" stroke="#231F20" stroke-width="2" stroke-linecap="round" stroke-linejoin="round" d="
					M240.713,478.962L240.713,478.962 M309.981,494.124L309.981,494.124"/>
			</g>
		</g>
		<g opacity="0.92" clip-path="url(#SVGID_4_)">
			<g>
				<defs>
					<rect id="SVGID_19_" x="-5.855" y="141.879" width="92.94" height="18.718"/>
				</defs>
				<clipPath id="SVGID_20_">
					<use xlink:href="#SVGID_19_"  overflow="visible"/>
				</clipPath>
				
					<line clip-path="url(#SVGID_20_)" fill="none" stroke="#231F20" stroke-width="2" stroke-linecap="round" stroke-linejoin="round" stroke-dasharray="0,3.925" x1="74.316" y1="158.038" x2="5.14" y2="144.082"/>
				
					<path clip-path="url(#SVGID_20_)" fill="none" stroke="#231F20" stroke-width="2" stroke-linecap="round" stroke-linejoin="round" d="
					M3.367,143.723L3.367,143.723 M77.863,158.753L77.863,158.753"/>
			</g>
		</g>
		<g opacity="0.92" clip-path="url(#SVGID_4_)">
			<g>
				<defs>
					<rect id="SVGID_21_" x="-5.855" y="146.454" width="30.336" height="349.514"/>
				</defs>
				<clipPath id="SVGID_22_">
					<use xlink:href="#SVGID_21_"  overflow="visible"/>
				</clipPath>
				
					<line clip-path="url(#SVGID_22_)" fill="none" stroke="#231F20" stroke-width="2" stroke-linecap="round" stroke-linejoin="round" stroke-dasharray="0,3.992" x1="3.493" y1="151.977" x2="15.196" y2="492.283"/>
				
					<path clip-path="url(#SVGID_22_)" fill="none" stroke="#231F20" stroke-width="2" stroke-linecap="round" stroke-linejoin="round" d="
					M15.26,494.124L15.26,494.124 M3.366,148.298L3.366,148.298"/>
			</g>
		</g>
		<g opacity="0.92" clip-path="url(#SVGID_4_)">
			<g>
				<defs>
					<rect id="SVGID_23_" x="6.691" y="479.077" width="87.713" height="20.026"/>
				</defs>
				<clipPath id="SVGID_24_">
					<use xlink:href="#SVGID_23_"  overflow="visible"/>
				</clipPath>
				
					<line clip-path="url(#SVGID_24_)" fill="none" stroke="#231F20" stroke-width="2" stroke-linecap="round" stroke-linejoin="round" stroke-dasharray="0,4.062" x1="19.559" y1="496.4" x2="83.359" y2="481.352"/>
				
					<path clip-path="url(#SVGID_24_)" fill="none" stroke="#231F20" stroke-width="2" stroke-linecap="round" stroke-linejoin="round" d="
					M85.182,480.922L85.182,480.922 M15.913,497.26L15.913,497.26"/>
			</g>
		</g>
	</g>
	
		<line clip-path="url(#SVGID_2_)" fill="none" stroke="#231F20" stroke-width="2" stroke-linecap="round" stroke-linejoin="round" stroke-dasharray="0,4.422" x1="76.648" y1="155.233" x2="76.564" y2="153.196"/>
	
		<path clip-path="url(#SVGID_2_)" fill="none" stroke="#231F20" stroke-width="2" stroke-linecap="round" stroke-linejoin="round" d="
		M76.649,155.233L76.649,155.233 M76.479,151.158L76.479,151.158"/>
	
		<line clip-path="url(#SVGID_2_)" fill="none" stroke="#231F20" stroke-width="2" stroke-linecap="round" stroke-linejoin="round" stroke-dasharray="0,4.422" x1="242.11" y1="155.109" x2="242.027" y2="153.072"/>
	
		<path clip-path="url(#SVGID_2_)" fill="none" stroke="#231F20" stroke-width="2" stroke-linecap="round" stroke-linejoin="round" d="
		M242.111,155.11L242.111,155.11 M241.942,151.034L241.942,151.034"/>
	<g clip-path="url(#SVGID_2_)">
		<defs>
			<rect id="SVGID_25_" x="-183.183" y="1.917" width="505.195" height="496.264"/>
		</defs>
		<clipPath id="SVGID_26_">
			<use xlink:href="#SVGID_25_"  overflow="visible"/>
		</clipPath>
		<g opacity="0.92" clip-path="url(#SVGID_26_)">
			<g>
				<defs>
					<rect id="SVGID_27_" x="87.311" y="23.434" width="149.571" height="32.886"/>
				</defs>
				<clipPath id="SVGID_28_">
					<use xlink:href="#SVGID_27_"  overflow="visible"/>
				</clipPath>
				<path clip-path="url(#SVGID_28_)" fill="#231F20" d="M109.027,25.24c0.691-0.589,1.489-0.884,2.395-0.884
					c1.007,0,1.862,0.353,2.567,1.056c0.703,0.705,1.057,1.575,1.057,2.611v26.146c0,0.359-0.123,0.655-0.367,0.884
					s-0.533,0.346-0.864,0.346c-0.301,0-0.578-0.119-0.83-0.355c-0.251-0.238-0.378-0.53-0.378-0.875V28.023
					c0-0.359-0.118-0.651-0.356-0.875c-0.237-0.222-0.515-0.333-0.83-0.333c-0.316,0-0.594,0.118-0.83,0.355
					c-0.238,0.237-0.357,0.521-0.357,0.852v26.146c0,0.345-0.119,0.636-0.355,0.875c-0.237,0.236-0.521,0.355-0.852,0.355
					c-0.316,0-0.601-0.119-0.852-0.355c-0.252-0.238-0.377-0.53-0.377-0.875V28.023c0-0.346-0.116-0.632-0.346-0.863
					c-0.229-0.229-0.509-0.344-0.841-0.344c-0.316,0-0.592,0.118-0.83,0.355c-0.238,0.237-0.356,0.521-0.356,0.852v26.146
					c0,0.345-0.118,0.636-0.356,0.875c-0.237,0.236-0.521,0.355-0.852,0.355c-0.345,0-0.637-0.119-0.874-0.355
					c-0.238-0.238-0.356-0.53-0.356-0.875V28.023c0-1.022,0.356-1.887,1.068-2.599c0.711-0.712,1.563-1.068,2.556-1.068
					C107.517,24.356,108.322,24.651,109.027,25.24"/>
				<path clip-path="url(#SVGID_28_)" fill="#231F20" d="M123.287,52.615v-6.794H122.1c-0.316,0-0.594,0.118-0.83,0.355
					c-0.238,0.237-0.357,0.514-0.357,0.83v4.466c0,0.316,0.119,0.585,0.357,0.809c0.235,0.223,0.514,0.334,0.83,0.334H123.287z
					 M125.724,55.096H122.1c-1.006,0-1.862-0.353-2.567-1.056c-0.704-0.705-1.056-1.561-1.056-2.568v-4.466
					c0-1.035,0.353-1.905,1.056-2.609c0.706-0.705,1.561-1.058,2.567-1.058h1.187v-4.508c0-0.302-0.116-0.568-0.345-0.799
					c-0.229-0.23-0.511-0.345-0.841-0.345h-0.884c-0.331,0-0.619-0.128-0.863-0.388c-0.246-0.259-0.367-0.54-0.367-0.841
					c0-0.345,0.115-0.64,0.345-0.884c0.23-0.245,0.525-0.367,0.885-0.367h0.884c0.676,0,1.29,0.162,1.845,0.485
					c0.553,0.323,0.989,0.766,1.305,1.327c0.316,0.561,0.475,1.165,0.475,1.813V55.096z"/>
				<path clip-path="url(#SVGID_28_)" fill="#231F20" d="M131.385,25.585c0-0.345,0.111-0.636,0.335-0.873
					c0.222-0.238,0.521-0.356,0.895-0.356c0.359,0,0.651,0.118,0.875,0.356c0.223,0.237,0.333,0.528,0.333,0.873v28.584
					c0,0.345-0.117,0.636-0.355,0.873c-0.238,0.238-0.521,0.356-0.853,0.356c-0.345,0-0.637-0.118-0.873-0.356
					c-0.237-0.237-0.356-0.528-0.356-0.873V25.585z"/>
				<path clip-path="url(#SVGID_28_)" fill="#231F20" d="M142.8,44.634v-6.062c0-0.331-0.115-0.611-0.346-0.841
					c-0.23-0.229-0.511-0.345-0.841-0.345c-0.317,0-0.594,0.118-0.831,0.356c-0.236,0.237-0.356,0.514-0.356,0.831v6.062H142.8z
					 M140.426,47.115v4.62c0,0.301,0.12,0.577,0.356,0.828c0.237,0.25,0.514,0.375,0.831,0.375c0.33,0,0.61-0.12,0.841-0.363
					c0.231-0.242,0.346-0.521,0.346-0.835v-0.342c0-0.357,0.121-0.649,0.367-0.878c0.244-0.228,0.532-0.342,0.864-0.342
					c0.344,0,0.632,0.114,0.862,0.344c0.23,0.229,0.345,0.523,0.345,0.881v0.344c0,1.031-0.354,1.898-1.058,2.599
					c-0.705,0.702-1.56,1.052-2.566,1.052c-0.992,0-1.845-0.356-2.557-1.068c-0.712-0.712-1.068-1.578-1.068-2.599V38.572
					c0-1.036,0.354-1.905,1.059-2.611c0.704-0.703,1.559-1.057,2.566-1.057c0.676,0,1.291,0.163,1.844,0.487
					c0.554,0.324,0.989,0.774,1.306,1.35c0.316,0.576,0.474,1.188,0.474,1.837v8.537H140.426z"/>
				<path clip-path="url(#SVGID_28_)" fill="#231F20" d="M158.494,40.427v13.742c0,0.345-0.119,0.636-0.355,0.873
					c-0.237,0.238-0.521,0.356-0.853,0.356c-0.344,0-0.636-0.118-0.874-0.356c-0.237-0.237-0.356-0.528-0.356-0.873V25.585
					c0-0.345,0.112-0.636,0.335-0.874c0.223-0.237,0.521-0.355,0.895-0.355c0.36,0,0.65,0.118,0.873,0.355
					c0.223,0.238,0.335,0.529,0.335,0.874v12.361h2.373V25.585c0-0.345,0.119-0.636,0.356-0.874
					c0.237-0.237,0.529-0.355,0.874-0.355c0.359,0,0.65,0.118,0.873,0.355c0.223,0.238,0.335,0.529,0.335,0.874v28.584
					c0,0.345-0.119,0.636-0.356,0.873c-0.237,0.238-0.521,0.356-0.852,0.356c-0.316,0-0.602-0.118-0.853-0.356
					c-0.251-0.237-0.377-0.528-0.377-0.873V40.427H158.494z"/>
				<path clip-path="url(#SVGID_28_)" fill="#231F20" d="M166.758,36.134c0-0.316,0.117-0.6,0.354-0.852
					c0.238-0.252,0.53-0.377,0.874-0.377c0.332,0,0.616,0.125,0.852,0.377c0.238,0.251,0.356,0.536,0.356,0.852v18.035
					c0,0.346-0.119,0.636-0.356,0.875c-0.236,0.236-0.521,0.355-0.852,0.355c-0.344,0-0.636-0.119-0.874-0.355
					c-0.237-0.238-0.354-0.529-0.354-0.875V36.134z M167.986,27.699c0.417,0,0.773,0.155,1.068,0.464
					c0.295,0.31,0.443,0.658,0.443,1.047c0,0.402-0.148,0.763-0.443,1.078c-0.295,0.316-0.651,0.475-1.068,0.475
					c-0.416,0-0.776-0.159-1.079-0.475c-0.301-0.315-0.452-0.676-0.452-1.078c0-0.403,0.151-0.755,0.452-1.058
					C167.21,27.85,167.57,27.699,167.986,27.699"/>
				<path clip-path="url(#SVGID_28_)" fill="#231F20" d="M176.162,43.792c0.977,0,1.827,0.359,2.546,1.079
					c0.718,0.719,1.079,1.583,1.079,2.589v4.271c0,1.006-0.361,1.869-1.083,2.588s-1.572,1.079-2.553,1.079
					c-1.01,0-1.869-0.359-2.576-1.075c-0.707-0.717-1.06-1.576-1.06-2.58v-1.354c0-0.329,0.117-0.608,0.349-0.838
					c0.231-0.229,0.515-0.344,0.848-0.344c0.364,0,0.662,0.114,0.893,0.343c0.232,0.229,0.349,0.507,0.349,0.836v1.352
					c0,0.314,0.123,0.593,0.367,0.837c0.245,0.242,0.524,0.364,0.841,0.364c0.315,0,0.593-0.125,0.83-0.376
					c0.237-0.25,0.356-0.526,0.356-0.828v-4.258c0-0.329-0.12-0.612-0.358-0.849c-0.238-0.236-0.516-0.355-0.833-0.355
					c-0.679,0-1.296-0.166-1.854-0.497c-0.557-0.331-0.993-0.771-1.311-1.318c-0.318-0.547-0.478-1.153-0.478-1.815v-4.064
					c0-0.649,0.158-1.261,0.478-1.837c0.316-0.576,0.752-1.026,1.308-1.351c0.556-0.324,1.172-0.486,1.85-0.486
					c0.663,0,1.273,0.161,1.829,0.485c0.555,0.324,0.994,0.77,1.317,1.338c0.327,0.567,0.489,1.183,0.489,1.844v1.381
					c0,0.345-0.12,0.628-0.357,0.852c-0.236,0.223-0.535,0.334-0.895,0.334c-0.33,0-0.611-0.115-0.842-0.345
					c-0.23-0.229-0.345-0.51-0.345-0.841v-1.381c0-0.316-0.119-0.594-0.356-0.83c-0.237-0.238-0.515-0.356-0.83-0.356
					c-0.316,0-0.596,0.115-0.841,0.345c-0.245,0.231-0.367,0.511-0.367,0.842v4.056c0,0.316,0.123,0.59,0.367,0.82
					C175.566,43.677,175.846,43.792,176.162,43.792"/>
				<path clip-path="url(#SVGID_28_)" fill="#231F20" d="M186.086,37.687v16.481c0,0.331-0.129,0.618-0.389,0.863
					c-0.26,0.244-0.54,0.366-0.841,0.366c-0.346,0-0.641-0.115-0.886-0.345c-0.243-0.229-0.366-0.525-0.366-0.884V37.687h-0.971
					c-0.316,0-0.602-0.126-0.852-0.377c-0.252-0.251-0.379-0.536-0.379-0.852c0-0.36,0.12-0.658,0.355-0.896
					c0.239-0.237,0.53-0.355,0.875-0.355h0.971v-5.826c0-0.374,0.119-0.671,0.357-0.895c0.235-0.223,0.534-0.334,0.895-0.334
					c0.315,0,0.6,0.119,0.852,0.355c0.25,0.237,0.378,0.529,0.378,0.873v5.826h0.971c0.359,0,0.654,0.115,0.885,0.345
					c0.229,0.23,0.344,0.532,0.344,0.906c0,0.331-0.121,0.618-0.367,0.862c-0.243,0.246-0.531,0.367-0.861,0.367H186.086z"/>
				<path clip-path="url(#SVGID_28_)" fill="#231F20" d="M194.822,38.572c0-0.331-0.115-0.611-0.345-0.841
					c-0.23-0.23-0.512-0.345-0.842-0.345c-0.316,0-0.593,0.119-0.831,0.356c-0.237,0.237-0.356,0.514-0.356,0.831v13.159
					c0,0.302,0.119,0.579,0.356,0.83c0.238,0.252,0.515,0.377,0.831,0.377c0.33,0,0.611-0.121,0.842-0.366
					c0.229-0.246,0.345-0.525,0.345-0.842V38.572z M190.011,38.572c0-1.036,0.354-1.905,1.058-2.611
					c0.706-0.703,1.562-1.057,2.567-1.057c0.677,0,1.29,0.162,1.845,0.485c0.554,0.324,0.989,0.773,1.306,1.348
					c0.315,0.575,0.474,1.187,0.474,1.834v13.159c0,1.035-0.352,1.906-1.057,2.61c-0.704,0.705-1.561,1.057-2.567,1.057
					c-0.992,0-1.844-0.355-2.557-1.067c-0.711-0.712-1.068-1.578-1.068-2.6V38.572z"/>
				<path clip-path="url(#SVGID_28_)" fill="#231F20" d="M203.149,37.687v16.481c0,0.345-0.119,0.636-0.355,0.873
					c-0.237,0.238-0.521,0.356-0.853,0.356c-0.346,0-0.636-0.118-0.874-0.356c-0.237-0.237-0.356-0.528-0.356-0.873V35.207h4.553
					c0.374,0,0.672,0.118,0.895,0.355s0.334,0.536,0.334,0.896c0,0.316-0.118,0.601-0.355,0.852
					c-0.236,0.251-0.528,0.377-0.873,0.377H203.149z"/>
				<path clip-path="url(#SVGID_28_)" fill="#231F20" d="M208.09,36.134c0-0.316,0.118-0.6,0.356-0.852
					c0.237-0.252,0.528-0.377,0.873-0.377c0.331,0,0.615,0.125,0.852,0.377c0.237,0.251,0.355,0.536,0.355,0.852v18.035
					c0,0.346-0.118,0.636-0.355,0.875c-0.236,0.236-0.521,0.355-0.852,0.355c-0.345,0-0.636-0.119-0.873-0.355
					c-0.238-0.238-0.356-0.529-0.356-0.875V36.134z M209.319,27.699c0.416,0,0.772,0.155,1.067,0.464
					c0.294,0.31,0.442,0.658,0.442,1.047c0,0.402-0.148,0.763-0.442,1.078c-0.295,0.316-0.651,0.475-1.067,0.475
					c-0.417,0-0.777-0.159-1.08-0.475c-0.301-0.315-0.452-0.676-0.452-1.078c0-0.403,0.151-0.755,0.452-1.058
					C208.542,27.85,208.902,27.699,209.319,27.699"/>
				<path clip-path="url(#SVGID_28_)" fill="#231F20" d="M218.768,44.634v-6.062c0-0.331-0.114-0.611-0.345-0.841
					c-0.229-0.229-0.511-0.345-0.842-0.345c-0.315,0-0.594,0.118-0.831,0.356c-0.236,0.237-0.355,0.514-0.355,0.831v6.062H218.768z
					 M216.395,47.115v4.62c0,0.301,0.119,0.577,0.355,0.828c0.237,0.25,0.516,0.375,0.831,0.375c0.331,0,0.612-0.12,0.842-0.363
					c0.23-0.242,0.345-0.521,0.345-0.835v-0.342c0-0.357,0.122-0.649,0.367-0.878c0.244-0.228,0.532-0.342,0.863-0.342
					c0.345,0,0.632,0.114,0.862,0.344c0.23,0.229,0.346,0.523,0.346,0.881v0.344c0,1.031-0.353,1.898-1.057,2.599
					c-0.706,0.702-1.563,1.052-2.568,1.052c-0.991,0-1.845-0.356-2.557-1.068s-1.066-1.578-1.066-2.599V38.572
					c0-1.036,0.353-1.905,1.057-2.611c0.704-0.703,1.561-1.057,2.566-1.057c0.676,0,1.29,0.163,1.845,0.487
					c0.553,0.324,0.989,0.774,1.305,1.35c0.316,0.576,0.476,1.188,0.476,1.837v8.537H216.395z"/>
				<path clip-path="url(#SVGID_28_)" fill="#231F20" d="M134.803,30.337c0.234-0.321,0.535-0.534,0.906-0.587
					c0.23-0.033,0.413-0.014,0.721,0.21c0.335,0.244,0.386,0.408,0.422,0.624c0.064,0.37-0.047,0.72-0.281,1.042l-6.158,8.463
					c-0.234,0.322-0.542,0.524-0.926,0.574c-0.208,0.025-0.399,0.037-0.708-0.188c-0.436-0.316-0.409-0.461-0.434-0.688
					c-0.044-0.406,0.065-0.664,0.299-0.985L134.803,30.337z"/>
			</g>
		</g>
		<g opacity="0.92" clip-path="url(#SVGID_26_)">
			<g>
				<defs>
					<rect id="SVGID_29_" x="93.057" y="67.887" width="138.25" height="31.501"/>
				</defs>
				<clipPath id="SVGID_30_">
					<use xlink:href="#SVGID_29_"  overflow="visible"/>
				</clipPath>
				<g clip-path="url(#SVGID_30_)">
					<path fill="#231F20" d="M105.953,70.684v20.41c0,0.261-0.09,0.481-0.271,0.66c-0.181,0.179-0.392,0.269-0.632,0.269
						c-0.263,0-0.486-0.089-0.667-0.269c-0.18-0.179-0.271-0.399-0.271-0.66v-20.41h-1.873c-0.239,0-0.448-0.095-0.627-0.286
						c-0.18-0.189-0.269-0.41-0.269-0.66c0-0.261,0.085-0.48,0.253-0.66c0.168-0.179,0.384-0.269,0.645-0.269h5.583
						c0.283,0,0.508,0.09,0.677,0.269c0.168,0.18,0.253,0.399,0.253,0.66c0,0.25-0.089,0.47-0.269,0.66
						c-0.179,0.191-0.399,0.286-0.66,0.286H105.953z"/>
					<path fill="#231F20" d="M111.736,85.767v3.489c0,0.228,0.089,0.436,0.269,0.625c0.179,0.189,0.388,0.284,0.627,0.284
						c0.25,0,0.461-0.091,0.635-0.274c0.173-0.184,0.26-0.393,0.26-0.63v-0.258c0-0.27,0.093-0.491,0.277-0.663
						c0.185-0.172,0.401-0.258,0.652-0.258c0.26,0,0.477,0.086,0.652,0.259c0.173,0.173,0.26,0.395,0.26,0.665v0.26
						c0,0.779-0.266,1.433-0.797,1.962c-0.532,0.53-1.178,0.795-1.938,0.795c-0.75,0-1.393-0.269-1.93-0.806
						c-0.538-0.538-0.807-1.192-0.807-1.963v-9.936c0-0.783,0.266-1.439,0.799-1.971c0.531-0.533,1.178-0.799,1.938-0.799
						c0.51,0,0.974,0.123,1.393,0.368c0.418,0.245,0.747,0.584,0.985,1.02c0.24,0.435,0.358,0.897,0.358,1.387v6.446H111.736z
						 M113.527,83.893v-4.576c0-0.25-0.087-0.462-0.26-0.636c-0.174-0.173-0.386-0.261-0.635-0.261c-0.239,0-0.448,0.09-0.627,0.269
						c-0.18,0.179-0.269,0.388-0.269,0.627v4.576H113.527z"/>
				</g>
				<g clip-path="url(#SVGID_30_)">
					<path fill="#231F20" d="M119.812,78.649v12.444c0,0.261-0.089,0.481-0.269,0.66c-0.179,0.179-0.394,0.269-0.644,0.269
						c-0.261,0-0.48-0.089-0.66-0.269c-0.179-0.179-0.269-0.399-0.269-0.66V76.776h3.437c0.282,0,0.507,0.089,0.676,0.269
						c0.168,0.179,0.252,0.404,0.252,0.676c0,0.238-0.09,0.453-0.269,0.643c-0.178,0.19-0.399,0.285-0.66,0.285H119.812z"/>
					<path fill="#231F20" d="M129.015,91.794h-2.736c-0.76,0-1.407-0.267-1.938-0.798c-0.532-0.532-0.798-1.178-0.798-1.938v-3.372
						c0-0.782,0.266-1.438,0.798-1.971c0.532-0.533,1.178-0.798,1.938-0.798h0.896v-3.405c0-0.228-0.087-0.428-0.26-0.603
						c-0.174-0.173-0.386-0.26-0.636-0.26h-0.668c-0.25,0-0.467-0.098-0.652-0.293c-0.184-0.196-0.276-0.408-0.276-0.635
						c0-0.261,0.086-0.484,0.26-0.668c0.174-0.184,0.396-0.277,0.668-0.277h0.668c0.51,0,0.974,0.123,1.393,0.367
						c0.418,0.244,0.747,0.579,0.985,1.001c0.239,0.423,0.358,0.88,0.358,1.368V91.794z M127.175,89.921V84.79h-0.896
						c-0.239,0-0.448,0.09-0.627,0.269c-0.18,0.18-0.269,0.389-0.269,0.627v3.372c0,0.239,0.089,0.442,0.269,0.611
						c0.179,0.168,0.388,0.252,0.627,0.252H127.175z"/>
				</g>
				<g clip-path="url(#SVGID_30_)">
					<path fill="#231F20" d="M132.352,89.921h2.834c0.26,0,0.48,0.095,0.659,0.285c0.179,0.19,0.269,0.41,0.269,0.66
						c0,0.25-0.087,0.467-0.261,0.651c-0.174,0.185-0.396,0.277-0.667,0.277h-4.741v-0.733c0-3.236,0.723-5.771,2.167-7.606
						c0.445-0.554,0.785-1.175,1.018-1.865c0.234-0.69,0.372-1.67,0.416-2.94h-2.867c-0.239,0-0.448-0.095-0.627-0.285
						c-0.18-0.19-0.269-0.405-0.269-0.643c0-0.272,0.084-0.498,0.253-0.676c0.168-0.18,0.382-0.269,0.643-0.269h4.773v1.107
						c0,2.954-0.723,5.365-2.167,7.232c-0.282,0.358-0.521,0.73-0.717,1.116c-0.195,0.385-0.356,0.866-0.48,1.441
						S132.384,88.998,132.352,89.921z"/>
				</g>
				<g clip-path="url(#SVGID_30_)">
					<path fill="#231F20" d="M146.164,70.684v20.41c0,0.261-0.091,0.481-0.271,0.66c-0.181,0.179-0.392,0.269-0.632,0.269
						c-0.263,0-0.485-0.089-0.666-0.269c-0.181-0.179-0.271-0.399-0.271-0.66v-20.41h-1.873c-0.239,0-0.448-0.095-0.627-0.286
						c-0.18-0.189-0.269-0.41-0.269-0.66c0-0.261,0.084-0.48,0.253-0.66c0.168-0.179,0.384-0.269,0.646-0.269h5.583
						c0.283,0,0.509,0.09,0.678,0.269c0.168,0.18,0.253,0.399,0.253,0.66c0,0.25-0.09,0.47-0.269,0.66
						c-0.18,0.191-0.4,0.286-0.66,0.286H146.164z"/>
					<path fill="#231F20" d="M159.211,89.318c0,0.5-0.119,0.956-0.358,1.368c-0.239,0.413-0.567,0.744-0.985,0.994
						c-0.418,0.25-0.882,0.375-1.393,0.375c-0.684,0-1.287-0.223-1.808-0.667c-0.532,0.445-1.141,0.667-1.824,0.667
						c-0.75,0-1.393-0.268-1.93-0.806c-0.538-0.538-0.807-1.181-0.807-1.93v-11.81c0-0.238,0.089-0.453,0.269-0.644
						c0.179-0.189,0.398-0.285,0.659-0.285c0.25,0,0.465,0.096,0.644,0.285c0.179,0.19,0.269,0.405,0.269,0.644v11.81
						c0,0.228,0.089,0.432,0.269,0.611c0.18,0.179,0.388,0.269,0.627,0.269c0.25,0,0.461-0.087,0.635-0.261
						c0.173-0.174,0.26-0.38,0.26-0.619v-11.81c0-0.238,0.095-0.453,0.286-0.644c0.189-0.189,0.404-0.285,0.643-0.285
						c0.25,0,0.464,0.096,0.643,0.285c0.179,0.19,0.269,0.405,0.269,0.644v11.81c0,0.228,0.089,0.432,0.269,0.611
						c0.179,0.179,0.388,0.269,0.627,0.269c0.238,0,0.448-0.084,0.627-0.252c0.179-0.168,0.268-0.377,0.268-0.627v-11.81
						c0-0.238,0.095-0.453,0.285-0.644c0.19-0.189,0.399-0.285,0.627-0.285c0.249,0,0.467,0.093,0.651,0.277
						c0.184,0.185,0.277,0.402,0.277,0.651V89.318z"/>
					<path fill="#231F20" d="M161.818,79.317c0-0.783,0.266-1.439,0.798-1.971c0.532-0.533,1.178-0.799,1.938-0.799
						c0.51,0,0.975,0.122,1.393,0.367s0.746,0.583,0.985,1.018c0.239,0.435,0.358,0.896,0.358,1.385v9.936
						c0,0.782-0.266,1.438-0.798,1.971c-0.532,0.532-1.178,0.797-1.938,0.797c-0.749,0-1.393-0.269-1.931-0.806
						c-0.538-0.538-0.806-1.192-0.806-1.963V79.317z M165.45,79.317c0-0.25-0.086-0.462-0.261-0.636
						c-0.173-0.173-0.386-0.261-0.635-0.261c-0.239,0-0.448,0.09-0.627,0.269c-0.179,0.179-0.269,0.388-0.269,0.627v9.936
						c0,0.228,0.09,0.437,0.269,0.627c0.179,0.19,0.388,0.285,0.627,0.285c0.249,0,0.461-0.092,0.635-0.276
						c0.174-0.184,0.261-0.396,0.261-0.635V79.317z"/>
					<path fill="#231F20" d="M171.737,78.649v12.444c0,0.261-0.089,0.481-0.268,0.66c-0.179,0.179-0.394,0.269-0.644,0.269
						c-0.26,0-0.479-0.089-0.66-0.269c-0.178-0.179-0.269-0.399-0.269-0.66V76.776h3.437c0.283,0,0.508,0.089,0.678,0.269
						c0.167,0.179,0.252,0.404,0.252,0.676c0,0.238-0.091,0.453-0.27,0.643c-0.18,0.19-0.399,0.285-0.661,0.285H171.737z"/>
					<path fill="#231F20" d="M176.805,89.921h2.832c0.261,0,0.481,0.095,0.66,0.285c0.18,0.19,0.269,0.41,0.269,0.66
						c0,0.25-0.087,0.467-0.261,0.651c-0.173,0.185-0.396,0.277-0.668,0.277h-4.74v-0.733c0-3.236,0.723-5.771,2.166-7.606
						c0.446-0.554,0.785-1.175,1.02-1.865c0.233-0.69,0.371-1.67,0.414-2.94h-2.865c-0.239,0-0.448-0.095-0.627-0.285
						c-0.179-0.19-0.269-0.405-0.269-0.643c0-0.272,0.084-0.498,0.251-0.676c0.169-0.18,0.385-0.269,0.645-0.269h4.773v1.107
						c0,2.954-0.724,5.365-2.168,7.232c-0.281,0.358-0.521,0.73-0.717,1.116c-0.195,0.385-0.355,0.866-0.479,1.441
						C176.914,88.249,176.836,88.998,176.805,89.921z"/>
				</g>
				<g clip-path="url(#SVGID_30_)">
					<path fill="#231F20" d="M186.067,91.794h-0.896c-0.759,0-1.406-0.267-1.938-0.798c-0.533-0.532-0.799-1.178-0.799-1.938V77.476
						c0-0.239,0.09-0.454,0.27-0.644c0.178-0.19,0.398-0.285,0.659-0.285c0.251,0,0.465,0.095,0.643,0.285
						c0.181,0.19,0.27,0.404,0.27,0.644v11.581c0,0.239,0.09,0.442,0.27,0.611c0.178,0.168,0.388,0.252,0.626,0.252h0.896V77.476
						c0-0.239,0.095-0.454,0.286-0.644c0.188-0.19,0.403-0.285,0.643-0.285c0.249,0,0.464,0.095,0.644,0.285
						c0.179,0.19,0.269,0.404,0.269,0.644v18.26c0,0.771-0.264,1.419-0.789,1.946c-0.527,0.527-1.177,0.79-1.948,0.79h-0.7
						c-0.282,0-0.51-0.087-0.685-0.261c-0.172-0.174-0.26-0.402-0.26-0.684c0-0.25,0.093-0.467,0.276-0.651
						c0.186-0.185,0.407-0.277,0.668-0.277h0.7c0.25,0,0.462-0.087,0.636-0.261s0.261-0.375,0.261-0.603V91.794z"/>
				</g>
				<g clip-path="url(#SVGID_30_)">
					<path fill="#231F20" d="M193.18,83.259c0.737,0,1.379,0.272,1.923,0.814c0.542,0.543,0.814,1.195,0.814,1.955v3.225
						c0,0.76-0.273,1.412-0.817,1.955c-0.545,0.543-1.188,0.814-1.928,0.814c-0.764,0-1.411-0.27-1.945-0.812
						c-0.533-0.541-0.8-1.19-0.8-1.948V88.24c0-0.25,0.088-0.46,0.263-0.634c0.176-0.172,0.39-0.26,0.641-0.26
						c0.275,0,0.499,0.087,0.675,0.259c0.175,0.173,0.263,0.384,0.263,0.632v1.02c0,0.238,0.093,0.448,0.276,0.632
						c0.185,0.184,0.396,0.275,0.636,0.275s0.448-0.094,0.627-0.284s0.27-0.398,0.27-0.625v-3.214c0-0.25-0.091-0.462-0.271-0.642
						c-0.18-0.178-0.391-0.268-0.63-0.268c-0.513,0-0.979-0.125-1.4-0.375c-0.418-0.25-0.749-0.582-0.988-0.996
						c-0.241-0.413-0.36-0.87-0.36-1.37v-3.068c0-0.49,0.119-0.952,0.359-1.387c0.238-0.436,0.569-0.775,0.988-1.02
						c0.419-0.245,0.886-0.368,1.397-0.368c0.501,0,0.961,0.122,1.38,0.367s0.752,0.581,0.997,1.01
						c0.244,0.429,0.368,0.894,0.368,1.393v1.042c0,0.261-0.091,0.476-0.27,0.644c-0.179,0.168-0.404,0.252-0.677,0.252
						c-0.25,0-0.461-0.087-0.635-0.261c-0.173-0.173-0.26-0.385-0.26-0.635v-1.042c0-0.239-0.091-0.449-0.27-0.627
						c-0.179-0.179-0.388-0.269-0.627-0.269s-0.451,0.088-0.636,0.261c-0.184,0.174-0.276,0.386-0.276,0.636v3.062
						c0,0.239,0.093,0.445,0.276,0.619C192.729,83.172,192.94,83.259,193.18,83.259z"/>
					<path fill="#231F20" d="M199.776,89.921h2.835c0.26,0,0.48,0.095,0.659,0.285c0.179,0.19,0.269,0.41,0.269,0.66
						c0,0.25-0.087,0.467-0.26,0.651c-0.175,0.185-0.397,0.277-0.668,0.277h-4.74v-0.733c0-3.236,0.723-5.771,2.166-7.606
						c0.445-0.554,0.784-1.175,1.019-1.865s0.371-1.67,0.416-2.94h-2.868c-0.238,0-0.448-0.095-0.626-0.285
						c-0.181-0.19-0.27-0.405-0.27-0.643c0-0.272,0.084-0.498,0.253-0.676c0.168-0.18,0.382-0.269,0.643-0.269h4.773v1.107
						c0,2.954-0.723,5.365-2.167,7.232c-0.283,0.358-0.521,0.73-0.717,1.116c-0.195,0.385-0.356,0.866-0.48,1.441
						C199.888,88.249,199.809,88.998,199.776,89.921z"/>
				</g>
				<g clip-path="url(#SVGID_30_)">
					<path fill="#231F20" d="M213.594,70.684v20.41c0,0.261-0.091,0.481-0.271,0.66c-0.181,0.179-0.392,0.269-0.632,0.269
						c-0.264,0-0.485-0.089-0.667-0.269c-0.18-0.179-0.271-0.399-0.271-0.66v-20.41h-1.873c-0.239,0-0.447-0.095-0.628-0.286
						c-0.179-0.189-0.268-0.41-0.268-0.66c0-0.261,0.083-0.48,0.252-0.66c0.168-0.179,0.384-0.269,0.646-0.269h5.583
						c0.282,0,0.509,0.09,0.678,0.269c0.167,0.18,0.252,0.399,0.252,0.66c0,0.25-0.089,0.47-0.269,0.66
						c-0.179,0.191-0.398,0.286-0.659,0.286H213.594z"/>
				</g>
				<g clip-path="url(#SVGID_30_)">
					<path fill="#231F20" d="M221.172,91.794h-0.897c-0.759,0-1.406-0.267-1.938-0.798s-0.798-1.178-0.798-1.938V77.476
						c0-0.239,0.091-0.454,0.27-0.644s0.399-0.285,0.659-0.285c0.25,0,0.465,0.095,0.645,0.285c0.179,0.19,0.268,0.404,0.268,0.644
						v11.581c0,0.239,0.09,0.442,0.269,0.611c0.179,0.168,0.389,0.252,0.627,0.252h0.897V77.476c0-0.239,0.094-0.454,0.284-0.644
						c0.189-0.19,0.404-0.285,0.644-0.285c0.249,0,0.464,0.095,0.644,0.285c0.179,0.19,0.269,0.404,0.269,0.644v18.26
						c0,0.771-0.264,1.419-0.79,1.946s-1.176,0.79-1.947,0.79h-0.7c-0.282,0-0.51-0.087-0.685-0.261
						c-0.173-0.174-0.26-0.402-0.26-0.684c0-0.25,0.092-0.467,0.276-0.651s0.408-0.277,0.668-0.277h0.7
						c0.25,0,0.462-0.087,0.636-0.261s0.262-0.375,0.262-0.603V91.794z"/>
				</g>
			</g>
		</g>
		<g opacity="0.92" clip-path="url(#SVGID_26_)">
			<g>
				<defs>
					<rect id="SVGID_31_" x="53.596" y="0.995" width="223.654" height="147.699"/>
				</defs>
				<clipPath id="SVGID_32_">
					<use xlink:href="#SVGID_31_"  overflow="visible"/>
				</clipPath>
				
					<path clip-path="url(#SVGID_32_)" fill="none" stroke="#231F20" stroke-width="2" stroke-linecap="round" stroke-linejoin="round" stroke-dasharray="0,4.111" d="
					M231.929,91.126c8.919,0.037,20.23,0.109,24.643,0.06"/>
				
					<path clip-path="url(#SVGID_32_)" fill="none" stroke="#231F20" stroke-width="2" stroke-linecap="round" stroke-linejoin="round" stroke-dasharray="0,3.962" d="
					M258.678,87.469c0.68-11.804,0.601-49.407-34.69-69.697"/>
				
					<path clip-path="url(#SVGID_32_)" fill="none" stroke="#231F20" stroke-width="2" stroke-linecap="round" stroke-linejoin="round" stroke-dasharray="0,4.036" d="
					M219.085,15.176C180.533-3.661,110.433-3.661,83.217,34.524"/>
				
					<path clip-path="url(#SVGID_32_)" fill="none" stroke="#231F20" stroke-width="2" stroke-linecap="round" stroke-linejoin="round" stroke-dasharray="0,3.927" d="
					M80.223,39.114c-21.457,35.538-3.995,68.539,10.698,71.356"/>
				
					<path clip-path="url(#SVGID_32_)" fill="none" stroke="#231F20" stroke-width="2" stroke-linecap="round" stroke-linejoin="round" stroke-dasharray="0,3.978" d="
					M96.387,110.704c23.936,0.17,125.35-0.3,141.229-0.183"/>
				
					<path clip-path="url(#SVGID_32_)" fill="none" stroke="#231F20" stroke-width="2" stroke-linecap="round" stroke-linejoin="round" stroke-dasharray="0,3.937" d="
					M243.073,110.764c28.114,2.533,15.084,23.111,10.929,28.771"/>
				
					<path clip-path="url(#SVGID_32_)" fill="none" stroke="#231F20" stroke-width="2" stroke-linecap="round" stroke-linejoin="round" d="
					M252.894,140.973L252.894,140.973 M239.449,110.548L239.449,110.548 M92.719,110.662L92.719,110.662 M82.161,36.056
					L82.161,36.056 M222.394,16.881L222.394,16.881 M258.447,91.112L258.447,91.112 M228.137,91.112L228.137,91.112"/>
				
					<line clip-path="url(#SVGID_32_)" fill="none" stroke="#231F20" stroke-width="2" stroke-linecap="round" stroke-linejoin="round" stroke-dasharray="0,4.396" x1="249.173" y1="138.798" x2="248.021" y2="144.768"/>
				
					<path clip-path="url(#SVGID_32_)" fill="none" stroke="#231F20" stroke-width="2" stroke-linecap="round" stroke-linejoin="round" d="
					M247.639,146.758L247.639,146.758 M249.94,134.818L249.94,134.818"/>
				
					<line clip-path="url(#SVGID_32_)" fill="none" stroke="#231F20" stroke-width="2" stroke-linecap="round" stroke-linejoin="round" stroke-dasharray="0,4.442" x1="251.577" y1="145.517" x2="257.504" y2="143.895"/>
				
					<path clip-path="url(#SVGID_32_)" fill="none" stroke="#231F20" stroke-width="2" stroke-linecap="round" stroke-linejoin="round" d="
					M259.478,143.355L259.478,143.355 M247.626,146.599L247.626,146.599"/>
			</g>
		</g>
	</g>
</g>
</svg>
