<?xml version="1.0" encoding="utf-8"?>
<!-- Generator: Adobe Illustrator 15.0.2, SVG Export Plug-In . SVG Version: 6.00 Build 0)  -->
<!DOCTYPE svg PUBLIC "-//W3C//DTD SVG 1.1//EN" "http://www.w3.org/Graphics/SVG/1.1/DTD/svg11.dtd">
<svg version="1.1" id="Warstwa_1" xmlns="http://www.w3.org/2000/svg" xmlns:xlink="http://www.w3.org/1999/xlink" x="0px" y="0px"
	 width="350px" height="540px" viewBox="0 0 350 540" enable-background="new 0 0 350 540" xml:space="preserve">
<g>
	<defs>
		<rect id="SVGID_1_" x="-199.094" y="0.917" width="547.85" height="538.165"/>
	</defs>
	<clipPath id="SVGID_2_">
		<use xlink:href="#SVGID_1_"  overflow="visible"/>
	</clipPath>
	<g clip-path="url(#SVGID_2_)">
		<defs>
			<rect id="SVGID_3_" x="-199.094" y="0.917" width="547.85" height="538.165"/>
		</defs>
		<clipPath id="SVGID_4_">
			<use xlink:href="#SVGID_3_"  overflow="visible"/>
		</clipPath>
		<g opacity="0.92" clip-path="url(#SVGID_4_)">
			<g>
				<defs>
					<rect id="SVGID_5_" x="77.961" y="169.846" width="23.97" height="348.977"/>
				</defs>
				<clipPath id="SVGID_6_">
					<use xlink:href="#SVGID_5_"  overflow="visible"/>
				</clipPath>
				
					<line clip-path="url(#SVGID_6_)" fill="none" stroke="#010101" stroke-width="2" stroke-linecap="round" stroke-linejoin="round" stroke-dasharray="0,4.012" x1="88.008" y1="175.857" x2="91.906" y2="514.816"/>
				
					<path clip-path="url(#SVGID_6_)" fill="none" stroke="#010101" stroke-width="2" stroke-linecap="round" stroke-linejoin="round" d="
					M91.931,516.822L91.931,516.822 M87.961,171.846L87.961,171.846"/>
			</g>
		</g>
		<g opacity="0.92" clip-path="url(#SVGID_4_)">
			<g>
				<defs>
					<rect id="SVGID_7_" x="77.395" y="521.342" width="195.181" height="5.984"/>
				</defs>
				<clipPath id="SVGID_8_">
					<use xlink:href="#SVGID_7_"  overflow="visible"/>
				</clipPath>
				
					<line clip-path="url(#SVGID_8_)" fill="none" stroke="#010101" stroke-width="2" stroke-linecap="round" stroke-linejoin="round" stroke-dasharray="0,3.982" x1="91.376" y1="525.281" x2="260.585" y2="523.363"/>
				
					<path clip-path="url(#SVGID_8_)" fill="none" stroke="#010101" stroke-width="2" stroke-linecap="round" stroke-linejoin="round" d="
					M262.575,523.342L262.575,523.342 M87.395,525.326L87.395,525.326"/>
			</g>
		</g>
		<g opacity="0.92" clip-path="url(#SVGID_4_)">
			<g>
				<defs>
					<rect id="SVGID_9_" x="246.339" y="169.563" width="23.118" height="349.26"/>
				</defs>
				<clipPath id="SVGID_10_">
					<use xlink:href="#SVGID_9_"  overflow="visible"/>
				</clipPath>
				
					<line clip-path="url(#SVGID_10_)" fill="none" stroke="#010101" stroke-width="2" stroke-linecap="round" stroke-linejoin="round" stroke-dasharray="0,4.015" x1="256.376" y1="512.807" x2="259.439" y2="173.569"/>
				
					<path clip-path="url(#SVGID_10_)" fill="none" stroke="#010101" stroke-width="2" stroke-linecap="round" stroke-linejoin="round" d="
					M259.457,171.563L259.457,171.563 M256.339,516.822L256.339,516.822"/>
			</g>
		</g>
		<g opacity="0.92" clip-path="url(#SVGID_4_)">
			<g>
				<defs>
					<rect id="SVGID_11_" x="72.717" y="160.491" width="199.575" height="4.284"/>
				</defs>
				<clipPath id="SVGID_12_">
					<use xlink:href="#SVGID_11_"  overflow="visible"/>
				</clipPath>
				
					<line clip-path="url(#SVGID_12_)" fill="none" stroke="#010101" stroke-width="2" stroke-linecap="round" stroke-linejoin="round" stroke-dasharray="0,3.991" x1="86.708" y1="162.498" x2="260.297" y2="162.771"/>
				
					<path clip-path="url(#SVGID_12_)" fill="none" stroke="#010101" stroke-width="2" stroke-linecap="round" stroke-linejoin="round" d="
					M262.292,162.774L262.292,162.774 M82.717,162.491L82.717,162.491"/>
			</g>
		</g>
		<g opacity="0.92" clip-path="url(#SVGID_4_)">
			<g>
				<defs>
					<rect id="SVGID_13_" x="253.426" y="148.443" width="103.622" height="23.984"/>
				</defs>
				<clipPath id="SVGID_14_">
					<use xlink:href="#SVGID_13_"  overflow="visible"/>
				</clipPath>
				
					<line clip-path="url(#SVGID_14_)" fill="none" stroke="#010101" stroke-width="2" stroke-linecap="round" stroke-linejoin="round" stroke-dasharray="0,4.094" x1="267.408" y1="169.477" x2="345.057" y2="150.92"/>
				
					<path clip-path="url(#SVGID_14_)" fill="none" stroke="#010101" stroke-width="2" stroke-linecap="round" stroke-linejoin="round" d="
					M347.048,150.444L347.048,150.444 M263.426,170.428L263.426,170.428"/>
			</g>
		</g>
		<g opacity="0.92" clip-path="url(#SVGID_4_)">
			<g>
				<defs>
					<rect id="SVGID_15_" x="326.418" y="152.696" width="31.338" height="380.298"/>
				</defs>
				<clipPath id="SVGID_16_">
					<use xlink:href="#SVGID_15_"  overflow="visible"/>
				</clipPath>
				
					<line clip-path="url(#SVGID_16_)" fill="none" stroke="#010101" stroke-width="2" stroke-linecap="round" stroke-linejoin="round" stroke-dasharray="0,4.005" x1="347.636" y1="158.699" x2="336.478" y2="528.992"/>
				
					<path clip-path="url(#SVGID_16_)" fill="none" stroke="#010101" stroke-width="2" stroke-linecap="round" stroke-linejoin="round" d="
					M336.418,530.994L336.418,530.994 M347.757,154.696L347.757,154.696"/>
			</g>
		</g>
		<g opacity="0.92" clip-path="url(#SVGID_4_)">
			<g>
				<defs>
					<rect id="SVGID_17_" x="250.591" y="516.238" width="95.118" height="20.441"/>
				</defs>
				<clipPath id="SVGID_18_">
					<use xlink:href="#SVGID_17_"  overflow="visible"/>
				</clipPath>
				
					<line clip-path="url(#SVGID_18_)" fill="none" stroke="#010101" stroke-width="2" stroke-linecap="round" stroke-linejoin="round" stroke-dasharray="0,4.047" x1="331.756" y1="533.814" x2="262.567" y2="518.672"/>
				
					<path clip-path="url(#SVGID_18_)" fill="none" stroke="#010101" stroke-width="2" stroke-linecap="round" stroke-linejoin="round" d="
					M260.592,518.238L260.592,518.238 M335.709,534.68L335.709,534.68"/>
			</g>
		</g>
		<g opacity="0.92" clip-path="url(#SVGID_4_)">
			<g>
				<defs>
					<rect id="SVGID_19_" x="-6.795" y="152.696" width="100.788" height="20.299"/>
				</defs>
				<clipPath id="SVGID_20_">
					<use xlink:href="#SVGID_19_"  overflow="visible"/>
				</clipPath>
				
					<line clip-path="url(#SVGID_20_)" fill="none" stroke="#010101" stroke-width="2" stroke-linecap="round" stroke-linejoin="round" stroke-dasharray="0,3.925" x1="80.146" y1="170.219" x2="5.129" y2="155.084"/>
				
					<path clip-path="url(#SVGID_20_)" fill="none" stroke="#010101" stroke-width="2" stroke-linecap="round" stroke-linejoin="round" d="
					M3.206,154.696L3.206,154.696 M83.993,170.996L83.993,170.996"/>
			</g>
		</g>
		<g opacity="0.92" clip-path="url(#SVGID_4_)">
			<g>
				<defs>
					<rect id="SVGID_21_" x="-6.795" y="157.657" width="32.898" height="379.022"/>
				</defs>
				<clipPath id="SVGID_22_">
					<use xlink:href="#SVGID_21_"  overflow="visible"/>
				</clipPath>
				
					<line clip-path="url(#SVGID_22_)" fill="none" stroke="#010101" stroke-width="2" stroke-linecap="round" stroke-linejoin="round" stroke-dasharray="0,3.992" x1="3.343" y1="163.646" x2="16.034" y2="532.686"/>
				
					<path clip-path="url(#SVGID_22_)" fill="none" stroke="#010101" stroke-width="2" stroke-linecap="round" stroke-linejoin="round" d="
					M16.104,534.68L16.104,534.68 M3.205,159.656L3.205,159.656"/>
			</g>
		</g>
		<g opacity="0.92" clip-path="url(#SVGID_4_)">
			<g>
				<defs>
					<rect id="SVGID_23_" x="6.812" y="518.365" width="95.119" height="21.717"/>
				</defs>
				<clipPath id="SVGID_24_">
					<use xlink:href="#SVGID_23_"  overflow="visible"/>
				</clipPath>
				
					<line clip-path="url(#SVGID_24_)" fill="none" stroke="#010101" stroke-width="2" stroke-linecap="round" stroke-linejoin="round" stroke-dasharray="0,4.062" x1="20.766" y1="537.148" x2="89.953" y2="520.83"/>
				
					<path clip-path="url(#SVGID_24_)" fill="none" stroke="#010101" stroke-width="2" stroke-linecap="round" stroke-linejoin="round" d="
					M91.93,520.365L91.93,520.365 M16.812,538.082L16.812,538.082"/>
			</g>
		</g>
	</g>
	
		<line clip-path="url(#SVGID_2_)" fill="none" stroke="#010101" stroke-width="2" stroke-linecap="round" stroke-linejoin="round" stroke-dasharray="0,4.422" x1="82.675" y1="167.178" x2="82.584" y2="164.969"/>
	
		<path clip-path="url(#SVGID_2_)" fill="none" stroke="#010101" stroke-width="2" stroke-linecap="round" stroke-linejoin="round" d="
		M82.675,167.178L82.675,167.178 M82.492,162.759L82.492,162.759"/>
	
		<line clip-path="url(#SVGID_2_)" fill="none" stroke="#010101" stroke-width="2" stroke-linecap="round" stroke-linejoin="round" stroke-dasharray="0,4.422" x1="262.107" y1="167.043" x2="262.017" y2="164.834"/>
	
		<path clip-path="url(#SVGID_2_)" fill="none" stroke="#010101" stroke-width="2" stroke-linecap="round" stroke-linejoin="round" d="
		M262.108,167.044L262.108,167.044 M261.925,162.625L261.925,162.625"/>
	<g clip-path="url(#SVGID_2_)">
		<defs>
			<rect id="SVGID_25_" x="-199.094" y="0.917" width="547.85" height="538.165"/>
		</defs>
		<clipPath id="SVGID_26_">
			<use xlink:href="#SVGID_25_"  overflow="visible"/>
		</clipPath>
		<g opacity="0.92" clip-path="url(#SVGID_26_)">
			<g>
				<defs>
					<rect id="SVGID_27_" x="94.237" y="24.25" width="162.2" height="35.663"/>
				</defs>
				<clipPath id="SVGID_28_">
					<use xlink:href="#SVGID_27_"  overflow="visible"/>
				</clipPath>
				<path clip-path="url(#SVGID_28_)" fill="#010101" d="M117.788,26.209c0.749-0.639,1.614-0.959,2.597-0.959
					c1.091,0,2.02,0.382,2.784,1.146c0.763,0.764,1.146,1.708,1.146,2.831V57.58c0,0.39-0.134,0.71-0.398,0.959
					s-0.577,0.375-0.936,0.375c-0.327,0-0.628-0.129-0.9-0.386c-0.273-0.258-0.41-0.574-0.41-0.948V29.227
					c0-0.39-0.128-0.706-0.386-0.948c-0.257-0.241-0.559-0.362-0.9-0.362c-0.343,0-0.644,0.128-0.9,0.386
					c-0.258,0.257-0.387,0.565-0.387,0.924V57.58c0,0.374-0.129,0.69-0.386,0.948c-0.257,0.257-0.564,0.386-0.924,0.386
					c-0.343,0-0.651-0.129-0.924-0.386c-0.273-0.258-0.409-0.574-0.409-0.948V29.227c0-0.375-0.126-0.686-0.375-0.936
					c-0.249-0.249-0.553-0.374-0.912-0.374c-0.343,0-0.643,0.128-0.901,0.386c-0.257,0.257-0.386,0.565-0.386,0.924V57.58
					c0,0.374-0.128,0.69-0.386,0.948c-0.257,0.257-0.565,0.386-0.924,0.386c-0.374,0-0.69-0.129-0.947-0.386
					c-0.258-0.258-0.386-0.574-0.386-0.948V29.227c0-1.108,0.386-2.047,1.158-2.819c0.771-0.772,1.695-1.158,2.771-1.158
					C116.15,25.25,117.024,25.57,117.788,26.209"/>
				<path clip-path="url(#SVGID_28_)" fill="#010101" d="M133.251,55.896v-7.369h-1.286c-0.343,0-0.644,0.128-0.901,0.386
					c-0.257,0.257-0.386,0.558-0.386,0.9v4.843c0,0.343,0.129,0.635,0.386,0.877c0.258,0.242,0.559,0.363,0.901,0.363H133.251z
					 M135.895,58.586h-3.93c-1.092,0-2.02-0.382-2.784-1.146c-0.764-0.764-1.146-1.692-1.146-2.784v-4.843
					c0-1.123,0.382-2.066,1.146-2.83c0.765-0.764,1.692-1.147,2.784-1.147h1.286v-4.889c0-0.327-0.125-0.616-0.374-0.866
					c-0.249-0.249-0.554-0.374-0.912-0.374h-0.959c-0.359,0-0.671-0.14-0.936-0.421c-0.267-0.281-0.398-0.585-0.398-0.912
					c0-0.375,0.125-0.694,0.374-0.959c0.25-0.266,0.57-0.398,0.96-0.398h0.959c0.733,0,1.399,0.175,2,0.526
					c0.6,0.351,1.072,0.831,1.415,1.439s0.515,1.263,0.515,1.965V58.586z"/>
				<path clip-path="url(#SVGID_28_)" fill="#010101" d="M142.033,26.583c0-0.374,0.12-0.69,0.363-0.947
					c0.241-0.258,0.563-0.386,0.97-0.386c0.391,0,0.706,0.128,0.948,0.386c0.242,0.257,0.362,0.573,0.362,0.947V57.58
					c0,0.374-0.128,0.69-0.387,0.947c-0.257,0.258-0.564,0.386-0.924,0.386c-0.374,0-0.689-0.128-0.946-0.386
					c-0.258-0.257-0.387-0.573-0.387-0.947V26.583z"/>
				<path clip-path="url(#SVGID_28_)" fill="#010101" d="M154.411,47.24v-6.574c0-0.359-0.125-0.663-0.374-0.912
					c-0.25-0.249-0.554-0.375-0.911-0.375c-0.345,0-0.645,0.129-0.901,0.386c-0.257,0.258-0.386,0.558-0.386,0.901v6.574H154.411z
					 M151.839,49.93v5.011c0,0.326,0.129,0.625,0.386,0.898c0.257,0.271,0.557,0.407,0.901,0.407c0.357,0,0.661-0.131,0.911-0.394
					c0.249-0.263,0.374-0.565,0.374-0.906v-0.371c0-0.387,0.133-0.704,0.398-0.952c0.265-0.247,0.577-0.371,0.936-0.371
					c0.374,0,0.687,0.124,0.936,0.373c0.25,0.248,0.375,0.567,0.375,0.955v0.373c0,1.118-0.383,2.058-1.147,2.819
					c-0.764,0.761-1.691,1.141-2.782,1.141c-1.076,0-2.001-0.386-2.773-1.158s-1.158-1.711-1.158-2.819v-14.27
					c0-1.123,0.383-2.066,1.147-2.831c0.764-0.763,1.691-1.146,2.784-1.146c0.732,0,1.398,0.176,2,0.528
					c0.6,0.351,1.071,0.839,1.415,1.464c0.343,0.625,0.515,1.289,0.515,1.992v9.257H151.839z"/>
				<path clip-path="url(#SVGID_28_)" fill="#010101" d="M171.432,42.678V57.58c0,0.374-0.129,0.69-0.386,0.947
					c-0.257,0.258-0.565,0.386-0.924,0.386c-0.374,0-0.69-0.128-0.948-0.386c-0.257-0.257-0.386-0.573-0.386-0.947V26.583
					c0-0.374,0.121-0.69,0.362-0.947c0.242-0.258,0.565-0.386,0.972-0.386c0.39,0,0.705,0.128,0.946,0.386
					c0.242,0.257,0.363,0.573,0.363,0.947v13.405h2.573V26.583c0-0.374,0.129-0.69,0.386-0.947c0.258-0.258,0.573-0.386,0.948-0.386
					c0.39,0,0.705,0.128,0.947,0.386c0.241,0.257,0.362,0.573,0.362,0.947V57.58c0,0.374-0.129,0.69-0.386,0.947
					c-0.258,0.258-0.566,0.386-0.924,0.386c-0.343,0-0.652-0.128-0.924-0.386c-0.273-0.257-0.41-0.573-0.41-0.947V42.678H171.432z"
					/>
				<path clip-path="url(#SVGID_28_)" fill="#010101" d="M180.392,38.022c0-0.343,0.128-0.651,0.387-0.924
					c0.257-0.273,0.572-0.409,0.946-0.409c0.359,0,0.667,0.136,0.924,0.409c0.258,0.273,0.387,0.581,0.387,0.924V57.58
					c0,0.375-0.129,0.69-0.387,0.948c-0.257,0.257-0.564,0.386-0.924,0.386c-0.374,0-0.689-0.129-0.946-0.386
					c-0.259-0.258-0.387-0.573-0.387-0.948V38.022z M181.725,28.875c0.452,0,0.838,0.168,1.158,0.503
					c0.319,0.336,0.48,0.713,0.48,1.135c0,0.436-0.161,0.827-0.48,1.169c-0.32,0.343-0.706,0.515-1.158,0.515
					s-0.842-0.172-1.17-0.515c-0.327-0.342-0.491-0.733-0.491-1.169c0-0.437,0.164-0.819,0.491-1.147
					C180.883,29.04,181.272,28.875,181.725,28.875"/>
				<path clip-path="url(#SVGID_28_)" fill="#010101" d="M190.591,46.328c1.061,0,1.981,0.39,2.761,1.17
					c0.779,0.78,1.17,1.716,1.17,2.807v4.632c0,1.092-0.392,2.027-1.174,2.807c-0.782,0.78-1.704,1.17-2.769,1.17
					c-1.095,0-2.026-0.389-2.792-1.166c-0.767-0.777-1.15-1.709-1.15-2.797v-1.469c0-0.357,0.126-0.66,0.379-0.909
					c0.251-0.248,0.558-0.373,0.92-0.373c0.394,0,0.717,0.124,0.968,0.372c0.252,0.248,0.378,0.55,0.378,0.907v1.466
					c0,0.341,0.133,0.643,0.397,0.907c0.266,0.263,0.569,0.395,0.912,0.395c0.344,0,0.644-0.136,0.901-0.408
					c0.257-0.272,0.386-0.571,0.386-0.898v-4.617c0-0.358-0.13-0.664-0.389-0.921c-0.258-0.256-0.561-0.385-0.904-0.385
					c-0.735,0-1.405-0.179-2.009-0.539c-0.604-0.359-1.077-0.836-1.422-1.429c-0.344-0.594-0.518-1.251-0.518-1.969v-4.407
					c0-0.703,0.173-1.367,0.518-1.992c0.344-0.625,0.816-1.113,1.419-1.465c0.602-0.351,1.271-0.527,2.006-0.527
					c0.72,0,1.381,0.175,1.983,0.526c0.602,0.351,1.079,0.834,1.43,1.451c0.353,0.616,0.529,1.283,0.529,2v1.497
					c0,0.374-0.129,0.682-0.387,0.924c-0.257,0.242-0.581,0.363-0.971,0.363c-0.357,0-0.663-0.125-0.912-0.375
					c-0.25-0.249-0.374-0.553-0.374-0.912v-1.497c0-0.343-0.129-0.644-0.386-0.901c-0.258-0.257-0.558-0.386-0.901-0.386
					c-0.343,0-0.646,0.125-0.912,0.374c-0.265,0.25-0.397,0.554-0.397,0.913v4.398c0,0.343,0.133,0.64,0.397,0.889
					C189.944,46.203,190.248,46.328,190.591,46.328"/>
				<path clip-path="url(#SVGID_28_)" fill="#010101" d="M201.353,39.707V57.58c0,0.359-0.141,0.671-0.421,0.936
					c-0.281,0.265-0.585,0.397-0.912,0.397c-0.375,0-0.694-0.125-0.96-0.374s-0.397-0.569-0.397-0.959V39.707h-1.053
					c-0.343,0-0.652-0.136-0.924-0.409c-0.273-0.273-0.41-0.581-0.41-0.924c0-0.39,0.129-0.714,0.386-0.971
					c0.258-0.258,0.574-0.386,0.948-0.386h1.053V30.7c0-0.405,0.128-0.728,0.387-0.97c0.257-0.242,0.58-0.363,0.971-0.363
					c0.343,0,0.65,0.129,0.924,0.386c0.271,0.257,0.409,0.573,0.409,0.947v6.317h1.053c0.39,0,0.709,0.125,0.959,0.374
					c0.249,0.25,0.374,0.577,0.374,0.983c0,0.359-0.132,0.67-0.398,0.935c-0.265,0.266-0.576,0.398-0.935,0.398H201.353z"/>
				<path clip-path="url(#SVGID_28_)" fill="#010101" d="M210.827,40.666c0-0.359-0.125-0.663-0.374-0.912
					c-0.25-0.25-0.555-0.375-0.913-0.375c-0.343,0-0.644,0.129-0.901,0.386c-0.257,0.258-0.386,0.558-0.386,0.901v14.27
					c0,0.328,0.129,0.628,0.386,0.901c0.258,0.273,0.559,0.409,0.901,0.409c0.358,0,0.663-0.132,0.913-0.397
					c0.249-0.266,0.374-0.57,0.374-0.913V40.666z M205.61,40.666c0-1.123,0.382-2.067,1.146-2.831
					c0.765-0.764,1.693-1.146,2.784-1.146c0.733,0,1.399,0.175,2,0.526c0.6,0.351,1.073,0.839,1.416,1.462
					c0.343,0.624,0.514,1.287,0.514,1.989v14.27c0,1.123-0.382,2.067-1.146,2.831c-0.765,0.764-1.692,1.146-2.784,1.146
					c-1.076,0-2-0.386-2.772-1.158c-0.771-0.772-1.157-1.711-1.157-2.819V40.666z"/>
				<path clip-path="url(#SVGID_28_)" fill="#010101" d="M219.856,39.707V57.58c0,0.374-0.129,0.69-0.386,0.947
					c-0.257,0.258-0.564,0.386-0.924,0.386c-0.374,0-0.69-0.128-0.948-0.386c-0.257-0.257-0.386-0.573-0.386-0.947V37.017h4.937
					c0.405,0,0.729,0.128,0.971,0.386c0.241,0.257,0.362,0.581,0.362,0.971c0,0.343-0.129,0.651-0.386,0.924
					s-0.573,0.409-0.947,0.409H219.856z"/>
				<path clip-path="url(#SVGID_28_)" fill="#010101" d="M225.215,38.022c0-0.343,0.128-0.651,0.386-0.924
					c0.257-0.273,0.573-0.409,0.947-0.409c0.358,0,0.667,0.136,0.924,0.409s0.386,0.581,0.386,0.924V57.58
					c0,0.375-0.129,0.69-0.386,0.948c-0.257,0.257-0.565,0.386-0.924,0.386c-0.374,0-0.69-0.129-0.947-0.386
					c-0.258-0.258-0.386-0.573-0.386-0.948V38.022z M226.548,28.875c0.451,0,0.838,0.168,1.157,0.503
					c0.319,0.336,0.48,0.713,0.48,1.135c0,0.436-0.161,0.827-0.48,1.169c-0.319,0.343-0.706,0.515-1.157,0.515
					c-0.452,0-0.843-0.172-1.171-0.515c-0.326-0.342-0.49-0.733-0.49-1.169c0-0.437,0.164-0.819,0.49-1.147
					C225.705,29.04,226.096,28.875,226.548,28.875"/>
				<path clip-path="url(#SVGID_28_)" fill="#010101" d="M236.794,47.24v-6.574c0-0.359-0.124-0.663-0.374-0.912
					c-0.249-0.249-0.555-0.375-0.912-0.375c-0.343,0-0.645,0.129-0.901,0.386c-0.257,0.258-0.386,0.558-0.386,0.901v6.574H236.794z
					 M234.221,49.93v5.011c0,0.326,0.129,0.625,0.386,0.898c0.257,0.271,0.559,0.407,0.901,0.407c0.357,0,0.663-0.131,0.912-0.394
					c0.25-0.263,0.374-0.565,0.374-0.906v-0.371c0-0.387,0.133-0.704,0.397-0.952c0.266-0.247,0.577-0.371,0.937-0.371
					c0.374,0,0.686,0.124,0.936,0.373c0.249,0.248,0.374,0.567,0.374,0.955v0.373c0,1.118-0.382,2.058-1.146,2.819
					c-0.766,0.761-1.693,1.141-2.784,1.141c-1.076,0-2.001-0.386-2.772-1.158c-0.772-0.772-1.157-1.711-1.157-2.819v-14.27
					c0-1.123,0.382-2.066,1.146-2.831c0.764-0.763,1.692-1.146,2.784-1.146c0.732,0,1.398,0.176,2,0.528
					c0.6,0.351,1.072,0.839,1.415,1.464s0.515,1.289,0.515,1.992v9.257H234.221z"/>
				<path clip-path="url(#SVGID_28_)" fill="#010101" d="M145.74,31.736c0.254-0.349,0.58-0.579,0.981-0.637
					c0.25-0.036,0.449-0.015,0.783,0.228c0.363,0.265,0.418,0.442,0.458,0.676c0.07,0.401-0.051,0.781-0.305,1.13l-6.677,9.178
					c-0.255,0.349-0.588,0.569-1.004,0.622c-0.227,0.027-0.435,0.04-0.769-0.204c-0.473-0.343-0.443-0.5-0.471-0.746
					c-0.048-0.441,0.07-0.72,0.324-1.069L145.74,31.736z"/>
			</g>
		</g>
		<g opacity="0.92" clip-path="url(#SVGID_26_)">
			<g>
				<defs>
					<rect id="SVGID_29_" x="100.469" y="72.457" width="149.923" height="34.161"/>
				</defs>
				<clipPath id="SVGID_30_">
					<use xlink:href="#SVGID_29_"  overflow="visible"/>
				</clipPath>
				<g clip-path="url(#SVGID_30_)">
					<text transform="matrix(1 0 0 1 109.6143 98.3823)" fill="#010101" font-family="'ModulaRoundSans'" font-size="36.1763">Te</text>
				</g>
				<g clip-path="url(#SVGID_30_)">
					<text transform="matrix(1 0 0 1 126.0742 98.3823)" fill="#010101" font-family="'ModulaRoundSans'" font-size="36.1763">ra</text>
				</g>
				<g clip-path="url(#SVGID_30_)">
					<text transform="matrix(1 0 0 1 140.2197 98.3823)" fill="#010101" font-family="'ModulaRoundSans'" font-size="36.1763">z </text>
				</g>
				<g clip-path="url(#SVGID_30_)">
					<text transform="matrix(1 0 0 1 154.2549 93.3354)" fill="#010101" font-family="'ModulaRoundSans'" font-size="37.38"> </text>
				</g>
				<g clip-path="url(#SVGID_30_)">
					<text transform="matrix(1 0 0 1 153.2197 98.3823)" fill="#010101" font-family="'ModulaRoundSans'" font-size="36.1763">Tworz</text>
				</g>
				<g clip-path="url(#SVGID_30_)">
					<text transform="matrix(1 0 0 1 195.9805 98.3823)" fill="#010101" font-family="'ModulaRoundSans'" font-size="36.1763">y</text>
				</g>
				<g clip-path="url(#SVGID_30_)">
					<text transform="matrix(1 0 0 1 204.7354 98.3823)" fill="#010101" font-family="'ModulaRoundSans'" font-size="36.1763">sz</text>
				</g>
				<g clip-path="url(#SVGID_30_)">
					
						<text transform="matrix(1 0 0 2.7517 -199.0938 508.0332)" fill="#010101" font-family="'ModulaRoundSans'" font-size="13.5845">  </text>
				</g>
				<g clip-path="url(#SVGID_30_)">
					<text transform="matrix(1 0 0 1 226.3428 98.3823)" fill="#010101" font-family="'ModulaRoundSans'" font-size="36.1763">T</text>
				</g>
				<g clip-path="url(#SVGID_30_)">
					<text transform="matrix(1 0 0 1 234.0479 98.3823)" fill="#010101" font-family="'ModulaRoundSans'" font-size="36.1763">y</text>
				</g>
			</g>
		</g>
		<g opacity="0.92" clip-path="url(#SVGID_26_)">
			<g>
				<defs>
					<rect id="SVGID_31_" x="57.676" y="-0.083" width="242.538" height="160.169"/>
				</defs>
				<clipPath id="SVGID_32_">
					<use xlink:href="#SVGID_31_"  overflow="visible"/>
				</clipPath>
				
					<path clip-path="url(#SVGID_32_)" fill="none" stroke="#010101" stroke-width="2" stroke-linecap="round" stroke-linejoin="round" stroke-dasharray="0,4.111" d="
					M251.065,97.657c9.673,0.04,21.939,0.118,26.724,0.065"/>
				
					<path clip-path="url(#SVGID_32_)" fill="none" stroke="#010101" stroke-width="2" stroke-linecap="round" stroke-linejoin="round" stroke-dasharray="0,3.962" d="
					M280.073,93.692c0.738-12.801,0.651-53.578-37.618-75.581"/>
				
					<path clip-path="url(#SVGID_32_)" fill="none" stroke="#010101" stroke-width="2" stroke-linecap="round" stroke-linejoin="round" stroke-dasharray="0,4.036" d="
					M237.138,15.295C195.333-5.131,119.313-5.133,89.799,36.276"/>
				
					<path clip-path="url(#SVGID_32_)" fill="none" stroke="#010101" stroke-width="2" stroke-linecap="round" stroke-linejoin="round" stroke-dasharray="0,3.927" d="
					M86.551,41.254c-23.268,38.538-4.332,74.325,11.602,77.381"/>
				
					<path clip-path="url(#SVGID_32_)" fill="none" stroke="#010101" stroke-width="2" stroke-linecap="round" stroke-linejoin="round" stroke-dasharray="0,3.978" d="
					M104.08,118.889c25.957,0.185,135.933-0.324,153.153-0.197"/>
				
					<path clip-path="url(#SVGID_32_)" fill="none" stroke="#010101" stroke-width="2" stroke-linecap="round" stroke-linejoin="round" stroke-dasharray="0,3.937" d="
					M263.151,118.955c30.488,2.746,16.358,25.062,11.852,31.2"/>
				
					<path clip-path="url(#SVGID_32_)" fill="none" stroke="#010101" stroke-width="2" stroke-linecap="round" stroke-linejoin="round" d="
					M273.801,151.713L273.801,151.713 M259.222,118.72L259.222,118.72 M100.103,118.844L100.103,118.844 M88.653,37.938
					L88.653,37.938 M240.726,17.145L240.726,17.145 M279.823,97.643L279.823,97.643 M246.954,97.643L246.954,97.643"/>
				
					<line clip-path="url(#SVGID_32_)" fill="none" stroke="#010101" stroke-width="2" stroke-linecap="round" stroke-linejoin="round" stroke-dasharray="0,4.396" x1="269.767" y1="149.354" x2="268.518" y2="155.829"/>
				
					<path clip-path="url(#SVGID_32_)" fill="none" stroke="#010101" stroke-width="2" stroke-linecap="round" stroke-linejoin="round" d="
					M268.103,157.986L268.103,157.986 M270.6,145.038L270.6,145.038"/>
				
					<line clip-path="url(#SVGID_32_)" fill="none" stroke="#010101" stroke-width="2" stroke-linecap="round" stroke-linejoin="round" stroke-dasharray="0,4.442" x1="272.373" y1="156.641" x2="278.801" y2="154.883"/>
				
					<path clip-path="url(#SVGID_32_)" fill="none" stroke="#010101" stroke-width="2" stroke-linecap="round" stroke-linejoin="round" d="
					M280.941,154.296L280.941,154.296 M268.089,157.814L268.089,157.814"/>
			</g>
		</g>
	</g>
</g>
</svg>
